<svg width="76" height="58" viewBox="0 0 76 58" fill="none" xmlns="http://www.w3.org/2000/svg">
<path d="M1.65298 57.9395C0.769384 55.7879 -0.0591113 54.7663 0.114907 53.9791C0.750686 51.0456 1.23831 47.9776 2.59413 45.2922C5.98972 37.9764 11.4524 32.4006 17.8779 27.6982C28.8134 19.6611 41.1853 14.9521 54.2652 11.6953C55.6639 11.3439 56.9887 10.9254 58.4546 10.5C58.5218 10.4259 58.5821 10.2106 58.6355 9.85398C56.6029 8.82032 54.4962 7.7195 52.5308 6.61178C51.5076 5.95369 50.4706 5.01308 49.8505 3.91059C49.4664 3.29215 49.4648 1.80556 49.9351 1.28708C50.5397 0.620461 51.7972 0.276001 52.7791 0.0865617C53.4854 0.0521433 54.2192 0.582757 54.9461 0.9721C60.398 3.89217 65.9843 6.6641 71.4431 9.72543C76.1009 12.3302 76.2179 14.7315 72.5692 18.3075C68.7862 22.0316 65.1514 25.89 61.5096 29.6072C60.3606 30.7251 58.9962 31.7828 57.6388 32.9816C55.8044 28.7525 55.8044 28.7525 65.5773 15.7456C56.208 16.6978 47.9911 19.5052 39.862 22.6624C31.7329 25.8195 24.2979 30.1464 17.4159 35.6497C10.3322 41.3753 5.88068 48.8133 1.65298 57.9395Z" fill="#3d5aee"/>
</svg>
