<svg width="22" height="44" viewBox="0 0 22 44" fill="none" xmlns="http://www.w3.org/2000/svg">
<path d="M0.664095 23.6956C4.42481 24.4076 4.42481 24.4076 9.49419 31.9991C9.43225 28.4642 9.31572 25.8495 9.21506 23.3336C9.08265 20.6202 8.85151 17.9227 8.62037 15.2252C8.23049 11.5404 7.64314 7.88727 7.26914 4.30117C7.12976 2.80431 6.0894 0.743325 8.57357 0.4452C10.7457 0.0959673 11.0949 2.26805 11.2343 3.76491C11.9928 9.11231 12.6684 14.5743 13.2294 19.9535C13.5082 22.9472 13.392 26.0044 13.5527 29.5235C16.8124 25.8596 16.8085 20.796 21.0362 17.4829C21.1915 19.0785 21.5635 20.1328 21.4102 21.069C19.7921 28.0139 17.4036 34.5763 13.7191 40.638C13.4036 41.1952 12.9893 41.7682 12.5432 42.1438C10.8737 43.7289 8.73682 43.6673 7.79519 41.5905C5.19604 36.1339 2.87722 30.5309 0.459658 24.9439C0.230444 24.7781 0.479019 24.4343 0.664095 23.6956Z" fill="#3d5aee"/>
</svg>
