
<svg width="64" height="48" viewBox="0 0 64 48" fill="none" xmlns="http://www.w3.org/2000/svg">
<path d="M33.0409 38.2178C34.0479 37.1389 35.4145 35.988 36.3495 34.6214C38.2916 31.7443 40.0898 28.7952 41.888 25.8462C45.2686 20.2358 48.6492 14.5535 52.3175 8.43962C47.5703 10.022 44.0458 14.05 38.4355 13.1149C38.939 12.2518 39.0828 11.5325 39.4425 11.3887C45.0528 9.08697 49.9439 5.63443 54.5473 1.82225C58.3595 -1.27065 60.3016 -0.407515 60.8051 4.2678C61.3086 9.1589 62.3155 14.05 63.0348 18.9411C63.1787 19.7323 62.891 20.5954 62.819 21.6024C59.7261 20.1639 59.7261 20.1639 57.1367 9.44661C56.5613 10.3817 56.0578 11.101 55.6262 11.8202C51.3825 19.2288 47.2107 26.6374 42.8231 33.974C41.3845 36.3477 39.6582 38.5774 37.7162 40.5195C34.2636 43.972 30.4515 43.8282 27.2147 40.1599C25.5604 38.2897 24.3376 35.988 23.2587 33.6863C22.0359 31.0969 21.2447 28.2917 20.1658 25.6304C19.3746 23.7603 18.3676 21.9621 17.4325 20.02C15.2027 20.8832 14.3396 22.5375 13.3326 24.048C9.08886 30.4496 5.92404 37.2827 3.55042 44.6194C3.26271 45.4825 3.11885 46.4176 2.61535 47.2088C2.32764 47.6404 1.53643 48 0.961007 48C0.673296 48 0.09787 47.2088 0.025942 46.7772C-0.0459859 45.5544 0.0259486 44.1878 0.31366 43.037C2.32764 34.7653 5.70825 27.069 10.5274 20.092C11.4625 18.6534 12.6853 17.3587 13.98 16.2798C16.3536 14.3377 18.7272 14.4096 20.6693 16.7833C22.2517 18.7253 23.4025 21.027 24.4095 23.3287C25.92 26.7093 26.9989 30.2338 28.5094 33.6144C29.3725 35.4126 30.3795 37.2827 33.0409 38.2178Z" fill="#4967D4"/>
</svg>
