<svg width="306" height="172" viewBox="0 0 306 172" fill="none" xmlns="http://www.w3.org/2000/svg">
<g clipPath="url(#clip0_7135_75889)">
<rect width="306" height="172" fill="#162136"/>
<mask id="mask0_7135_75889" style="mask-type:alpha" maskUnits="userSpaceOnUse" x="0" y="0" width="306" height="172">
<rect x="0.5" y="0.5" width="305" height="171" fill="black" stroke="#1E6E7A"/>
</mask>
<g mask="url(#mask0_7135_75889)">
<path fill-rule="evenodd" clip-rule="evenodd" d="M137.254 186.505L138.097 -14.3402L163.044 -36L162.027 208.014L137.254 186.505ZM37.9626 100.322L22 86.4627L108.559 11.3098L107.919 161.035L84.7747 140.94L85.0946 59.4006L37.9626 100.322ZM190.468 103.952L190.468 103.952L190.468 103.977V103.952ZM190.468 103.952L191.689 57.2243L204.308 46.2682L216.723 57.0476L215.502 103.876L202.941 114.782L190.468 103.952ZM237.745 129.2L237.744 129.199V129.225L237.745 129.2ZM237.745 129.2L250.218 140.029L262.778 129.124L264 31.8059L251.584 21.0265L238.965 31.9826L237.745 129.2Z" fill="#2AB6D5" fill-opacity="0.6"/>
<g filter="url(#filter0_b_7135_75889)">
<rect width="306" height="172" fill="url(#paint0_linear_7135_75889)" fill-opacity="0.2"/>
</g>
<path d="M105.768 97.8141V65H120.9C123.68 65 126.002 65.3572 127.86 66.0754C129.717 66.7898 131.112 67.7825 132.047 69.0496C132.983 70.3167 133.451 71.7719 133.451 73.415C133.451 74.6972 133.156 75.8215 132.563 76.7878C131.974 77.7542 131.164 78.5438 130.137 79.1604C129.111 79.7733 127.937 80.2095 126.621 80.4652V80.7848C128.059 80.8374 129.41 81.1909 130.67 81.8413C131.93 82.4918 132.957 83.4055 133.741 84.5749C134.529 85.7443 134.923 87.1355 134.923 88.7486C134.923 90.4895 134.429 92.0424 133.438 93.4036C132.446 94.7647 130.986 95.8401 129.055 96.6335C127.123 97.4268 124.741 97.8179 121.913 97.8179H105.764L105.768 97.8141ZM113.759 78.7318H119.683C120.779 78.7318 121.753 78.5626 122.606 78.2279C123.46 77.8933 124.139 77.412 124.637 76.7953C125.136 76.1749 125.387 75.4342 125.387 74.5694C125.387 73.385 124.902 72.4261 123.936 71.7004C122.97 70.9747 121.602 70.61 119.83 70.61H113.759V78.7355V78.7318ZM113.759 92.1439H120.272C122.498 92.1439 124.122 91.7717 125.144 91.031C126.166 90.2902 126.677 89.2976 126.677 88.0567C126.677 87.1506 126.426 86.3497 125.919 85.6541C125.413 84.9584 124.698 84.4132 123.771 84.0184C122.84 83.6236 121.736 83.4243 120.458 83.4243H113.759V92.1402V92.1439Z" fill="white"/>
<path d="M152.883 98.2947C149.968 98.2947 147.461 97.7795 145.36 96.7493C143.264 95.719 141.649 94.2564 140.514 92.3575C139.384 90.4625 138.816 88.2139 138.816 85.6195C138.816 83.025 139.384 80.8668 140.514 78.9529C141.644 77.0428 143.242 75.55 145.304 74.4822C147.365 73.4143 149.786 72.8804 152.566 72.8804C154.437 72.8804 156.178 73.1398 157.798 73.6587C159.418 74.1776 160.829 74.9559 162.042 75.9899C163.255 77.0277 164.199 78.325 164.874 79.8929C165.55 81.4571 165.888 83.2882 165.888 85.3826V87.2589H141.952V83.0288H158.487C158.487 82.0474 158.24 81.1751 157.75 80.4155C157.257 79.656 156.577 79.0619 155.711 78.6295C154.844 78.1971 153.835 77.979 152.692 77.979C151.549 77.979 150.444 78.2159 149.526 78.6934C148.608 79.1672 147.894 79.8064 147.378 80.5998C146.863 81.3969 146.599 82.2805 146.586 83.2506V87.2739C146.586 88.4922 146.846 89.545 147.37 90.4286C147.894 91.316 148.634 92.0003 149.591 92.4816C150.548 92.9629 151.687 93.2035 153.004 93.2035C153.879 93.2035 154.676 93.0983 155.403 92.8839C156.131 92.6696 156.75 92.35 157.265 91.9214C157.781 91.4927 158.175 90.9701 158.448 90.3497L165.719 90.767C165.351 92.2823 164.597 93.6059 163.458 94.7339C162.319 95.8619 160.855 96.738 159.067 97.3622C157.278 97.9864 155.213 98.2984 152.874 98.2984L152.883 98.2947Z" fill="white"/>
<path d="M171.024 97.8145V73.2011H178.646V77.4951H178.941C179.456 75.9685 180.327 74.8104 181.544 74.0246C182.761 73.2387 184.164 72.8477 185.753 72.8477C186.147 72.8477 186.572 72.8702 187.026 72.9116C187.481 72.9529 187.88 73.0131 188.226 73.0883V79.1458C187.858 79.0518 187.347 78.9653 186.693 78.8901C186.039 78.8149 185.446 78.7773 184.904 78.7773C183.748 78.7773 182.717 78.9954 181.812 79.4278C180.907 79.8602 180.193 80.4618 179.673 81.2288C179.149 81.9997 178.889 82.8833 178.889 83.8872V97.8108H171.029L171.024 97.8145Z" fill="white"/>
<path d="M198.005 106.996C197.009 106.996 196.078 106.928 195.207 106.797C194.341 106.661 193.622 106.5 193.059 106.308L194.83 101.198C196.22 101.57 197.394 101.672 198.347 101.495C199.3 101.318 200.053 100.675 200.608 99.5661L201.071 98.5246L190.902 73.208H199.17L205.038 91.2827H205.332L211.257 73.208L219.58 73.2418L208.563 100.48C208.035 101.796 207.316 102.939 206.415 103.916C205.51 104.894 204.371 105.654 202.989 106.191C201.612 106.729 199.949 107 198.009 107L198.005 106.996Z" fill="white"/>
<path d="M230.174 73.2002L235.379 81.8032L240.715 73.2002H248.779L240.568 85.5069L249 97.8136H240.97L235.379 89.3046L229.879 97.8136H221.759L230.174 85.5069L222.054 73.2002H230.174Z" fill="white"/>
<path d="M57 81.431L59.1417 83.2906L65.4655 77.8001L65.4226 88.7404L68.5279 91.4365L68.6137 71.3477L57 81.431Z" fill="white"/>
<path d="M72.577 67.9061L72.4639 94.8539L75.7876 97.7397L75.9242 65L72.577 67.9061Z" fill="white"/>
<path d="M79.6035 83.7776L81.2771 85.2307L82.9624 83.7674L83.1263 77.4844L81.4605 76.0381L79.7674 77.5081L79.6035 83.781V83.7776Z" fill="white"/>
<path d="M85.9468 87.1651L87.6204 88.6181L89.3057 87.1549L89.4695 74.0977L87.8037 72.6514L86.1106 74.1214L85.9468 87.1685V87.1651Z" fill="white"/>
</g>
</g>
<defs>
<filter id="filter0_b_7135_75889" x="-20" y="-20" width="346" height="212" filterUnits="userSpaceOnUse" color-interpolation-filters="sRGB">
<feFlood flood-opacity="0" result="BackgroundImageFix"/>
<feGaussianBlur in="BackgroundImageFix" stdDeviation="10"/>
<feComposite in2="SourceAlpha" operator="in" result="effect1_backgroundBlur_7135_75889"/>
<feBlend mode="normal" in="SourceGraphic" in2="effect1_backgroundBlur_7135_75889" result="shape"/>
</filter>
<linearGradient id="paint0_linear_7135_75889" x1="275.559" y1="-22.717" x2="63.0757" y2="123.896" gradientUnits="userSpaceOnUse">
<stop stop-color="white" stop-opacity="0.08"/>
<stop offset="0.0001" stop-opacity="0.08"/>
<stop offset="1"/>
</linearGradient>
<clipPath id="clip0_7135_75889">
<rect width="306" height="172" fill="white"/>
</clipPath>
</defs>
</svg>
