<svg width="459" height="167" viewBox="0 0 459 167" fill="none" xmlns="http://www.w3.org/2000/svg">
<g clip-path="url(#clip0_4662_37795)">
<path d="M-18 86.608L-1.93818 70.4743C13.6971 54.769 39.1213 54.769 54.7566 70.4743L65.7587 81.5257C81.394 97.231 106.818 97.231 122.453 81.5257L133.456 70.4743C149.091 54.769 174.515 54.769 190.15 70.4743L201.153 81.5257C216.788 97.231 242.212 97.231 257.847 81.5257L268.85 70.4743C284.485 54.769 309.909 54.769 325.544 70.4743L336.546 81.5257C352.182 97.231 377.606 97.231 393.241 81.5257L404.243 70.4743C419.879 54.769 445.303 54.769 460.938 70.4743L477 86.608" stroke="#4967D4" stroke-width="8"/>
<path d="M-18 110.608L-1.93818 94.4743C13.6971 78.769 39.1213 78.769 54.7566 94.4743L65.7587 105.526C81.394 121.231 106.818 121.231 122.453 105.526L133.456 94.4743C149.091 78.769 174.515 78.769 190.15 94.4743L201.153 105.526C216.788 121.231 242.212 121.231 257.847 105.526L268.85 94.4743C284.485 78.769 309.909 78.769 325.544 94.4743L336.546 105.526C352.182 121.231 377.606 121.231 393.241 105.526L404.243 94.4743C419.879 78.769 445.303 78.769 460.938 94.4743L477 110.608" stroke="#859BEC" stroke-width="8"/>
<g filter="url(#filter0_f_4662_37795)">
<ellipse cx="227.5" cy="86.5" rx="136.5" ry="49.5" fill="#2ABB53" fill-opacity="0.2"/>
</g>
<path d="M246.574 35.3509V61.2281H278.652V54.3543C278.652 46.4171 274.193 39.6213 267.854 36.7757C265.813 35.86 263.571 35.3509 261.222 35.3509H246.574Z" fill="#D6D6D6"/>
<path d="M202.078 54.5604V132.649H238.937C247.976 132.649 255.305 125.345 255.305 116.335V60.9392H255.228V56.5378C255.228 50.6868 257.513 45.3881 261.2 41.5551C263.2 39.4762 265.611 37.8318 268.304 36.7598C266.398 35.8544 264.304 35.3509 262.112 35.3509H220.573C210.356 35.3509 202.078 43.9507 202.078 54.5604Z" fill="white"/>
<path d="M180.348 109.877L180.348 113.729C180.348 121.29 184.358 127.814 190.161 130.843C190.419 130.977 190.682 131.104 190.948 131.231C192.955 132.142 195.152 132.649 197.454 132.649H240.365V132.457C240.171 132.428 239.981 132.392 239.792 132.355C238.576 132.118 237.405 131.734 236.294 131.231C230.071 128.398 225.694 121.634 225.694 113.733V109.881L180.348 109.877Z" fill="#D6D6D6"/>
<rect x="209.322" y="61.2281" width="39.3217" height="3.10526" fill="#D9D9D9"/>
<rect x="209.322" y="70.5439" width="39.3217" height="3.10526" fill="#D9D9D9"/>
<rect x="209.322" y="80.8947" width="39.3217" height="3.10526" fill="#D9D9D9"/>
<rect x="209.322" y="90.2105" width="24.8348" height="3.10526" fill="#D9D9D9"/>
<path d="M215.39 80.3541C217.09 73.207 212.702 66.0285 205.59 64.3206C198.477 62.6126 191.334 67.0219 189.634 74.169C187.934 81.3161 192.322 88.4946 199.435 90.2025C206.547 91.9105 213.691 87.5012 215.39 80.3541Z" fill="#2ABB53"/>
<path d="M201.953 82.7249L194.843 77.1408L196.352 75.2006L201.649 79.3666L208.877 71.2169L210.705 72.8518L201.953 82.7249Z" fill="white"/>
</g>
<defs>
<filter id="filter0_f_4662_37795" x="27" y="-27" width="401" height="227" filterUnits="userSpaceOnUse" color-interpolation-filters="sRGB">
<feFlood flood-opacity="0" result="BackgroundImageFix"/>
<feBlend mode="normal" in="SourceGraphic" in2="BackgroundImageFix" result="shape"/>
<feGaussianBlur stdDeviation="32" result="effect1_foregroundBlur_4662_37795"/>
</filter>
<clipPath id="clip0_4662_37795">
<rect width="459" height="167" fill="white"/>
</clipPath>
</defs>
</svg>
