<svg xmlns="http://www.w3.org/2000/svg" xmlns:xlink="http://www.w3.org/1999/xlink" viewBox="0 0 2225.08 2068.36"><linearGradient id="a" x1="769.93" x2="1073.92" y1="1216.4" y2="1216.4" gradientTransform="rotate(2.01 -3168.903 998.17)" gradientUnits="userSpaceOnUse"><stop offset="0" stop-color="#2b95ff"/><stop offset=".12" stop-color="#2b95ff"/><stop offset=".27" stop-color="#2b95ff" stop-opacity=".5"/><stop offset=".34" stop-color="#5766d9" stop-opacity=".57"/><stop offset=".45" stop-color="#9527a6" stop-opacity=".66"/><stop offset=".5" stop-color="#ad0f93" stop-opacity=".7"/><stop offset=".6" stop-color="#7a0a68" stop-opacity=".79"/><stop offset=".71" stop-color="#46063b" stop-opacity=".88"/><stop offset=".83" stop-color="#20031b" stop-opacity=".95"/><stop offset=".92" stop-color="#090107" stop-opacity=".99"/><stop offset="1" stop-color="#010101"/></linearGradient><linearGradient xlink:href="#a" id="c" x1="894.54" x2="997.48" y1="1267.46" y2="1267.46"/><linearGradient xlink:href="#a" id="d" x1="918.21" x2="1015.85" y1="1268.23" y2="1268.23"/><linearGradient xlink:href="#a" id="e" x1="929.15" x2="1090.86" y1="1262.37" y2="1262.37"/><linearGradient xlink:href="#a" id="f" x1="982.22" x2="1101.25" y1="1262.11" y2="1262.11"/><linearGradient id="b" x1="1137.07" x2="1149.97" y1="1304.75" y2="1304.75" gradientTransform="rotate(2.01 -3168.903 998.17)" gradientUnits="userSpaceOnUse"><stop offset="0" stop-color="#010101"/><stop offset=".08" stop-color="#090107" stop-opacity=".99"/><stop offset=".17" stop-color="#20031b" stop-opacity=".95"/><stop offset=".29" stop-color="#46063b" stop-opacity=".88"/><stop offset=".4" stop-color="#7a0a68" stop-opacity=".79"/><stop offset=".5" stop-color="#ad0f93" stop-opacity=".7"/><stop offset=".55" stop-color="#9527a6" stop-opacity=".66"/><stop offset=".66" stop-color="#5766d9" stop-opacity=".57"/><stop offset=".73" stop-color="#2b95ff" stop-opacity=".5"/><stop offset=".88" stop-color="#2b95ff"/><stop offset="1" stop-color="#2b95ff"/></linearGradient><linearGradient xlink:href="#b" id="g" x1="1149.2" x2="1177.86" y1="1294.4" y2="1294.4"/><linearGradient xlink:href="#b" id="h" x1="1177.28" x2="1221.06" y1="1287.87" y2="1287.87"/><linearGradient xlink:href="#b" id="i" x1="1238.42" x2="1300.7" y1="1268.91" y2="1268.91"/><linearGradient xlink:href="#b" id="j" x1="1197.93" x2="1338.92" y1="1250.65" y2="1250.65"/><linearGradient xlink:href="#b" id="k" x1="1155.92" x2="1477.54" y1="1208.31" y2="1208.31"/><linearGradient xlink:href="#b" id="l" x1="1224.81" x2="1460.29" y1="1208.07" y2="1208.07"/><linearGradient xlink:href="#b" id="m" x1="1350.97" x2="1422.35" y1="1202.65" y2="1202.65"/><linearGradient xlink:href="#b" id="n" x1="1140.77" x2="1645.35" y1="1137.21" y2="1137.21"/><linearGradient xlink:href="#b" id="o" x1="851.28" x2="1118.47" y1="641.34" y2="641.34" gradientTransform="matrix(1.26922 .04454 -.04174 1.18927 253.77 502.11)"/><linearGradient xlink:href="#b" id="p" x1="842.32" x2="1308.35" y1="660.38" y2="660.38" gradientTransform="matrix(1.19926 .04209 -.04069 1.15929 219.35 452.91)"/><linearGradient xlink:href="#b" id="q" x1="395.75" x2="640.67" y1="-272.39" y2="-272.39" gradientTransform="matrix(1.81888 .06383 -.06278 1.7889 639.61 1706.18)"/><linearGradient xlink:href="#b" id="r" x1="675.14" x2="1046.07" y1="-85.99" y2="-85.99" gradientTransform="matrix(1.39914 .0491 -.05542 1.57903 348.29 1309.92)"/><linearGradient xlink:href="#b" id="s" x1="1533.82" x2="1819.08" y1="1001.66" y2="1001.66"/><linearGradient xlink:href="#b" id="t" x1="1625.1" x2="1815.31" y1="935.09" y2="935.09"/><linearGradient xlink:href="#a" id="u" x1="768.06" x2="1073.73" y1="566.98" y2="566.98"/><linearGradient xlink:href="#a" id="v" x1="787.83" x2="941.96" y1="562.18" y2="562.18"/><linearGradient xlink:href="#a" id="w" x1="765.88" x2="941.51" y1="580.02" y2="580.02"/><linearGradient xlink:href="#a" id="x" x1="613.67" x2="1060.05" y1="620.31" y2="620.31"/><linearGradient xlink:href="#a" id="y" x1="563.72" x2="1078.45" y1="647.92" y2="647.92"/><linearGradient xlink:href="#a" id="z" x1="-155.8" x2="142.01" y1="-278.79" y2="-278.79" gradientTransform="matrix(1.52906 .05366 -.05156 1.4691 676.35 1181.69)"/><linearGradient xlink:href="#a" id="A" x1="-349" x2="-182.41" y1="-690.89" y2="-690.89" gradientTransform="matrix(1.80889 .06348 -.06559 1.86885 1092.44 2112.93)"/><linearGradient xlink:href="#a" id="B" x1="637.26" x2="828.3" y1="736.83" y2="736.83"/><linearGradient xlink:href="#a" id="C" x1="628.73" x2="812.45" y1="770.96" y2="770.96"/><linearGradient xlink:href="#a" id="D" x1="-180.3" x2="-12.43" y1="689.88" y2="689.88" gradientTransform="matrix(1.58465 .13028 -.08194 .99664 751.23 252.27)"/><linearGradient xlink:href="#a" id="E" x1="547.87" x2="888.96" y1="849.43" y2="849.43"/><linearGradient xlink:href="#a" id="F" x1="440.47" x2="1021.89" y1="913.13" y2="913.13"/><linearGradient xlink:href="#a" id="G" x1="522.94" x2="913.71" y1="935.48" y2="935.48"/><linearGradient xlink:href="#a" id="H" x1="649.33" x2="751.95" y1="976.24" y2="976.24"/><linearGradient xlink:href="#a" id="I" x1="440.28" x2="1068.65" y1="1014.87" y2="1014.87"/><linearGradient xlink:href="#a" id="J" x1="597.22" x2="880.83" y1="1061.03" y2="1061.03"/><linearGradient xlink:href="#a" id="K" x1="551.92" x2="1007.43" y1="1085.5" y2="1085.5"/><linearGradient xlink:href="#a" id="L" x1="700.87" x2="878.44" y1="1144.94" y2="1144.94"/><linearGradient xlink:href="#a" id="M" x1="679.61" x2="956.19" y1="1154.54" y2="1154.54"/><linearGradient xlink:href="#a" id="N" x1="738.1" x2="965.93" y1="1186.96" y2="1186.96"/><linearGradient xlink:href="#a" id="O" x1="801.17" x2="951.47" y1="1214.52" y2="1214.52"/><linearGradient xlink:href="#b" id="P" x1="1179.41" x2="1788.08" y1="891" y2="891"/><linearGradient xlink:href="#b" id="Q" x1="1387.25" x2="1839.46" y1="832.44" y2="832.44"/><linearGradient xlink:href="#b" id="R" x1="1369.22" x2="1837.27" y1="809" y2="809"/><linearGradient xlink:href="#b" id="S" x1="1076.7" x2="1685.57" y1="585.61" y2="585.61" gradientTransform="matrix(1.04935 .03683 -.03753 1.06934 77.75 258.32)"/><linearGradient xlink:href="#b" id="T" x1="1146.05" x2="1781.4" y1="763.25" y2="763.25"/><linearGradient id="U" x1="522.56" x2="826.03" y1="-378.6" y2="-378.6" gradientTransform="matrix(1.57903 .05542 -.05436 1.54905 489.12 1353.43)" gradientUnits="userSpaceOnUse"><stop offset="0" stop-color="#010101"/><stop offset=".06" stop-color="#090501" stop-opacity=".99"/><stop offset=".14" stop-color="#201204" stop-opacity=".96"/><stop offset=".22" stop-color="#462808" stop-opacity=".92"/><stop offset=".32" stop-color="#7b470e" stop-opacity=".86"/><stop offset=".42" stop-color="#be6d16" stop-opacity=".78"/><stop offset=".5" stop-color="#ff931e" stop-opacity=".7"/><stop offset=".54" stop-color="#e69338" stop-opacity=".68"/><stop offset=".61" stop-color="#a6937b" stop-opacity=".62"/><stop offset=".71" stop-color="#4094e8" stop-opacity=".52"/><stop offset=".73" stop-color="#2b95ff" stop-opacity=".5"/><stop offset=".88" stop-color="#2b95ff"/><stop offset="1" stop-color="#2b95ff"/></linearGradient><linearGradient xlink:href="#b" id="V" x1="1535.12" x2="1728.46" y1="499.5" y2="499.5"/><linearGradient xlink:href="#b" id="W" x1="1348.51" x2="1513.48" y1="642.82" y2="642.82"/><linearGradient xlink:href="#b" id="X" x1="1232.86" x2="1509.52" y1="626.39" y2="626.39"/><linearGradient xlink:href="#b" id="Y" x1="1308.23" x2="1403.25" y1="563.74" y2="563.74"/><linearGradient xlink:href="#b" id="Z" x1="1238.53" x2="1442.72" y1="573.85" y2="573.85"/><linearGradient xlink:href="#b" id="aa" x1="1147.51" x2="1412.49" y1="553.28" y2="553.28"/><linearGradient xlink:href="#b" id="ab" x1="1186.98" x2="1346.5" y1="530.94" y2="530.94"/><linearGradient xlink:href="#b" id="ac" x1="1222.76" x2="1257.02" y1="495.34" y2="495.34"/><linearGradient xlink:href="#b" id="ad" x1="1117.14" x2="1243.82" y1="522.91" y2="522.91"/><linearGradient xlink:href="#b" id="ae" x1="1132.28" x2="1162.68" y1="486.24" y2="486.24"/><linearGradient xlink:href="#a" id="af" x1="1032.64" x2="1065.51" y1="487.96" y2="487.96"/><linearGradient xlink:href="#a" id="ag" x1="987.63" x2="1065.5" y1="507.79" y2="507.79"/><linearGradient xlink:href="#a" id="ah" x1="925.02" x2="1037.96" y1="520.99" y2="520.99"/><linearGradient xlink:href="#a" id="ai" x1="892.78" x2="998.36" y1="528.23" y2="528.23"/><linearGradient xlink:href="#a" id="aj" x1="687.21" x2="1058" y1="1546.03" y2="1546.03" gradientTransform="rotate(-1.43 -3197.764 970.286)"/><linearGradient xlink:href="#a" id="ak" x1="839.77" x2="964.41" y1="1608.54" y2="1608.54" gradientTransform="rotate(-1.43 -3197.764 970.286)"/><linearGradient xlink:href="#a" id="al" x1="868.76" x2="986.91" y1="1609.48" y2="1609.48" gradientTransform="rotate(-1.43 -3197.764 970.286)"/><linearGradient xlink:href="#a" id="am" x1="882.14" x2="1078.74" y1="1602.32" y2="1602.32" gradientTransform="rotate(-1.43 -3197.764 970.286)"/><linearGradient xlink:href="#a" id="an" x1="947.11" x2="1091.46" y1="1601.99" y2="1601.99" gradientTransform="rotate(-1.43 -3197.764 970.286)"/><linearGradient xlink:href="#b" id="ao" x1="1128.34" x2="1152.49" y1="1599.11" y2="1599.11" gradientTransform="rotate(-1.43 -3197.764 970.286)"/><linearGradient xlink:href="#b" id="ap" x1="1150.15" x2="1186.63" y1="1641.54" y2="1641.54" gradientTransform="rotate(-1.43 -3197.764 970.286)"/><linearGradient xlink:href="#b" id="aq" x1="1184.54" x2="1239.53" y1="1633.54" y2="1633.54" gradientTransform="rotate(-1.43 -3197.764 970.286)"/><linearGradient xlink:href="#b" id="ar" x1="1259.39" x2="1337.02" y1="1610.33" y2="1610.33" gradientTransform="rotate(-1.43 -3197.764 970.286)"/><linearGradient xlink:href="#b" id="as" x1="1209.82" x2="1383.81" y1="1587.98" y2="1587.98" gradientTransform="rotate(-1.43 -3197.764 970.286)"/><linearGradient xlink:href="#b" id="at" x1="1158.4" x2="1553.53" y1="1536.14" y2="1536.14" gradientTransform="rotate(-1.43 -3197.764 970.286)"/><linearGradient xlink:href="#b" id="au" x1="1242.72" x2="1532.41" y1="1535.85" y2="1535.85" gradientTransform="rotate(-1.43 -3197.764 970.286)"/><linearGradient xlink:href="#b" id="av" x1="1397.17" x2="1485.95" y1="1529.21" y2="1529.21" gradientTransform="rotate(-1.43 -3197.764 970.286)"/><linearGradient xlink:href="#b" id="aw" x1="1139.85" x2="1758.97" y1="1449.1" y2="1449.1" gradientTransform="rotate(-1.43 -3197.764 970.286)"/><linearGradient xlink:href="#b" id="ax" x1="1350.71" x2="1665.3" y1="1436.74" y2="1436.74" gradientTransform="rotate(-1.43 -3197.764 970.286)"/><linearGradient xlink:href="#b" id="ay" x1="1225.79" x2="1792.24" y1="1378.86" y2="1378.86" gradientTransform="rotate(-1.43 -3197.764 970.286)"/><linearGradient xlink:href="#b" id="az" x1="1435.48" x2="1696.82" y1="1331.73" y2="1331.73" gradientTransform="rotate(-1.43 -3197.764 970.286)"/><linearGradient xlink:href="#b" id="aA" x1="1340.19" x2="1777.57" y1="1296.01" y2="1296.01" gradientTransform="rotate(-1.43 -3197.764 970.286)"/><linearGradient xlink:href="#b" id="aB" x1="1362.6" x2="1782.26" y1="1240.07" y2="1240.07" gradientTransform="rotate(-1.43 -3197.764 970.286)"/><linearGradient xlink:href="#b" id="aC" x1="1429.13" x2="1744.52" y1="1197.36" y2="1197.36" gradientTransform="rotate(-1.43 -3197.764 970.286)"/><linearGradient xlink:href="#a" id="aD" x1="684.98" x2="1057.77" y1="750.96" y2="750.96" gradientTransform="rotate(-1.43 -3197.764 970.286)"/><linearGradient xlink:href="#a" id="aE" x1="709.17" x2="896.46" y1="745.09" y2="745.09" gradientTransform="rotate(-1.43 -3197.764 970.286)"/><linearGradient xlink:href="#a" id="aF" x1="682.3" x2="895.92" y1="766.93" y2="766.93" gradientTransform="rotate(-1.43 -3197.764 970.286)"/><linearGradient xlink:href="#a" id="aG" x1="495.96" x2="1041.03" y1="816.26" y2="816.26" gradientTransform="rotate(-1.43 -3197.764 970.286)"/><linearGradient xlink:href="#a" id="aH" x1="434.8" x2="1063.55" y1="850.06" y2="850.06" gradientTransform="rotate(-1.43 -3197.764 970.286)"/><linearGradient xlink:href="#a" id="aI" x1="363.75" x2="841.52" y1="852.93" y2="852.93" gradientTransform="rotate(-1.43 -3197.764 970.286)"/><linearGradient xlink:href="#a" id="aJ" x1="563.95" x2="720.62" y1="931.42" y2="931.42" gradientTransform="rotate(-1.43 -3197.764 970.286)"/><linearGradient xlink:href="#a" id="aK" x1="524.82" x2="757.3" y1="958.9" y2="958.9" gradientTransform="rotate(-1.43 -3197.764 970.286)"/><linearGradient xlink:href="#a" id="aL" x1="514.38" x2="737.91" y1="1000.69" y2="1000.69" gradientTransform="rotate(-1.43 -3197.764 970.286)"/><linearGradient xlink:href="#a" id="aM" x1="510.02" x2="697.05" y1="1087.07" y2="1087.07" gradientTransform="rotate(-1.43 -3197.764 970.286)"/><linearGradient xlink:href="#a" id="aN" x1="415.39" x2="831.57" y1="1096.75" y2="1096.75" gradientTransform="rotate(-1.43 -3197.764 970.286)"/><linearGradient xlink:href="#a" id="aO" x1="283.9" x2="994.3" y1="1174.74" y2="1174.74" gradientTransform="rotate(-1.43 -3197.764 970.286)"/><linearGradient xlink:href="#a" id="aP" x1="384.85" x2="861.86" y1="1202.1" y2="1202.1" gradientTransform="rotate(-1.43 -3197.764 970.286)"/><linearGradient xlink:href="#a" id="aQ" x1="539.59" x2="663.83" y1="1252" y2="1252" gradientTransform="rotate(-1.43 -3197.764 970.286)"/><linearGradient xlink:href="#a" id="aR" x1="283.65" x2="1051.55" y1="1299.29" y2="1299.29" gradientTransform="rotate(-1.43 -3197.764 970.286)"/><linearGradient xlink:href="#a" id="aS" x1="475.78" x2="821.6" y1="1355.81" y2="1355.81" gradientTransform="rotate(-1.43 -3197.764 970.286)"/><linearGradient xlink:href="#a" id="aT" x1="420.33" x2="976.61" y1="1385.77" y2="1385.77" gradientTransform="rotate(-1.43 -3197.764 970.286)"/><linearGradient xlink:href="#a" id="aU" x1="602.68" x2="818.67" y1="1458.54" y2="1458.54" gradientTransform="rotate(-1.43 -3197.764 970.286)"/><linearGradient xlink:href="#a" id="aV" x1="576.65" x2="913.86" y1="1470.29" y2="1470.29" gradientTransform="rotate(-1.43 -3197.764 970.286)"/><linearGradient xlink:href="#a" id="aW" x1="648.25" x2="925.8" y1="1509.99" y2="1509.99" gradientTransform="rotate(-1.43 -3197.764 970.286)"/><linearGradient xlink:href="#a" id="aX" x1="725.47" x2="908.09" y1="1543.73" y2="1543.73" gradientTransform="rotate(-1.43 -3197.764 970.286)"/><linearGradient xlink:href="#b" id="aY" x1="1187.15" x2="1933.72" y1="1147.68" y2="1147.68" gradientTransform="rotate(-1.43 -3197.764 970.286)"/><linearGradient xlink:href="#b" id="aZ" x1="1441.6" x2="1758.57" y1="1090.61" y2="1090.61" gradientTransform="rotate(-1.43 -3197.764 970.286)"/><linearGradient xlink:href="#b" id="ba" x1="1419.54" x2="1756.59" y1="1067.8" y2="1067.8" gradientTransform="rotate(-1.43 -3197.764 970.286)"/><linearGradient xlink:href="#b" id="bb" x1="1181.79" x2="1928.99" y1="1024.96" y2="1024.96" gradientTransform="rotate(-1.43 -3197.764 970.286)"/><linearGradient xlink:href="#b" id="bc" x1="1146.31" x2="1925.56" y1="991.27" y2="991.27" gradientTransform="rotate(-1.43 -3197.764 970.286)"/><linearGradient xlink:href="#b" id="bd" x1="1466.35" x2="1786.33" y1="875.45" y2="875.45" gradientTransform="rotate(-1.43 -3197.764 970.286)"/><linearGradient xlink:href="#b" id="be" x1="1445.68" x2="1592.51" y1="858.66" y2="858.66" gradientTransform="rotate(-1.43 -3197.764 970.286)"/><linearGradient xlink:href="#b" id="bf" x1="1394.18" x2="1597.56" y1="843.83" y2="843.83" gradientTransform="rotate(-1.43 -3197.764 970.286)"/><linearGradient xlink:href="#b" id="bg" x1="1378.98" x2="1555.16" y1="810.04" y2="810.04" gradientTransform="rotate(-1.43 -3197.764 970.286)"/><linearGradient xlink:href="#b" id="bh" x1="1344.88" x2="1462.6" y1="747.02" y2="747.02" gradientTransform="rotate(-1.43 -3197.764 970.286)"/><linearGradient xlink:href="#b" id="bi" x1="1259.54" x2="1510.92" y1="759.39" y2="759.39" gradientTransform="rotate(-1.43 -3197.764 970.286)"/><linearGradient xlink:href="#b" id="bj" x1="1148.1" x2="1473.93" y1="734.21" y2="734.21" gradientTransform="rotate(-1.43 -3197.764 970.286)"/><linearGradient xlink:href="#b" id="bk" x1="1196.44" x2="1393.13" y1="706.86" y2="706.86" gradientTransform="rotate(-1.43 -3197.764 970.286)"/><linearGradient xlink:href="#b" id="bl" x1="1205.25" x2="1283.58" y1="720.64" y2="720.64" gradientTransform="rotate(-1.43 -3197.764 970.286)"/><linearGradient xlink:href="#b" id="bm" x1="1110.92" x2="1267.43" y1="697.03" y2="697.03" gradientTransform="rotate(-1.43 -3197.764 970.286)"/><linearGradient xlink:href="#b" id="bn" x1="1129.46" x2="1168.09" y1="652.13" y2="652.13" gradientTransform="rotate(-1.43 -3197.764 970.286)"/><linearGradient xlink:href="#a" id="bo" x1="1008.89" x2="1047.73" y1="654.23" y2="654.23" gradientTransform="rotate(-1.43 -3197.764 970.286)"/><linearGradient xlink:href="#a" id="bp" x1="953.78" x2="1047.71" y1="678.5" y2="678.5" gradientTransform="rotate(-1.43 -3197.764 970.286)"/><linearGradient xlink:href="#a" id="bq" x1="877.13" x2="1013.99" y1="694.67" y2="694.67" gradientTransform="rotate(-1.43 -3197.764 970.286)"/><linearGradient xlink:href="#a" id="br" x1="837.66" x2="965.51" y1="703.53" y2="703.53" gradientTransform="rotate(-1.43 -3197.764 970.286)"/><linearGradient xlink:href="#a" id="bs" x1="-5627.49" x2="-5180.73" y1="-2333.21" y2="-2333.21" gradientTransform="rotate(117.67 -3177.825 991.206)"/><linearGradient xlink:href="#a" id="bt" x1="-5478.45" x2="-5307.22" y1="-2198.73" y2="-2198.73" gradientTransform="rotate(117.67 -3177.825 991.206)"/><linearGradient xlink:href="#a" id="bu" x1="-5439.28" x2="-5276.81" y1="-2197.46" y2="-2197.46" gradientTransform="rotate(117.67 -3177.825 991.206)"/><linearGradient xlink:href="#a" id="bv" x1="-5391.01" x2="-5152.7" y1="-2264.51" y2="-2264.51" gradientTransform="rotate(117.67 -3177.825 991.206)"/><linearGradient xlink:href="#a" id="bw" x1="-5312.19" x2="-5135.52" y1="-2267.24" y2="-2267.24" gradientTransform="rotate(117.67 -3177.825 991.206)"/><linearGradient xlink:href="#b" id="bx" x1="-5076.26" x2="-5055.83" y1="-2137.03" y2="-2137.03" gradientTransform="rotate(117.67 -3177.825 991.206)"/><linearGradient xlink:href="#b" id="by" x1="-5056.19" x2="-5009.69" y1="-2154.15" y2="-2154.15" gradientTransform="rotate(117.67 -3177.825 991.206)"/><linearGradient xlink:href="#b" id="bz" x1="-5009.73" x2="-4938.2" y1="-2164.96" y2="-2164.96" gradientTransform="rotate(117.67 -3177.825 991.206)"/><linearGradient xlink:href="#b" id="bA" x1="-4908.57" x2="-4806.45" y1="-2196.34" y2="-2196.34" gradientTransform="rotate(117.67 -3177.825 991.206)"/><linearGradient xlink:href="#b" id="bB" x1="-4975.56" x2="-4743.21" y1="-2226.54" y2="-2226.54" gradientTransform="rotate(117.67 -3177.825 991.206)"/><linearGradient xlink:href="#b" id="bC" x1="-5045.07" x2="-4513.85" y1="-2296.6" y2="-2296.6" gradientTransform="rotate(117.67 -3177.825 991.206)"/><linearGradient xlink:href="#b" id="bD" x1="-4931.09" x2="-4542.4" y1="-2296.99" y2="-2296.99" gradientTransform="rotate(117.67 -3177.825 991.206)"/><linearGradient xlink:href="#b" id="bE" x1="-4722.36" x2="-4605.18" y1="-2305.96" y2="-2305.96" gradientTransform="rotate(117.67 -3177.825 991.206)"/><linearGradient xlink:href="#b" id="bF" x1="-5070.13" x2="-4236.21" y1="-2414.24" y2="-2414.24" gradientTransform="rotate(117.67 -3177.825 991.206)"/><linearGradient xlink:href="#b" id="bG" x1="-4785.15" x2="-4362.8" y1="-2430.93" y2="-2430.93" gradientTransform="rotate(117.67 -3177.825 991.206)"/><linearGradient xlink:href="#b" id="bH" x1="-4953.99" x2="-4191.26" y1="-2509.15" y2="-2509.15" gradientTransform="rotate(117.67 -3177.825 991.206)"/><linearGradient xlink:href="#b" id="bI" x1="-4670.6" x2="-4320.22" y1="-2572.86" y2="-2572.86" gradientTransform="rotate(117.67 -3177.825 991.206)"/><linearGradient xlink:href="#b" id="bJ" x1="-4799.38" x2="-4211.08" y1="-2621.13" y2="-2621.13" gradientTransform="rotate(117.67 -3177.825 991.206)"/><linearGradient xlink:href="#b" id="bK" x1="-4769.1" x2="-4204.75" y1="-2696.73" y2="-2696.73" gradientTransform="rotate(117.67 -3177.825 991.206)"/><linearGradient xlink:href="#b" id="bL" x1="-4679.18" x2="-4255.77" y1="-2754.45" y2="-2754.45" gradientTransform="rotate(117.67 -3177.825 991.206)"/><linearGradient xlink:href="#a" id="bM" x1="-5687.7" x2="-5181.06" y1="-3357.7" y2="-3357.7" gradientTransform="rotate(117.67 -3177.825 991.206)"/><linearGradient xlink:href="#a" id="bN" x1="-5655" x2="-5399.06" y1="-3365.63" y2="-3365.63" gradientTransform="rotate(117.67 -3177.825 991.206)"/><linearGradient xlink:href="#a" id="bO" x1="-5691.31" x2="-5399.81" y1="-3336.12" y2="-3336.12" gradientTransform="rotate(117.67 -3177.825 991.206)"/><linearGradient xlink:href="#a" id="bP" x1="-5943.15" x2="-5203.68" y1="-3269.45" y2="-3269.45" gradientTransform="rotate(117.67 -3177.825 991.206)"/><linearGradient xlink:href="#a" id="bQ" x1="-5953.18" x2="-5098.75" y1="-3155.45" y2="-3155.45" gradientTransform="rotate(116.25 -3158.378 1053.81)"/><linearGradient xlink:href="#a" id="bR" x1="-5934.27" x2="-5473.31" y1="-3164.22" y2="-3164.22" gradientTransform="rotate(117.67 -3177.825 991.206)"/><linearGradient xlink:href="#a" id="bS" x1="-5851.25" x2="-5636.7" y1="-3113.81" y2="-3113.81" gradientTransform="rotate(117.67 -3177.825 991.206)"/><linearGradient xlink:href="#a" id="bT" x1="-5904.13" x2="-5587.12" y1="-3076.68" y2="-3076.68" gradientTransform="rotate(117.67 -3177.825 991.206)"/><linearGradient xlink:href="#a" id="bU" x1="-5918.24" x2="-5613.33" y1="-3020.2" y2="-3020.2" gradientTransform="rotate(117.67 -3177.825 991.206)"/><linearGradient xlink:href="#a" id="bV" x1="-5924.12" x2="-5522.55" y1="-2896.52" y2="-2896.52" gradientTransform="rotate(117.67 -3177.825 991.206)"/><linearGradient xlink:href="#a" id="bW" x1="-6052.01" x2="-5486.75" y1="-2890.37" y2="-2890.37" gradientTransform="rotate(117.67 -3177.825 991.206)"/><linearGradient xlink:href="#a" id="bX" x1="-6133.95" x2="-5266.83" y1="-2788" y2="-2788" gradientTransform="rotate(117.67 -3177.825 991.206)"/><linearGradient xlink:href="#a" id="bY" x1="-6093.27" x2="-5445.81" y1="-2748" y2="-2748" gradientTransform="rotate(117.67 -3177.825 991.206)"/><linearGradient xlink:href="#a" id="bZ" x1="-5884.15" x2="-5555.45" y1="-2698.89" y2="-2698.89" gradientTransform="rotate(117.67 -3177.825 991.206)"/><linearGradient xlink:href="#a" id="ca" x1="-6117.07" x2="-5189.45" y1="-2636.55" y2="-2636.55" gradientTransform="rotate(117.67 -3177.825 991.206)"/><linearGradient xlink:href="#a" id="cb" x1="-5970.38" x2="-5399.19" y1="-2565.24" y2="-2565.24" gradientTransform="rotate(117.67 -3177.825 991.206)"/><linearGradient xlink:href="#a" id="cc" x1="-5951.27" x2="-5290.75" y1="-2527.81" y2="-2527.81" gradientTransform="rotate(117.67 -3177.825 991.206)"/><linearGradient xlink:href="#a" id="cd" x1="-5798.88" x2="-5402.08" y1="-2443.75" y2="-2443.75" gradientTransform="rotate(117.67 -3177.825 991.206)"/><linearGradient xlink:href="#a" id="ce" x1="-5834.05" x2="-5375.54" y1="-2385.56" y2="-2385.56" gradientTransform="rotate(117.67 -3177.825 991.206)"/><linearGradient xlink:href="#a" id="cf" x1="-5737.29" x2="-5359.41" y1="-2331.92" y2="-2331.92" gradientTransform="rotate(117.67 -3177.825 991.206)"/><linearGradient xlink:href="#a" id="cg" x1="-5632.93" x2="-5313.53" y1="-2336.64" y2="-2336.64" gradientTransform="rotate(117.67 -3177.825 991.206)"/><linearGradient xlink:href="#b" id="ch" x1="-5006.2" x2="-4136.43" y1="-2823.04" y2="-2823.04" gradientTransform="rotate(117.67 -3177.825 991.206)"/><linearGradient xlink:href="#b" id="ci" x1="-4785.12" x2="-4236.79" y1="-2893.59" y2="-2893.59" gradientTransform="rotate(117.67 -3177.825 991.206)"/><linearGradient xlink:href="#b" id="cj" x1="-4806.99" x2="-4239.45" y1="-2922.01" y2="-2922.01" gradientTransform="rotate(117.67 -3177.825 991.206)"/><linearGradient xlink:href="#b" id="ck" x1="-5013.45" x2="-4142.04" y1="-2969.45" y2="-2969.45" gradientTransform="rotate(117.67 -3177.825 991.206)"/><linearGradient xlink:href="#b" id="cl" x1="-5061.4" x2="-4146.11" y1="-3008.94" y2="-3008.94" gradientTransform="rotate(117.67 -3177.825 991.206)"/><linearGradient xlink:href="#b" id="cm" x1="-4863.28" x2="-4301.93" y1="-3127.78" y2="-3127.78" gradientTransform="rotate(117.67 -3177.825 991.206)"/><linearGradient xlink:href="#b" id="cn" x1="-4781.1" x2="-4461.22" y1="-3171.01" y2="-3171.01" gradientTransform="rotate(117.67 -3177.825 991.206)"/><linearGradient xlink:href="#b" id="co" x1="-4832.09" x2="-4454.39" y1="-3193.33" y2="-3193.33" gradientTransform="rotate(117.67 -3177.825 991.206)"/><linearGradient xlink:href="#b" id="cp" x1="-4847.15" x2="-4511.7" y1="-3233.37" y2="-3233.37" gradientTransform="rotate(117.67 -3177.825 991.206)"/><linearGradient xlink:href="#b" id="cq" x1="-4880.93" x2="-4636.79" y1="-3306.39" y2="-3306.39" gradientTransform="rotate(117.67 -3177.825 991.206)"/><linearGradient xlink:href="#b" id="cr" x1="-4908.39" x2="-4571.48" y1="-3346.33" y2="-3346.33" gradientTransform="rotate(117.67 -3177.825 991.206)"/><linearGradient xlink:href="#b" id="cs" x1="-5058.98" x2="-4665.05" y1="-3337.51" y2="-3337.51" gradientTransform="rotate(117.67 -3177.825 991.206)"/><linearGradient xlink:href="#b" id="ct" x1="-4993.67" x2="-4730.68" y1="-3417.32" y2="-3417.32" gradientTransform="rotate(117.67 -3177.825 991.206)"/><linearGradient xlink:href="#b" id="cu" x1="-4984.57" x2="-4878.72" y1="-3401.76" y2="-3401.76" gradientTransform="rotate(117.67 -3177.825 991.206)"/><linearGradient xlink:href="#b" id="cv" x1="-5109.23" x2="-4900.56" y1="-3430.6" y2="-3430.6" gradientTransform="rotate(117.67 -3177.825 991.206)"/><linearGradient xlink:href="#b" id="cw" x1="-5084.18" x2="-5034.8" y1="-3491.28" y2="-3491.28" gradientTransform="rotate(117.67 -3177.825 991.206)"/><linearGradient xlink:href="#a" id="cx" x1="-5249.95" x2="-5194.64" y1="-3488.43" y2="-3488.43" gradientTransform="rotate(117.67 -3177.825 991.206)"/><linearGradient xlink:href="#a" id="cy" x1="-5324.43" x2="-5194.66" y1="-3455.63" y2="-3455.63" gradientTransform="rotate(117.67 -3177.825 991.206)"/><linearGradient xlink:href="#a" id="cz" x1="-5428.02" x2="-5240.24" y1="-3433.78" y2="-3433.78" gradientTransform="rotate(117.67 -3177.825 991.206)"/><linearGradient xlink:href="#a" id="cA" x1="-5481.35" x2="-5305.75" y1="-3421.8" y2="-3421.8" gradientTransform="rotate(117.67 -3177.825 991.206)"/><g opacity=".36"><path fill="url(#a)" d="m1072.82 1100.9.19.12-320.43 517.53-1.84-1.15z"/><path fill="url(#c)" d="m989.29 1294.04.46.23-110.32 234.84-.89-.43z"/><path fill="url(#d)" d="m1008.01 1284.49.46.21-105.73 256.97-.95-.42z"/><path fill="url(#e)" d="m1089.57 1106.5.2.1-180.75 604.41-2.21-.68z"/><path fill="url(#f)" d="m1100.99 1079.26.13.03-139.8 660.67-2.43-.53z"/><path fill="url(#b)" d="m1126.31 1383.42.47-.01 7.37 144.64-.67.03z"/><path fill="url(#g)" d="m1139.89 1342.34.49-.04 20.92 207.52-.83.08z"/><path fill="url(#h)" d="m1167.88 1345.37.47-.09 36.65 190.93-.78.15z"/><path fill="url(#i)" d="m1228.85 1351.11.44-.18 56.76 146.56-.66.26z"/><path fill="url(#j)" d="m1192.02 1246.02.44-.18 129.43 319.95-1.13.46z"/><path fill="url(#k)" d="m1154.56 1115.42.23-.13 304.12 499.14-1.8 1.08z"/><path fill="url(#l)" d="m1220.42 1203.03.39-.24 223.84 325.81-1.16.77z"/><path fill="url(#m)" d="m1342.52 1321.13.35-.28 68.2 82.37-.45.36z"/><path fill="url(#n)" d="m1141 1069.45.11-.12 488.91 453.59-1.65 1.78z"/><path fill="url(#o)" d="m1309.03 1193.06.4-.49 330.12 236.84-.9 1.1z"/><path fill="url(#p)" d="m1210.11 1102.01.22-.33 549.09 326.25-1.18 1.85z"/><path fill="url(#q)" d="m1379.5 1158.91.37-.82 439.1 188.43-.65 1.46z"/><path fill="url(#r)" d="m1303.29 1111.33.25-.68 513.3 209.54-.66 1.96z"/><path fill="url(#s)" d="m1531.89 1138.42.09-.46 283.06 65.86-.27 1.21z"/><path fill="url(#t)" d="m1624.91 1090.5.04-.49 189.18 32.02-.11.95z"/><path fill="url(#u)" d="m1077.12 978.16-.2.1-286.95-534.18 1.92-1.03z"/><path fill="url(#v)" d="m951.18 809.5-.44.28-146.4-211.25.82-.55z"/><path fill="url(#w)" d="m949.99 830.56-.41.29L781.89 612.4l.83-.62z"/><path fill="url(#x)" d="m1063.01 990.46-.16.19-430.49-457.68 1.67-1.59z"/><path fill="url(#y)" d="m1080.58 1014.35-.11.09L581.31 563.5l1.68-1.83z"/><path fill="url(#z)" d="m902.83 908.15-.42.65-444.95-271.91.98-1.49z"/><path fill="url(#A)" d="m804.88 883.08-.37.8-296.08-157.66.54-1.13z"/><path fill="url(#B)" d="m833.73 915.68-.2.46-188.04-83.93.33-.76z"/><path fill="url(#C)" d="m817.08 938.34-.14.47-181.55-61.9.24-.76z"/><path fill="url(#D)" d="m674.51 943.98-.12.46-264.59-33.63.19-.67z"/><path fill="url(#E)" d="m891.16 1009.02-.09.47-339.62-46.12.2-1.21z"/><path fill="url(#F)" d="m1022.93 1042.82.04.28-582.13 13.95-.06-2.08z"/><path fill="url(#G)" d="m914.2 1055.93.06.46-391.95 31.33-.11-1.4z"/><path fill="url(#H)" d="m750.69 1102.22.09.44-103.22 18.98-.11-.57z"/><path fill="url(#I)" d="m1069.37 1053.2.04.13-634.93 198.34-.71-2.33z"/><path fill="url(#J)" d="m878.33 1136.76.2.47-287.58 122.06-.45-1.08z"/><path fill="url(#K)" d="m1006.49 1096.28.14.31-463.78 254.95-.88-1.65z"/><path fill="url(#L)" d="m873.1 1215.1.29.41-181.91 136.69-.53-.72z"/><path fill="url(#M)" d="m952.38 1172.99.29.38-284.35 242.12-.84-1.01z"/><path fill="url(#N)" d="m961.12 1200.05.35.33-235.98 255.24-.9-.84z"/><path fill="url(#O)" d="m944.73 1253.87.39.3-156.78 204.42-.75-.59z"/><path fill="url(#P)" d="m1180.63 1043.23-.03-.24 608.28 20.74-.04 2.15z"/><path fill="url(#Q)" d="m1389.49 1018.44-.05-.51 453.6-36.04.11 1.35z"/><path fill="url(#R)" d="m1371.89 1006.92-.08-.5 470.22-60.57.19 1.4z"/><path fill="url(#S)" d="m1181.83 1008.34-.08-.22 643.7-148.15.56 2.41z"/><path fill="url(#T)" d="M1147.72 1028.72v-.13l642.14-205.78.74 2.37z"/><path fill="url(#U)" d="m1328.51 928.04-.38-.71 486.25-246.78.9 1.64z"/><path fill="url(#V)" d="m1547.63 731.95-.19-.29 197.52-127.47.38.57z"/><path fill="url(#W)" d="m1356.37 864.35-.3-.39 168.76-119.77.49.67z"/><path fill="url(#X)" d="m1239.13 908.98-.34-.36 284.7-246.09.72.81z"/><path fill="url(#Y)" d="m1319 782.56-.37-.31 98.71-119.59.54.44z"/><path fill="url(#Z)" d="m1246.32 866.84-.39-.29 212.75-269.04.96.74z"/><path fill="url(#aa)" d="m1151.67 964.4-.23-.13 281.13-509.71 1.83 1.01z"/><path fill="url(#ab)" d="m1194.87 863.72-.41-.22 170.72-353.81 1.26.62z"/><path fill="url(#ac)" d="m1236.46 699.06-.43-.16 37.14-97.57.54.2z"/><path fill="url(#ad)" d="m1119.95 999.54-.14-.01 147.04-647.8 2.39.53z"/><path fill="url(#ae)" d="m1142.74 792.23-.52-.05 40.08-308.69 1.15.14z"/><path fill="url(#af)" d="m1076.94 748.4-.5.04-24.52-224.49.89-.09z"/><path fill="url(#ag)" d="m1073.79 838.2-.45.1-64.66-365.99 1.3-.24z"/><path fill="url(#ah)" d="m1046.44 832.08-.45.14-100.98-330.47 1.18-.36z"/><path fill="url(#ai)" d="m1008.26 790.93-.45.19-96.92-236.32.89-.37z"/><path fill="url(#aj)" d="m1062.8 1116.2.24.13-352.2 655.92-2.34-1.27z"/><path fill="url(#ak)" d="m974.9 1358.35.58.25-116.19 295.04-1.12-.46z"/><path fill="url(#al)" d="m997.08 1345.31.58.22-108.97 321.75-1.19-.44z"/><path fill="url(#am)" d="m1083.69 1121.81.24.1-175.13 751.87-2.76-.69z"/><path fill="url(#an)" d="m1095.64 1087.69.15.02-120.95 817.6-3.01-.47z"/><path fill="url(#ao)" d="m1139.19 1347.56.42-.04 30.89 286.15-.83.07z"/><path fill="url(#ap)" d="m1162.47 1406.33.61-.08 42.19 252.03-1.01.15z"/><path fill="url(#aq)" d="m1196.91 1407.98.57-.14 60.2 230.6-.94.23z"/><path fill="url(#ar)" d="m1271.85 1410.52.52-.25 81.51 174.89-.77.36z"/><path fill="url(#as)" d="m1219.12 1284.8.53-.26L1402.7 1666l-1.35.64z"/><path fill="url(#at)" d="m1163.76 1127.94.27-.17 409.68 587.62-2.12 1.44z"/><path fill="url(#au)" d="m1250.66 1230.18.47-.33 298.85 381.7-1.36 1.03z"/><path fill="url(#av)" d="m1408.55 1365.54.41-.37 90.78 95.61-.52.48z"/><path fill="url(#aw)" d="m1143.82 1072.75.12-.14L1776.1 1591l-1.88 2.29z"/><path fill="url(#ax)" d="m1358.22 1211.39.36-.53 319.71 215.34-.8 1.17z"/><path fill="url(#ay)" d="m1230.66 1107.42.2-.36 574.08 306.33-1.08 2.02z"/><path fill="url(#az)" d="m1441.84 1164.14.2-.58 263.64 97.21-.38 1.02z"/><path fill="url(#aA)" d="m1345.2 1111.72.19-.54 440.58 130.4-.47 1.55z"/><path fill="url(#aB)" d="m1366.96 1085.1.06-.58 421.5 71.24-.24 1.49z"/><path fill="url(#aC)" d="m1433.02 1065.6.02-.61 316.07 24.51-.07 1.17z"/><path fill="url(#aD)" d="m1059.04 965.88-.23.14-388.47-631.79 2.27-1.39z"/><path fill="url(#aE)" d="m892.76 769.01-.51.38-193.02-247.46.96-.73z"/><path fill="url(#aF)" d="m892.86 794.83-.48.39-219.57-254.7.97-.81z"/><path fill="url(#aG)" d="m1042.7 981.96-.17.24-558.27-527.77 1.91-2.07z"/><path fill="url(#aH)" d="m1065.92 1009.85-.12.12-641.69-514.49 1.91-2.35z"/><path fill="url(#aI)" d="m840.91 893.19-.39.74L356.25 624l.94-1.72z"/><path fill="url(#aJ)" d="m719.39 870.13-.22.54-158.22-69.42.32-.76z"/><path fill="url(#aK)" d="m757.02 907.4-.2.56-234.57-88.8.35-.96z"/><path fill="url(#aL)" d="m738.34 936.31-.14.58-225.01-62.36.25-.95z"/><path fill="url(#aM)" d="m699.07 1000.14-.06.58-187.43-16.28.09-.84z"/><path fill="url(#aN)" d="m834.06 1017.24-.08.59-417.01-31.49.14-1.49z"/><path fill="url(#aO)" d="m997.57 1048.88.07.34-708.98 59.72-.23-2.54z"/><path fill="url(#aP)" d="m865.66 1072.88.1.56-475.29 67-.24-1.69z"/><path fill="url(#aQ)" d="m669.23 1141.45.15.53-123.35 30.73-.17-.69z"/><path fill="url(#aR)" d="m1055.1 1058.16.04.15-759.97 288.94-1.03-2.8z"/><path fill="url(#aS)" d="m827.76 1174.29.27.56-341.09 170.22-.62-1.27z"/><path fill="url(#aT)" d="m981.4 1115.42.2.36-546.67 345.57-1.2-1.96z"/><path fill="url(#aU)" d="m827.11 1270.41.39.48-210.88 180.35-.7-.83z"/><path fill="url(#aV)" d="m920.9 1213.13.38.44-328.32 316.73-1.1-1.19z"/><path fill="url(#aW)" d="m933.57 1245.56.46.38-268.26 329.2-1.16-.97z"/><path fill="url(#aX)" d="m917.49 1312.54.5.33-175.19 261.28-.97-.66z"/><path fill="url(#aY)" d="m1190.32 1037.81-.07-.3 746.29-19.34.11 2.64z"/><path fill="url(#aZ)" d="m1443.75 992.19-.11-.63 315.87-42.18.18 1.21z"/><path fill="url(#ba)" d="m1421.38 979.39-.13-.6 335.41-61.62.25 1.24z"/><path fill="url(#bb)" d="m1184.46 1015.78-.11-.24 741.22-218.77.82 2.72z"/><path fill="url(#bc)" d="m1149.04 1022.49-.01-.16 771.02-298.64 1.09 2.85z"/><path fill="url(#bd)" d="m1465.22 851.91-.33-.54 314.52-193.21.77 1.25z"/><path fill="url(#be)" d="m1443.08 792.37-.35-.47 143.84-102.42.49.66z"/><path fill="url(#bf)" d="m1391.96 806.32-.4-.47 198.84-158.79.65.79z"/><path fill="url(#bg)" d="m1376.02 775.53-.43-.42 171.48-163.39.68.69z"/><path fill="url(#bh)" d="m1340.28 709.09-.46-.35 113.24-153.43.69.51z"/><path fill="url(#bi)" d="m1257.65 817.43-.49-.33 241.64-344.44 1.23.84z"/><path fill="url(#bj)" d="m1149.13 943.6-.29-.15 307.57-643.57 2.3 1.11z"/><path fill="url(#bk)" d="m1194.55 817.38-.51-.23 184.06-444.94 1.58.66z"/><path fill="url(#bl)" d="m1201.03 728.7-.39-.11 71.74-237.65.68.21z"/><path fill="url(#bm)" d="M1112.97 988.87h-.18l133.56-802.49 2.94.47z"/><path fill="url(#bn)" d="m1125.59 733.85-.64-.03 27.72-380.21 1.43.08z"/><path fill="url(#bo)" d="m1041.98 685.12-.62.08-45.04-272.58 1.08-.17z"/><path fill="url(#bp)" d="m1044.71 795.09-.55.16-104.47-442.56 1.57-.4z"/><path fill="url(#bq)" d="m1010.84 789.62-.54.19-146.27-396.48 1.42-.52z"/><path fill="url(#br)" d="m961.16 742.13-.53.27-134.4-281.73 1.07-.52z"/><path fill="url(#bs)" d="m1036.88 939.49-.31.2L562.5 189.82l2.73-1.73z"/><path fill="url(#bt)" d="m808.74 676.54-.67.52L542.8 346.31l1.29-1.02z"/><path fill="url(#bu)" d="m809.56 711.3-.64.53-301.55-339.77 1.3-1.12z"/><path fill="url(#bv)" d="m1016.53 960.47-.27.22-678.17-620.95 2.35-2.52z"/><path fill="url(#bw)" d="m1048.97 997.02-.14.16L265.7 391.13l2.27-2.91z"/><path fill="url(#bx)" d="m577.26 816.81-.32.71-215.1-90.62.45-1.02z"/><path fill="url(#by)" d="m628.79 866.49-.29.77-318.57-115.47.47-1.3z"/><path fill="url(#bz)" d="m604.22 906.06-.21.78-305.11-80.12.33-1.27z"/><path fill="url(#bA)" d="m551.97 992.88-.04.79-253.35-18.35.08-1.15z"/><path fill="url(#bB)" d="m735.06 1013.25-.04.8-563.98-34.22.13-2.02z"/><path fill="url(#bC)" d="m956.67 1050.98.02.45L.31 1149.29l-.31-3.44z"/><path fill="url(#bD)" d="m778.82 1086.41.09.76-640.37 102.37-.33-2.29z"/><path fill="url(#bE)" d="m515.22 1183.87.16.72-165.82 44.72-.22-.93z"/><path fill="url(#bF)" d="m1034.94 1063.72.09.24L14.16 1470.04l-1.47-3.74z"/><path fill="url(#bG)" d="m730.31 1225.76.39.76-457.65 236.34-.87-1.71z"/><path fill="url(#bH)" d="m936.92 1143.47.29.48-732.29 476.88-1.68-2.62z"/><path fill="url(#bI)" d="m731.15 1355.55.54.62-281.3 247.77-.97-1.12z"/><path fill="url(#bJ)" d="m856.56 1275.9.52.57-436.83 434.89-1.51-1.57z"/><path fill="url(#bK)" d="m873.69 1319.07.63.47-354.4 451.24-1.61-1.26z"/><path fill="url(#bL)" d="m853.29 1409.9.71.42-229.94 357.47-1.33-.85z"/><path fill="url(#bM)" d="M1216.85 1033.87v-.38l1008.08-43.06.15 3.59z"/><path fill="url(#bN)" d="m1558.61 966.92-.11-.85 425.81-64.9.24 1.62z"/><path fill="url(#bO)" d="m1528.06 950.07-.16-.82 451.82-91.48.32 1.67z"/><path fill="url(#bP)" d="m1208.61 1004-.17-.36 996.87-311.94 1.18 3.62z"/><path fill="url(#bQ)" d="m1148.28 1014.18-.07-.23 1028.32-445.38 1.6 3.77z"/><path fill="url(#bR)" d="m1445.84 823.96-.47-.72 458.69-279.47 1.07 1.67z"/><path fill="url(#bS)" d="m1553.15 695.74-.48-.62 192.72-140.82.68.88z"/><path fill="url(#bT)" d="m1484.42 715.69-.54-.62 265.8-218.23.9 1.05z"/><path fill="url(#bU)" d="m1462.56 674.62-.59-.55 228.29-224.33.95.91z"/><path fill="url(#bV)" d="m1332.74 709.05-.47-.32 229.25-333.14.95.66z"/><path fill="url(#bW)" d="m1304.08 734.45-.64-.48 318.04-471.34 1.67 1.15z"/><path fill="url(#bX)" d="m1159.25 906.73-.45-.15 363.14-788.43 2.87 1.27z"/><path fill="url(#bY)" d="m1217.62 735.2-.73-.25 240.04-604.89 2.16.82z"/><path fill="url(#bZ)" d="m1224.83 615.16-.53-.12 92.28-322.52.93.25z"/><path fill="url(#ca)" d="m1110.49 968.55-.23-.05L1258.22 0l3.58.56z"/><path fill="url(#cb)" d="m1120.06 736.53-.62-.04 32.45-627.03 1.93.11z"/><path fill="url(#cc)" d="M1091.32 843.89h-.56l-35.94-763.08 2.79-.11z"/><path fill="url(#cd)" d="m1037.18 689.66-.6.11L941.3 192.8l1.44-.28z"/><path fill="url(#ce)" d="m1015.7 708.24-.77.15L863.51 112.9l2.12-.52z"/><path fill="url(#cf)" d="m969.08 701.87-.74.3L762.7 169.4l1.9-.74z"/><path fill="url(#cg)" d="m957.2 747.59-.54.26-243.42-486.84 1.41-.71z"/><path fill="url(#ch)" d="m1045.63 1141.59.4.13-397.04 773.82-2.8-1.41z"/><path fill="url(#ci)" d="m980.9 1357.29.6.22-198.83 514.65-1.53-.58z"/><path fill="url(#cj)" d="m1002.75 1344.1.59.18-180.76 545.7-1.63-.52z"/><path fill="url(#ck)" d="m1075.49 1149.15.36.03-191.06 882.72-3.29-.71z"/><path fill="url(#cl)" d="m1090.86 1102.92.19.09-127.33 965.35-3.58-.53z"/><path fill="url(#cm)" d="m1111.82 1337.97.63-.03 20.9 643.67-1.99.07z"/><path fill="url(#cn)" d="m1154.14 1452.97.58-.08 48.52 385.91-1.11.14z"/><path fill="url(#co)" d="m1166.7 1402.01.59-.11 83.51 469.31-1.36.25z"/><path fill="url(#cp)" d="m1201.02 1403.06.57-.18 119.43 440.38-1.27.36z"/><path fill="url(#cq)" d="m1275.73 1404.13.53-.23 173.15 365.44-1.05.48z"/><path fill="url(#cr)" d="m1261.6 1365.95.71-.37 254.63 512.1-1.8.9z"/><path fill="url(#cs)" d="m1183.94 1154.89.37-.25 508.73 708.39-2.58 1.83z"/><path fill="url(#ct)" d="m1303.13 1291.47.61-.46 411.15 510.17-1.82 1.44z"/><path fill="url(#cu)" d="m1410.33 1357.78.4-.39 233.45 240.91-.7.67z"/><path fill="url(#cv)" d="m1154.27 1082.42.11-.2 866.53 685.53-2.49 3.17z"/><path fill="url(#cw)" d="m1447.1 1264.95.44-.73 437.48 283.01-1.03 1.62z"/><path fill="url(#cx)" d="m1559.59 1198.25.3-.78 358.22 126.34-.51 1.39z"/><path fill="url(#cy)" d="m1427.94 1129.2.17-.75 597.99 167.89-.56 2.12z"/><path fill="url(#cz)" d="m1456.66 1092.8.13-.76 571.05 88.26-.32 2.02z"/><path fill="url(#cA)" d="m1545.38 1065.35.05-.8 427.74 26.85-.09 1.59z"/></g></svg>