<svg width="813" height="57" viewBox="0 0 813 57" fill="none" xmlns="http://www.w3.org/2000/svg">
<g opacity="0.05">
<path d="M0.10789 10.6379L26.5 1L52.8919 10.6378L26.4999 20.6769L0.10789 10.6379Z" fill="#616572"/>
<path d="M0 10.6379L26.4999 20.6769L26.5 56L0.18662 43.7403L0 10.6379Z" fill="#20222A"/>
<path d="M53 10.6379L26.5 20.7122V56L52.8134 43.7403L53 10.6379Z" fill="#393B47"/>
</g>
<g opacity="0.25">
<path d="M76.1079 10.6379L102.5 1L128.892 10.6378L102.5 20.6769L76.1079 10.6379Z" fill="#616572"/>
<path d="M76 10.6379L102.5 20.6769L102.5 56L76.1866 43.7403L76 10.6379Z" fill="#20222A"/>
<path d="M129 10.6379L102.5 20.7122V56L128.813 43.7403L129 10.6379Z" fill="#393B47"/>
</g>
<g opacity="0.5">
<path d="M152.108 10.6379L178.5 1L204.892 10.6378L178.5 20.6769L152.108 10.6379Z" fill="#616572"/>
<path d="M152 10.6379L178.5 20.6769L178.5 56L152.187 43.7403L152 10.6379Z" fill="#20222A"/>
<path d="M205 10.6379L178.5 20.7122V56L204.813 43.7403L205 10.6379Z" fill="#393B47"/>
</g>
<path d="M228.108 10.6379L254.5 1L280.892 10.6378L254.5 20.6769L228.108 10.6379Z" fill="#616572"/>
<path d="M228 10.6379L254.5 20.6769L254.5 56L228.187 43.7403L228 10.6379Z" fill="#20222A"/>
<path d="M281 10.6379L254.5 20.7122V56L280.813 43.7403L281 10.6379Z" fill="#393B47"/>
<path d="M304.108 10.6379L330.5 1L356.892 10.6378L330.5 20.6769L304.108 10.6379Z" fill="#616572"/>
<path d="M304 10.6379L330.5 20.6769L330.5 56L304.187 43.7403L304 10.6379Z" fill="#20222A"/>
<path d="M357 10.6379L330.5 20.7122V56L356.813 43.7403L357 10.6379Z" fill="#393B47"/>
<mask id="path-6-outside-1_803_1551" maskUnits="userSpaceOnUse" x="379" y="0" width="55" height="57" fill="black">
<rect fill="white" x="379" width="55" height="57"/>
<path d="M380.108 10.6379L406.5 1L432.892 10.6378L406.5 20.6769L380.108 10.6379Z"/>
<path d="M380 10.6379L406.5 20.6769L406.5 56L380.187 43.7403L380 10.6379Z"/>
<path d="M433 10.6379L406.5 20.7122V56L432.813 43.7403L433 10.6379Z"/>
</mask>
<path d="M380.108 10.6379L406.5 1L432.892 10.6378L406.5 20.6769L380.108 10.6379Z" fill="#616572"/>
<path d="M380 10.6379L406.5 20.6769L406.5 56L380.187 43.7403L380 10.6379Z" fill="#20222A"/>
<path d="M433 10.6379L406.5 20.7122V56L432.813 43.7403L433 10.6379Z" fill="#393B47"/>
<path d="M380.108 10.6379L379.765 9.69852C379.373 9.84176 379.111 10.2136 379.108 10.6312C379.105 11.0487 379.362 11.4241 379.752 11.5725L380.108 10.6379ZM406.5 1L406.843 0.0606737C406.621 -0.0202243 406.378 -0.0202246 406.157 0.0606729L406.5 1ZM432.892 10.6378L433.247 11.5725C433.638 11.424 433.895 11.0487 433.892 10.6312C433.889 10.2136 433.627 9.84175 433.235 9.69851L432.892 10.6378ZM380 10.6379L380.354 9.7028C380.046 9.58604 379.7 9.62864 379.429 9.81667C379.159 10.0047 378.998 10.314 379 10.6436L380 10.6379ZM406.5 56L406.078 56.9064C406.345 57.0312 406.655 57.0312 406.922 56.9064L406.5 56ZM380.187 43.7403L379.187 43.7459C379.189 44.1326 379.414 44.4834 379.764 44.6467L380.187 43.7403ZM433 10.6379L434 10.6436C434.002 10.3138 433.841 10.0043 433.57 9.81633C433.299 9.62835 432.953 9.58602 432.645 9.70321L433 10.6379ZM406.5 20.7122L406.145 19.7774C405.757 19.925 405.5 20.297 405.5 20.7122H406.5ZM432.813 43.7403L433.236 44.6467C433.586 44.4834 433.811 44.1326 433.813 43.7459L432.813 43.7403ZM380.451 11.5772L406.843 1.93933L406.157 0.0606729L379.765 9.69852L380.451 11.5772ZM406.157 1.93933L432.549 11.5772L433.235 9.69851L406.843 0.0606737L406.157 1.93933ZM432.536 9.70318L406.144 19.7423L406.855 21.6116L433.247 11.5725L432.536 9.70318ZM406.855 19.7423L380.463 9.70319L379.752 11.5725L406.144 21.6116L406.855 19.7423ZM379.646 11.5731L406.146 21.6121L406.854 19.7418L380.354 9.7028L379.646 11.5731ZM405.5 20.6769L405.5 56L407.5 56L407.5 20.6769L405.5 20.6769ZM406.922 55.0936L380.609 42.8338L379.764 44.6467L406.078 56.9064L406.922 55.0936ZM381.187 43.7347L381 10.6323L379 10.6436L379.187 43.7459L381.187 43.7347ZM432.645 9.70321L406.145 19.7774L406.855 21.6469L433.355 11.5727L432.645 9.70321ZM405.5 20.7122V56H407.5V20.7122H405.5ZM406.922 56.9064L433.236 44.6467L432.391 42.8338L406.078 55.0936L406.922 56.9064ZM433.813 43.7459L434 10.6436L432 10.6323L431.813 43.7347L433.813 43.7459Z" fill="#EDEFF3" mask="url(#path-6-outside-1_803_1551)"/>
<path d="M456.108 10.6379L482.5 1L508.892 10.6378L482.5 20.6769L456.108 10.6379Z" fill="#616572"/>
<path d="M456 10.6379L482.5 20.6769L482.5 56L456.187 43.7403L456 10.6379Z" fill="#20222A"/>
<path d="M509 10.6379L482.5 20.7122V56L508.813 43.7403L509 10.6379Z" fill="#393B47"/>
<path d="M532.108 10.6379L558.5 1L584.892 10.6378L558.5 20.6769L532.108 10.6379Z" fill="#616572"/>
<path d="M532 10.6379L558.5 20.6769L558.5 56L532.187 43.7403L532 10.6379Z" fill="#20222A"/>
<path d="M585 10.6379L558.5 20.7122V56L584.813 43.7403L585 10.6379Z" fill="#393B47"/>
<g opacity="0.5">
<path d="M608.108 10.6379L634.5 1L660.892 10.6378L634.5 20.6769L608.108 10.6379Z" fill="#616572"/>
<path d="M608 10.6379L634.5 20.6769L634.5 56L608.187 43.7403L608 10.6379Z" fill="#20222A"/>
<path d="M661 10.6379L634.5 20.7122V56L660.813 43.7403L661 10.6379Z" fill="#393B47"/>
</g>
<g opacity="0.25">
<path d="M684.108 10.6379L710.5 1L736.892 10.6378L710.5 20.6769L684.108 10.6379Z" fill="#616572"/>
<path d="M684 10.6379L710.5 20.6769L710.5 56L684.187 43.7403L684 10.6379Z" fill="#20222A"/>
<path d="M737 10.6379L710.5 20.7122V56L736.813 43.7403L737 10.6379Z" fill="#393B47"/>
</g>
<g opacity="0.05">
<path d="M760.108 10.6379L786.5 1L812.892 10.6378L786.5 20.6769L760.108 10.6379Z" fill="#616572"/>
<path d="M760 10.6379L786.5 20.6769L786.5 56L760.187 43.7403L760 10.6379Z" fill="#20222A"/>
<path d="M813 10.6379L786.5 20.7122V56L812.813 43.7403L813 10.6379Z" fill="#393B47"/>
</g>
</svg>
