<svg width="54" height="54" viewBox="0 0 54 54" fill="none" xmlns="http://www.w3.org/2000/svg">
<g clipPath="url(#clip0_2539_6161)">
<path d="M46.4062 8.4375C46.4062 8.90325 46.0283 9.28125 45.5625 9.28125C45.0984 9.28125 44.7188 8.90325 44.7188 8.4375C44.7188 7.97175 45.0984 7.59375 45.5625 7.59375C46.0283 7.59375 46.4062 7.97175 46.4062 8.4375ZM48.9375 4.21875C48.4734 4.21875 48.0938 4.59675 48.0938 5.0625C48.0938 5.52825 48.4734 5.90625 48.9375 5.90625C49.4033 5.90625 49.7812 5.52825 49.7812 5.0625C49.7812 4.59675 49.4033 4.21875 48.9375 4.21875ZM42.1875 10.9688C41.7234 10.9688 41.3438 11.3467 41.3438 11.8125C41.3438 12.2782 41.7234 12.6562 42.1875 12.6562C42.6533 12.6562 43.0312 12.2782 43.0312 11.8125C43.0312 11.3467 42.6533 10.9688 42.1875 10.9688ZM11.8125 41.3438C11.3484 41.3438 10.9688 41.7217 10.9688 42.1875C10.9688 42.6533 11.3484 43.0312 11.8125 43.0312C12.2782 43.0312 12.6562 42.6533 12.6562 42.1875C12.6562 41.7217 12.2782 41.3438 11.8125 41.3438ZM8.4375 44.7188C7.97344 44.7188 7.59375 45.0967 7.59375 45.5625C7.59375 46.0283 7.97344 46.4062 8.4375 46.4062C8.90325 46.4062 9.28125 46.0283 9.28125 45.5625C9.28125 45.0967 8.90325 44.7188 8.4375 44.7188ZM5.0625 48.0938C4.59844 48.0938 4.21875 48.4717 4.21875 48.9375C4.21875 49.4033 4.59844 49.7812 5.0625 49.7812C5.52825 49.7812 5.90625 49.4033 5.90625 48.9375C5.90625 48.4717 5.52825 48.0938 5.0625 48.0938ZM49.3678 48.5072L39.7828 38.9239C42.8186 35.6754 44.4825 31.4651 44.4825 27C44.4825 17.361 36.6407 9.5175 27 9.5175C17.361 9.5175 9.5175 17.361 9.5175 27C9.5175 36.6407 17.3593 44.4825 27 44.4825C31.4651 44.4825 35.6771 42.8186 38.9239 39.7828L48.5072 49.3678L49.3678 48.5072ZM43.2675 27C43.2675 31.3436 41.5749 35.4274 38.502 38.5003C35.4291 41.5732 31.3436 43.2675 27 43.2675C18.0309 43.2675 10.7325 35.9708 10.7325 27C10.7325 18.0293 18.0309 10.7325 27 10.7325C35.9691 10.7325 43.2675 18.0309 43.2675 27ZM22.545 35.4375V32.0625C22.545 31.7267 22.2733 31.455 21.9375 31.455H18.5625C18.2267 31.455 17.955 31.7267 17.955 32.0625V35.4375C17.955 35.7733 18.2267 36.045 18.5625 36.045H21.9375C22.2733 36.045 22.545 35.7733 22.545 35.4375ZM19.17 32.67H21.33V34.8283H19.17V32.67ZM29.295 28.6875V25.3125C29.295 24.9767 29.0233 24.705 28.6875 24.705H25.3125C24.9767 24.705 24.705 24.9767 24.705 25.3125V28.6875C24.705 29.0233 24.9767 29.295 25.3125 29.295H28.6875C29.0233 29.295 29.295 29.0233 29.295 28.6875ZM25.92 25.92H28.08V28.08H25.92V25.92ZM36.045 21.9375V18.5625C36.045 18.2267 35.7733 17.955 35.4375 17.955H32.0625C31.7267 17.955 31.455 18.2267 31.455 18.5625V21.9375C31.455 22.2733 31.7267 22.545 32.0625 22.545H35.4375C35.7733 22.545 36.045 22.2733 36.045 21.9375ZM32.67 19.17H34.8283V21.33H32.67V19.17Z" fill="#4967D4"/>
</g>
<defs>
<clipPath id="clip0_2539_6161">
<rect width="54" height="54" fill="white"/>
</clipPath>
</defs>
</svg>
