<svg width="54" height="54" viewBox="0 0 54 54" fill="none" xmlns="http://www.w3.org/2000/svg">
<g clipPath="url(#clip0_2539_6158)">
<path d="M5.4912 15.6161L4.63395 14.7589L6.73489 12.6563L4.63395 10.5536L5.49289 9.69471L8.45277 12.6563L5.4912 15.6161ZM5.06258 3.37502C4.59683 3.37502 4.21883 3.75302 4.21883 4.21877C4.21883 4.68452 4.59683 5.06252 5.06258 5.06252C5.52833 5.06252 5.90633 4.68452 5.90633 4.21877C5.90633 3.75302 5.52833 3.37502 5.06258 3.37502ZM9.28133 4.21877C9.28133 4.68452 8.90333 5.06252 8.43758 5.06252C7.97183 5.06252 7.59383 4.68452 7.59383 4.21877C7.59383 3.75302 7.97183 3.37502 8.43758 3.37502C8.90333 3.37502 9.28133 3.75302 9.28133 4.21877ZM12.6563 4.21877C12.6563 4.68452 12.2783 5.06252 11.8126 5.06252C11.3468 5.06252 10.9688 4.68452 10.9688 4.21877C10.9688 3.75302 11.3468 3.37502 11.8126 3.37502C12.2783 3.37502 12.6563 3.75302 12.6563 4.21877ZM31.2188 10.9688C31.2188 11.4345 30.8408 11.8125 30.3751 11.8125C29.9093 11.8125 29.5313 11.4345 29.5313 10.9688C29.5313 10.503 29.9093 10.125 30.3751 10.125C30.8408 10.125 31.2188 10.503 31.2188 10.9688ZM34.5938 10.9688C34.5938 11.4345 34.2158 11.8125 33.7501 11.8125C33.2843 11.8125 32.9063 11.4345 32.9063 10.9688C32.9063 10.503 33.2843 10.125 33.7501 10.125C34.2158 10.125 34.5938 10.503 34.5938 10.9688ZM37.9688 10.9688C37.9688 11.4345 37.5908 11.8125 37.1251 11.8125C36.6593 11.8125 36.2813 11.4345 36.2813 10.9688C36.2813 10.503 36.6593 10.125 37.1251 10.125C37.5908 10.125 37.9688 10.503 37.9688 10.9688ZM9.28133 41.3438C9.28133 41.8095 8.90333 42.1875 8.43758 42.1875C7.97183 42.1875 7.59383 41.8095 7.59383 41.3438C7.59383 40.878 7.97183 40.5 8.43758 40.5C8.90333 40.5 9.28133 40.878 9.28133 41.3438ZM21.9376 24.2325H1.68758C1.35177 24.2325 1.08008 23.9608 1.08008 23.625V1.68752C1.08008 1.3517 1.35177 1.08002 1.68758 1.08002H21.9376C22.2734 1.08002 22.5451 1.3517 22.5451 1.68752V23.625C22.5451 23.9608 22.2734 24.2325 21.9376 24.2325ZM21.3301 7.35752H2.29508V23.0175H21.3301V7.35752ZM21.3301 2.29502H2.29508V6.1442H21.3301V2.29502ZM52.9201 8.43752V37.125C52.9201 37.4608 52.6484 37.7325 52.3126 37.7325H33.2286C32.7207 38.5273 32.0643 39.226 31.2846 39.7828C36.1362 41.5547 39.4167 46.1582 39.4167 51.43L39.4201 52.3091L38.2034 52.3125L38.2 51.4316C38.2 46.2375 34.6731 41.764 29.6225 40.5473C29.3693 40.4882 29.1837 40.2722 29.1601 40.014C29.1365 39.7558 29.2782 39.5095 29.5161 39.4048C31.7352 38.4058 33.1696 36.1986 33.1696 33.7787C33.1696 30.375 30.4021 27.6075 27.0001 27.6075C23.5947 27.6075 20.8238 30.375 20.8238 33.7787C20.8238 36.1986 22.2582 38.4058 24.479 39.4048C24.7169 39.5095 24.8586 39.7558 24.835 40.014C24.8114 40.2722 24.6241 40.4882 24.3726 40.5473C19.322 41.764 15.7934 46.2375 15.7934 51.43L15.7951 52.3091L14.5801 52.3125L14.5784 51.4316C14.5784 46.1582 17.8572 41.553 22.7105 39.7828C20.7901 38.4126 19.6088 36.1817 19.6088 33.777C19.6088 29.9093 22.5991 26.7266 26.3926 26.4161V8.43752C26.3926 8.1017 26.6643 7.83002 27.0001 7.83002H52.3126C52.6484 7.83002 52.9201 8.1017 52.9201 8.43752ZM51.7051 14.1075H27.6076V26.4178C31.3977 26.7283 34.3863 29.911 34.3863 33.7787C34.3863 34.7338 34.2006 35.6603 33.8547 36.5175H51.7051V14.1075ZM51.7051 9.04502H27.6076V12.8925H51.7051V9.04502ZM37.1251 19.6425H30.3751V20.8575H37.1251V19.6425ZM39.8926 29.5313C39.8926 26.8701 42.0576 24.705 44.7188 24.705C47.38 24.705 49.5451 26.8701 49.5451 29.5313C49.5451 32.1925 47.38 34.3575 44.7188 34.3575C42.0576 34.3575 39.8926 32.1925 39.8926 29.5313ZM47.6585 27.4489L45.3246 29.7827L45.3179 33.0818C47.0223 32.7932 48.3284 31.3166 48.3284 29.5313C48.3301 28.755 48.077 28.0378 47.6585 27.4489ZM41.1076 29.5313C41.1076 31.3116 42.4053 32.7848 44.1012 33.0801L44.1113 29.2781L46.7978 26.59C46.2089 26.1715 45.4934 25.92 44.7171 25.92C42.7276 25.92 41.1076 27.54 41.1076 29.5313ZM13.5001 16.2675H8.43758V17.4825H13.5001V16.2675ZM5.90633 36.045H10.9688V34.83H5.90633V36.045ZM5.90633 32.67H10.9688V31.455H5.90633V32.67ZM37.1251 23.0175H30.3751V24.2325H37.1251V23.0175ZM48.9376 19.6425H42.1876V20.8575H48.9376V19.6425ZM48.9376 16.2675H42.1876V17.4825H48.9376V16.2675ZM37.1251 16.2675H30.3751V17.4825H37.1251V16.2675ZM14.1076 29.673V42.8895C14.1076 43.7687 13.3938 44.4825 12.5146 44.4825H4.36058C3.48139 44.4825 2.76758 43.767 2.76758 42.8895V29.673C2.76758 28.7938 3.48139 28.08 4.36058 28.08H12.5146C13.3938 28.08 14.1076 28.7938 14.1076 29.673ZM12.8926 39.42H3.98258V42.8895C3.98258 43.0971 4.15302 43.2675 4.36058 43.2675H12.5146C12.7238 43.2675 12.8926 43.0971 12.8926 42.8895V39.42ZM12.8926 29.673C12.8926 29.4655 12.7221 29.295 12.5146 29.295H4.36058C4.15133 29.295 3.98258 29.4655 3.98258 29.673V38.205H12.8926V29.673Z" fill="#4967D4"/>
</g>
<defs>
<clipPath id="clip0_2539_6158">
<rect width="54" height="54" fill="white"/>
</clipPath>
</defs>
</svg>
