<svg width="54" height="54" viewBox="0 0 54 54" fill="none" xmlns="http://www.w3.org/2000/svg">
 <g clipPath="url(#clip0_2539_6154)">
 <path d="M26.9999 52.92C26.8446 52.92 26.6894 52.8609 26.5712 52.7428L21.3164 47.4879C20.6144 46.7859 20.2246 45.8527 20.2195 44.8571C20.2161 43.8514 20.6042 42.9064 21.3147 42.1943C22.02 41.4889 22.9583 41.1007 23.9539 41.0974C23.9573 41.0974 23.959 41.0974 23.9624 41.0974C24.9614 41.0974 25.8996 41.4855 26.6084 42.1926L26.9999 42.5841L27.3914 42.1926C28.8038 40.7801 31.2659 40.7751 32.6834 42.1926C33.4107 42.9182 33.7988 43.8817 33.7802 44.9077C33.76 45.8814 33.3719 46.7977 32.685 47.4862L27.4285 52.7411C27.3104 52.8609 27.1551 52.92 26.9999 52.92ZM23.9624 42.3124H23.9573C23.284 42.3124 22.6495 42.5756 22.1736 43.0515C21.6927 43.5324 21.4311 44.1703 21.4328 44.8487C21.4362 45.5203 21.6994 46.1514 22.1736 46.6256L26.9999 51.4519L31.8244 46.6256C32.2885 46.1616 32.5534 45.5422 32.5635 44.8841C32.577 44.1922 32.3155 43.5409 31.8244 43.0515C30.8676 42.093 29.2054 42.0964 28.2486 43.0515L27.4285 43.8716C27.1905 44.1096 26.8075 44.1096 26.5695 43.8716L25.7494 43.0515C25.2719 42.5739 24.6374 42.3124 23.9624 42.3124ZM44.4824 52.3125H43.2674C43.2674 44.9719 38.3112 38.5189 31.2152 36.6171C30.9722 36.5529 30.7967 36.3488 30.768 36.099C30.7377 35.8526 30.8659 35.6113 31.0853 35.4949C33.9152 33.9812 35.6736 31.0483 35.6736 27.8438C35.6736 23.0614 31.7822 19.17 26.9999 19.17C22.2175 19.17 18.3261 23.0614 18.3261 27.8438C18.3261 31.0483 20.0845 33.9812 22.9144 35.4949C23.1355 35.613 23.262 35.856 23.2317 36.1041C23.2013 36.3521 23.0207 36.558 22.776 36.6188C15.6852 38.4092 10.7324 44.8622 10.7324 52.3125H9.51737C9.51737 44.7711 14.2441 38.1814 21.1679 35.829C18.6366 33.9812 17.1111 31.0298 17.1111 27.8438C17.1111 22.3914 21.5459 17.955 26.9999 17.955C32.4539 17.955 36.8886 22.3898 36.8886 27.8438C36.8886 31.0399 35.3564 33.9964 32.815 35.8408C39.7489 38.2843 44.4824 44.8757 44.4824 52.3125ZM47.2499 39.42C44.1229 39.42 41.5799 36.8753 41.5799 33.75C41.5799 30.6248 44.1246 28.08 47.2499 28.08C50.3751 28.08 52.9199 30.6231 52.9199 33.75C52.9199 36.8769 50.3768 39.42 47.2499 39.42ZM47.2499 29.295C44.7929 29.295 42.7949 31.293 42.7949 33.75C42.7949 36.207 44.7929 38.205 47.2499 38.205C49.7069 38.205 51.7048 36.207 51.7048 33.75C51.7048 31.293 49.7069 29.295 47.2499 29.295ZM13.4999 37.7325H1.68737C1.46968 37.7325 1.26887 37.6161 1.16087 37.4271C1.05287 37.2381 1.05287 37.0052 1.16256 36.8179L7.0688 26.6929C7.28649 26.3183 7.90074 26.3183 8.11843 26.6929L14.0247 36.8179C14.1344 37.0052 14.1344 37.2381 14.0264 37.4271C13.9184 37.6161 13.7176 37.7325 13.4999 37.7325ZM2.74543 36.5175H12.4418L7.59362 28.2049L2.74543 36.5175ZM46.4061 20.8575C46.3015 20.8575 46.1985 20.8305 46.104 20.7782L40.1978 17.4032C40.0088 17.2952 39.8924 17.0927 39.8924 16.875V10.125C39.8924 9.90733 40.0088 9.70483 40.1995 9.59851L46.1057 6.22351C46.293 6.1172 46.5209 6.1172 46.7082 6.22351L52.6144 9.59851C52.8034 9.70483 52.9199 9.90733 52.9199 10.125V16.875C52.9199 17.0927 52.8034 17.2952 52.6127 17.4015L46.7065 20.7765C46.6137 20.8305 46.5107 20.8575 46.4061 20.8575ZM41.1074 16.5223L46.4061 19.5497L51.7048 16.5223V10.4777L46.4061 7.45033L41.1074 10.4777V16.5223ZM13.4999 19.17H3.37487C3.03906 19.17 2.76737 18.8983 2.76737 18.5625V8.43751C2.76737 8.1017 3.03906 7.83001 3.37487 7.83001H13.4999C13.8357 7.83001 14.1074 8.1017 14.1074 8.43751V18.5625C14.1074 18.8983 13.8357 19.17 13.4999 19.17ZM3.98237 17.955H12.8924V9.04501H3.98237V17.955ZM26.9999 12.42C23.8729 12.42 21.3299 9.87695 21.3299 6.75001C21.3299 3.62308 23.8729 1.08002 26.9999 1.08002C30.1268 1.08002 32.6699 3.62308 32.6699 6.75001C32.6699 9.87695 30.1268 12.42 26.9999 12.42ZM26.9999 2.29502C24.5429 2.29502 22.5449 4.2947 22.5449 6.75001C22.5449 9.20533 24.5429 11.205 26.9999 11.205C29.4569 11.205 31.4549 9.20533 31.4549 6.75001C31.4549 4.2947 29.4569 2.29502 26.9999 2.29502Z" fill="#4967D4"/>
 </g>
 <defs>
 <clipPath id="clip0_2539_6154">
 <rect width="54" height="54" fill="white"/>
 </clipPath>
 </defs>
 </svg>
