<svg width="96" height="78" viewBox="0 0 96 78" fill="none" xmlns="http://www.w3.org/2000/svg">
<mask id="path-1-outside-1_700_531" maskUnits="userSpaceOnUse" x="0" y="0" width="75" height="78" fill="black">
<rect fill="white" width="75" height="78"/>
<path d="M1.1486 14.3178L37.5 1L73.8511 14.3177L37.4999 28.19L1.1486 14.3178Z"/>
<path d="M1 14.3179L37.4999 28.19L37.5 77L1.25704 60.0593L1 14.3179Z"/>
<path d="M74 14.3179L37.5 28.2386V77L73.743 60.0593L74 14.3179Z"/>
</mask>
<path d="M1.1486 14.3178L37.5 1L73.8511 14.3177L37.4999 28.19L1.1486 14.3178Z" fill="#BEC2CD"/>
<path d="M1 14.3179L37.4999 28.19L37.5 77L1.25704 60.0593L1 14.3179Z" fill="#6C717D"/>
<path d="M74 14.3179L37.5 28.2386V77L73.743 60.0593L74 14.3179Z" fill="#4A4E5A"/>
<path d="M1.1486 14.3178L0.8046 13.3788L0.792066 15.252L1.1486 14.3178ZM37.5 1L37.844 0.0610319L37.156 0.0610312L37.5 1ZM73.8511 14.3177L74.2076 15.252L74.1951 13.3788L73.8511 14.3177ZM1 14.3179L1.35527 13.3831L1.57952e-05 14.3235L1 14.3179ZM37.5 77L37.0766 77.9059H37.9234L37.5 77ZM1.25704 60.0593L0.257058 60.0649L0.833596 60.9652L1.25704 60.0593ZM74 14.3179L75 14.3235L73.6436 13.3835L74 14.3179ZM37.5 28.2386L37.1436 27.3043L36.5 28.2386H37.5ZM73.743 60.0593L74.1664 60.9652L74.7429 60.0649L73.743 60.0593ZM1.4926 15.2567L37.844 1.93897L37.156 0.0610312L0.8046 13.3788L1.4926 15.2567ZM37.156 1.93897L73.5071 15.2567L74.1951 13.3788L37.844 0.0610319L37.156 1.93897ZM73.4946 13.3835L37.1433 27.2557L37.8564 29.1242L74.2076 15.252L73.4946 13.3835ZM37.8564 27.2557L1.50514 13.3835L0.792066 15.252L37.1433 29.1242L37.8564 27.2557ZM0.644735 15.2526L37.1446 29.1247L37.8551 27.2552L1.35527 13.3831L0.644735 15.2526ZM36.4999 28.19L36.5 77L38.5 77L38.4999 28.19L36.4999 28.19ZM37.9234 76.0941L1.68049 59.1534L0.833596 60.9652L37.0766 77.9059L37.9234 76.0941ZM2.25703 60.0537L1.99998 14.3123L1.57952e-05 14.3235L0.257058 60.0649L2.25703 60.0537ZM73.6436 13.3835L37.1436 27.3043L37.8564 29.173L74.3564 15.2522L73.6436 13.3835ZM36.5 28.2386V77H38.5V28.2386H36.5ZM37.9234 77.9059L74.1664 60.9652L73.3195 59.1534L37.0766 76.0941L37.9234 77.9059ZM74.7429 60.0649L75 14.3235L73 14.3123L72.743 60.0537L74.7429 60.0649Z" fill="#52555C" mask="url(#path-1-outside-1_700_531)"/>
<mask id="path-3-outside-2_700_531" maskUnits="userSpaceOnUse" x="57" y="37" width="39" height="41" fill="black">
<rect fill="white" x="57" y="37" width="39" height="41"/>
<path d="M58.0753 44.8341L76.5 38L94.9245 44.8341L76.4999 51.9527L58.0753 44.8341Z"/>
<path d="M58 44.8342L76.4999 51.9527L76.5 77L58.1303 68.3068L58 44.8342Z"/>
<path d="M95 44.8342L76.5 51.9777V77L94.8697 68.3068L95 44.8342Z"/>
</mask>
<path d="M58.0753 44.8341L76.5 38L94.9245 44.8341L76.4999 51.9527L58.0753 44.8341Z" fill="white"/>
<path d="M58 44.8342L76.4999 51.9527L76.5 77L58.1303 68.3068L58 44.8342Z" fill="#F9F9F9"/>
<path d="M95 44.8342L76.5 51.9777V77L94.8697 68.3068L95 44.8342Z" fill="#F1F2F2"/>
<path d="M58.0753 44.8341L57.7276 43.8965L57.7149 45.7669L58.0753 44.8341ZM76.5 38L76.8478 37.0624L76.1522 37.0624L76.5 38ZM94.9245 44.8341L95.2849 45.7669L95.2723 43.8965L94.9245 44.8341ZM58 44.8342L58.3591 43.9009L57 44.8397L58 44.8342ZM76.5 77L76.0722 77.9039H76.9278L76.5 77ZM58.1303 68.3068L57.1303 68.3123L57.7025 69.2106L58.1303 68.3068ZM95 44.8342L96 44.8397L94.6398 43.9013L95 44.8342ZM76.5 51.9777L76.1398 51.0448L75.5 51.9777H76.5ZM94.8697 68.3068L95.2975 69.2106L95.8697 68.3123L94.8697 68.3068ZM58.4231 45.7717L76.8478 38.9376L76.1522 37.0624L57.7276 43.8965L58.4231 45.7717ZM76.1522 38.9376L94.5768 45.7717L95.2723 43.8965L76.8478 37.0624L76.1522 38.9376ZM94.5641 43.9013L76.1395 51.0199L76.8603 52.8855L95.2849 45.7669L94.5641 43.9013ZM76.8603 51.0199L58.4357 43.9013L57.7149 45.7669L76.1395 52.8855L76.8603 51.0199ZM57.6409 45.7675L76.1408 52.886L76.859 51.0194L58.3591 43.9009L57.6409 45.7675ZM75.4999 51.9527L75.5 77L77.5 77L77.4999 51.9527L75.4999 51.9527ZM76.9278 76.0961L58.558 67.4029L57.7025 69.2106L76.0722 77.9039L76.9278 76.0961ZM59.1303 68.3012L59 44.8286L57 44.8397L57.1303 68.3123L59.1303 68.3012ZM94.6398 43.9013L76.1398 51.0448L76.8602 52.9106L95.3602 45.767L94.6398 43.9013ZM75.5 51.9777V77H77.5V51.9777H75.5ZM76.9278 77.9039L95.2975 69.2106L94.442 67.4029L76.0722 76.0961L76.9278 77.9039ZM95.8697 68.3123L96 44.8397L94 44.8286L93.8697 68.3012L95.8697 68.3123Z" fill="#BEC2CD" mask="url(#path-3-outside-2_700_531)"/>
</svg>
