<svg width="462" height="419" viewBox="0 0 462 419" fill="none" xmlns="http://www.w3.org/2000/svg">
<g clip-path="url(#clip0_4772_39451)">
<circle cx="231" cy="209.5" r="170" stroke="#879EF3" stroke-opacity="0.1" stroke-width="80"/>
<circle cx="231" cy="209" r="146.5" stroke="#D1D7EC" stroke-opacity="0.04" stroke-width="3"/>
<circle cx="231" cy="208.903" r="52.5" fill="#859BEC" fill-opacity="0.04" stroke="#4967D4" stroke-width="9"/>
<circle cx="231" cy="208.903" r="61.5" stroke="#859BEC" stroke-width="9"/>
<path d="M251.374 151.351V182.23H289.652V174.028C289.652 164.556 284.331 156.447 276.767 153.052C274.332 151.959 271.657 151.351 268.854 151.351H251.374Z" fill="#D6D6D6"/>
<path d="M198.278 174.274V267.455H242.261C253.048 267.455 261.793 258.739 261.793 247.987V181.885H261.7V176.633C261.7 169.651 264.427 163.329 268.827 158.755C271.213 156.274 274.091 154.312 277.304 153.033C275.029 151.952 272.531 151.351 269.915 151.351H220.347C208.156 151.351 198.278 161.613 198.278 174.274Z" fill="white"/>
<path d="M172.348 240.282L172.348 244.878C172.348 253.901 177.133 261.685 184.058 265.299C184.366 265.46 184.679 265.612 184.997 265.763C187.392 266.85 190.014 267.455 192.76 267.455H243.965V267.226C243.734 267.192 243.507 267.148 243.281 267.104C241.83 266.821 240.433 266.363 239.108 265.763C231.682 262.383 226.458 254.311 226.458 244.883V240.287L172.348 240.282Z" fill="#D6D6D6"/>
<rect x="206.922" y="182.23" width="46.9217" height="3.70544" fill="#D9D9D9"/>
<rect x="206.922" y="193.346" width="46.9217" height="3.70544" fill="#D9D9D9"/>
<rect x="206.922" y="205.698" width="46.9217" height="3.70544" fill="#D9D9D9"/>
<rect x="206.922" y="216.814" width="29.6348" height="3.70544" fill="#D9D9D9"/>
</g>
<defs>
<clipPath id="clip0_4772_39451">
<rect width="462" height="419" fill="white"/>
</clipPath>
</defs>
</svg>
