<svg width="1416" height="864" viewBox="0 0 1416 864" fill="none" xmlns="http://www.w3.org/2000/svg">
<g opacity="0.56">
<path d="M0.777619 534.093L191 464L381.221 534.093L190.999 607.105L0.777619 534.093Z" fill="#898D9D"/>
<path d="M0 534.094L190.999 607.105L191 864L1.34507 774.839L0 534.094Z" fill="#15171D"/>
<path d="M382 534.094L191 607.361V864L380.655 774.839L382 534.094Z" fill="#404350"/>
<path d="M702.383 263.521L796 229L889.617 263.521L796 299.479L702.383 263.521Z" fill="#898D9D"/>
<path d="M702 263.521L796 299.479L796 426L702.662 382.088L702 263.521Z" fill="#15171D"/>
<path d="M890 263.521L796 299.605V426L889.338 382.088L890 263.521Z" fill="#404350"/>
<path d="M414.487 371.808L533.5 328L652.513 371.808L533.5 417.441L414.487 371.808Z" fill="#898D9D"/>
<path d="M414 371.809L533.5 417.441L533.5 578L414.842 522.274L414 371.809Z" fill="#15171D"/>
<path d="M653 371.809L533.5 417.601V578L652.158 522.274L653 371.809Z" fill="#404350"/>
<path d="M933.256 177.131L996 154L1058.74 177.131L996 201.225L933.256 177.131Z" fill="#898D9D"/>
<path d="M933 177.131L996 201.225L996 286L933.444 256.577L933 177.131Z" fill="#15171D"/>
<path d="M1059 177.131L996 201.309V286L1058.56 256.577L1059 177.131Z" fill="#404350"/>
<path d="M1096.19 115.348L1143.5 98L1190.81 115.348L1143.5 133.418L1096.19 115.348Z" fill="#898D9D"/>
<path d="M1096 115.348L1143.5 133.418L1143.5 197L1096.33 174.933L1096 115.348Z" fill="#15171D"/>
<path d="M1191 115.348L1143.5 133.482V197L1190.67 174.933L1191 115.348Z" fill="#404350"/>
<path d="M1231.13 65.0911L1264 53L1296.87 65.0911L1264 77.6856L1231.13 65.0911Z" fill="#898D9D"/>
<path d="M1231 65.0912L1264 77.6856L1264 122L1231.23 106.62L1231 65.0912Z" fill="#15171D"/>
<path d="M1297 65.0912L1264 77.7298V122L1296.77 106.62L1297 65.0912Z" fill="#404350"/>
<path d="M1329.08 27.3598L1349 20L1368.92 27.3598L1349 35.026L1329.08 27.3598Z" fill="#898D9D"/>
<path d="M1329 27.3599L1349 35.026L1349 62L1329.14 52.638L1329 27.3599Z" fill="#15171D"/>
<path d="M1369 27.3599L1349 35.0529V62L1368.86 52.638L1369 27.3599Z" fill="#404350"/>
<path d="M1389.05 4.90654L1402.5 0L1415.94 4.90654L1402.5 10.0174L1389.05 4.90654Z" fill="#898D9D"/>
<path d="M1389 4.90659L1402.5 10.0174L1402.5 28L1389.1 21.7587L1389 4.90659Z" fill="#15171D"/>
<path d="M1416 4.90659L1402.5 10.0353V28L1415.9 21.7587L1416 4.90659Z" fill="#404350"/>
</g>
</svg>
