<svg width="177" height="255" viewBox="0 0 177 255" fill="none" xmlns="http://www.w3.org/2000/svg">
<path d="M6.48828 97.7722V91.4302C6.48828 87.7307 7.2828 84.2515 8.87182 80.9924C10.4609 77.6452 12.5796 74.5183 15.2279 71.6116C17.9646 68.6168 20.9661 65.7981 24.2324 63.1556C27.4988 60.425 30.8534 57.7826 34.2963 55.2282C37.8274 52.5857 41.1379 50.1634 44.2277 47.9613C47.3175 45.7592 49.8334 43.5131 51.7756 41.223C53.7177 38.9328 54.6888 36.3784 54.6888 33.5598C54.6888 31.8862 54.2915 30.3447 53.497 28.9354C52.7025 27.438 51.4666 26.2489 49.7893 25.3681C48.2003 24.3991 46.0374 23.9147 43.3008 23.9147C40.5641 23.9147 38.2247 24.4432 36.2825 25.5002C34.4287 26.5572 32.9721 28.0546 31.9127 29.9924C30.9416 31.8421 30.4561 33.9561 30.4561 36.3344V38.9769H6.88554C6.79726 38.4484 6.75312 37.9639 6.75312 37.5235C6.75312 36.995 6.75312 36.5105 6.75312 36.0701C6.75312 29.8162 8.16559 24.3991 10.9905 19.8188C13.9037 15.2385 18.2294 11.6712 23.9676 9.11676C29.794 6.56236 37.0771 5.28516 45.8167 5.28516C51.2017 5.28516 56.0571 5.94578 60.3828 7.26702C64.7085 8.50018 68.3721 10.3499 71.3736 12.8162C74.4633 15.1945 76.8027 18.0572 78.3918 21.4043C80.0691 24.7515 80.9077 28.495 80.9077 32.6349C80.9077 36.6867 80.1574 40.3421 78.6566 43.6012C77.1559 46.8603 75.0372 49.8991 72.3005 52.7178C69.5638 55.5364 66.4299 58.267 62.8988 60.9095C59.3676 63.552 55.5274 66.2385 51.3783 68.9691C49.2596 70.3784 47.5382 71.5675 46.214 72.5364C44.8898 73.4173 43.9187 74.0779 43.3008 74.5183C42.6828 74.9587 42.2855 75.267 42.109 75.4432H81.9671V97.7722H6.48828ZM132.55 99.3577C125.046 99.3577 118.779 98.2567 113.747 96.0546C108.715 93.7644 104.742 90.5494 101.829 86.4095C98.9158 82.2696 96.8413 77.337 95.6054 71.6116C94.3694 65.7981 93.7515 59.3681 93.7515 52.3214C93.7515 45.2748 94.3694 38.8888 95.6054 33.1634C96.8413 27.3499 98.9158 22.3732 101.829 18.2333C104.742 14.0934 108.715 10.9225 113.747 8.72039C118.779 6.43023 125.046 5.28516 132.55 5.28516C140.142 5.28516 146.41 6.43023 151.354 8.72039C156.386 10.9225 160.314 14.0934 163.139 18.2333C166.052 22.3732 168.127 27.3499 169.363 33.1634C170.599 38.8888 171.217 45.2748 171.217 52.3214C171.217 59.3681 170.599 65.7981 169.363 71.6116C168.127 77.337 166.052 82.2696 163.139 86.4095C160.314 90.5494 156.386 93.7644 151.354 96.0546C146.41 98.2567 140.142 99.3577 132.55 99.3577ZM132.55 81.5209C135.64 81.5209 138.112 80.7282 139.966 79.1427C141.82 77.5572 143.144 75.0908 143.938 71.7437C144.733 68.3965 145.13 64.0805 145.13 58.7955V45.7152C145.13 40.3421 144.733 36.0261 143.938 32.767C143.144 29.4199 141.82 26.9976 139.966 25.5002C138.112 23.9147 135.64 23.1219 132.55 23.1219C129.46 23.1219 126.989 23.9147 125.135 25.5002C123.281 26.9976 121.913 29.4199 121.03 32.767C120.235 36.0261 119.838 40.3421 119.838 45.7152V58.7955C119.838 64.0805 120.235 68.3965 121.03 71.7437C121.913 75.0908 123.281 77.5572 125.135 79.1427C126.989 80.7282 129.46 81.5209 132.55 81.5209ZM6.48828 204.793V198.451C6.48828 194.751 7.2828 191.272 8.87182 188.013C10.4609 184.666 12.5796 181.539 15.2279 178.632C17.9646 175.637 20.9661 172.819 24.2324 170.176C27.4988 167.446 30.8534 164.803 34.2963 162.249C37.8274 159.606 41.1379 157.184 44.2277 154.982C47.3175 152.78 49.8334 150.534 51.7756 148.244C53.7177 145.954 54.6888 143.399 54.6888 140.58C54.6888 138.907 54.2915 137.365 53.497 135.956C52.7025 134.459 51.4666 133.27 49.7893 132.389C48.2003 131.42 46.0374 130.935 43.3008 130.935C40.5641 130.935 38.2247 131.464 36.2825 132.521C34.4287 133.578 32.9721 135.075 31.9127 137.013C30.9416 138.863 30.4561 140.977 30.4561 143.355V145.998H6.88554C6.79726 145.469 6.75312 144.985 6.75312 144.544C6.75312 144.016 6.75312 143.531 6.75312 143.091C6.75312 136.837 8.16559 131.42 10.9905 126.84C13.9037 122.259 18.2294 118.692 23.9676 116.137C29.794 113.583 37.0771 112.306 45.8167 112.306C51.2017 112.306 56.0571 112.966 60.3828 114.288C64.7085 115.521 68.3721 117.371 71.3736 119.837C74.4633 122.215 76.8027 125.078 78.3918 128.425C80.0691 131.772 80.9077 135.516 80.9077 139.656C80.9077 143.707 80.1574 147.363 78.6566 150.622C77.1559 153.881 75.0372 156.92 72.3005 159.739C69.5638 162.557 66.4299 165.288 62.8988 167.93C59.3676 170.573 55.5274 173.259 51.3783 175.99C49.2596 177.399 47.5382 178.588 46.214 179.557C44.8898 180.438 43.9187 181.099 43.3008 181.539C42.6828 181.979 42.2855 182.288 42.109 182.464H81.9671V204.793H6.48828ZM135.728 204.793V186.163H91.3679V166.477C94.2812 162.249 97.2827 157.272 100.372 151.547C103.55 145.733 106.596 139.479 109.509 132.785C112.423 126.003 114.85 119.176 116.792 112.306H142.746C142.393 115.213 141.422 118.516 139.833 122.215C138.244 125.915 136.258 129.834 133.874 133.974C131.491 138.114 128.887 142.21 126.062 146.262C123.237 150.226 120.412 154.013 117.587 157.625C114.762 161.148 112.069 164.187 109.509 166.741H135.728V147.847C136.876 146.262 138.112 144.324 139.436 142.034C140.848 139.744 142.261 137.365 143.673 134.899C145.086 132.345 146.322 129.878 147.381 127.5C148.441 125.034 149.191 122.876 149.632 121.026H160.888V166.741H173.6V186.163H160.888V204.793H135.728Z" fill="#0090FF"/>
<path d="M5.71094 252.358V225.996H17.5386L19.9579 235.269C20.0603 235.601 20.2011 236.15 20.3803 236.916C20.5851 237.683 20.7899 238.513 20.9947 239.407C21.2251 240.301 21.43 241.131 21.6092 241.897H21.9164C22.0444 241.335 22.198 240.671 22.3772 239.905C22.582 239.113 22.7868 238.308 22.9916 237.491C23.1964 236.674 23.3756 235.933 23.5292 235.269L25.9485 225.996H37.3538V252.358H29.2511V242.855C29.2511 241.833 29.2511 240.786 29.2511 239.713C29.2767 238.615 29.2895 237.58 29.2895 236.61C29.3151 235.639 29.3279 234.834 29.3279 234.196H29.0206C28.9438 234.707 28.8286 235.307 28.675 235.997C28.547 236.686 28.4062 237.376 28.2526 238.066C28.099 238.73 27.9454 239.317 27.7918 239.828L24.3741 252.358H18.0378L14.5817 239.828C14.4537 239.317 14.3001 238.73 14.1209 238.066C13.9673 237.376 13.8265 236.686 13.6984 235.997C13.5704 235.307 13.4552 234.719 13.3528 234.234H13.0456C13.0712 234.873 13.0968 235.677 13.1224 236.648C13.148 237.619 13.1608 238.64 13.1608 239.713C13.1864 240.786 13.1992 241.833 13.1992 242.855V252.358H5.71094ZM40.5672 252.358L50.2059 225.996H60.0751L69.7139 252.358H60.7279L59.6143 248.641H50.3595L49.2459 252.358H40.5672ZM52.126 242.74H57.8862L56.619 238.525C56.5166 238.219 56.4014 237.849 56.2733 237.414C56.1453 236.98 56.0173 236.52 55.8893 236.035C55.7613 235.55 55.6333 235.077 55.5053 234.617C55.3773 234.132 55.2621 233.71 55.1597 233.353H54.8525C54.7501 233.813 54.6093 234.336 54.4301 234.924C54.2765 235.511 54.1101 236.124 53.9309 236.763C53.7517 237.376 53.5724 237.963 53.3932 238.525L52.126 242.74ZM72.9136 252.358V225.996H84.3572C87.3781 225.996 89.9126 226.469 91.9607 227.414C94.0088 228.359 95.5576 229.802 96.6073 231.743C97.6825 233.685 98.2201 236.163 98.2201 239.177C98.2201 242.165 97.6825 244.643 96.6073 246.61C95.5576 248.551 94.0088 249.995 91.9607 250.94C89.9126 251.885 87.3781 252.358 84.3572 252.358H72.9136ZM81.4003 246.035H84.2036C85.1252 246.035 85.9189 245.908 86.5845 245.652C87.2757 245.397 87.8389 245.026 88.2742 244.541C88.7094 244.056 89.0294 243.455 89.2342 242.74C89.439 242.025 89.5414 241.22 89.5414 240.326V238.027C89.5414 237.133 89.439 236.329 89.2342 235.613C89.0294 234.898 88.7094 234.298 88.2742 233.813C87.8389 233.327 87.2757 232.957 86.5845 232.701C85.9189 232.446 85.1252 232.318 84.2036 232.318H81.4003V246.035ZM102.802 252.358V225.996H119.353C121.325 225.996 122.963 226.392 124.269 227.184C125.6 227.976 126.598 229.01 127.264 230.288C127.93 231.565 128.262 232.944 128.262 234.426C128.262 236.112 127.866 237.619 127.072 238.947C126.278 240.25 125.203 241.297 123.846 242.089L129.031 252.358H119.507L115.475 243.507H111.289V252.358H102.802ZM111.289 237.644H117.241C117.907 237.644 118.47 237.389 118.931 236.878C119.392 236.341 119.622 235.639 119.622 234.77C119.622 234.234 119.52 233.762 119.315 233.353C119.11 232.944 118.829 232.625 118.47 232.395C118.112 232.139 117.702 232.012 117.241 232.012H111.289V237.644ZM132.691 252.358V225.996H141.178V252.358H132.691ZM146.866 252.358V225.996H158.31C161.331 225.996 163.866 226.469 165.914 227.414C167.962 228.359 169.511 229.802 170.56 231.743C171.635 233.685 172.173 236.163 172.173 239.177C172.173 242.165 171.635 244.643 170.56 246.61C169.511 248.551 167.962 249.995 165.914 250.94C163.866 251.885 161.331 252.358 158.31 252.358H146.866ZM155.353 246.035H158.157C159.078 246.035 159.872 245.908 160.537 245.652C161.229 245.397 161.792 245.026 162.227 244.541C162.662 244.056 162.982 243.455 163.187 242.74C163.392 242.025 163.494 241.22 163.494 240.326V238.027C163.494 237.133 163.392 236.329 163.187 235.613C162.982 234.898 162.662 234.298 162.227 233.813C161.792 233.327 161.229 232.957 160.537 232.701C159.872 232.446 159.078 232.318 158.157 232.318H155.353V246.035Z" fill="#0090FF"/>
</svg>
