<svg width="97" height="101" viewBox="0 0 97 101" fill="none" xmlns="http://www.w3.org/2000/svg">
<g filter="url(#filter0_d_1389_1184)">
<path d="M20.116 25.1957L48.5 14.6817L76.8837 25.1957L48.4999 36.1475L20.116 25.1957Z" fill="#F1F1F2"/>
<path d="M20 25.1958L48.4999 36.1475L48.5 74.6817L20.2007 61.3075L20 25.1958Z" fill="#CACACD"/>
<path d="M77 25.1958L48.5 36.1859V74.6817L76.7993 61.3075L77 25.1958Z" fill="#E1E2E6"/>
</g>
<g filter="url(#filter1_d_1389_1184)">
<circle cx="72" cy="62" r="10" fill="white"/>
<path d="M79.0415 54.8995C75.1312 50.9892 68.8097 50.9892 64.8994 54.8995C60.9891 58.8098 60.9891 65.1313 64.8994 69.0416C68.8097 72.9519 75.1312 72.9519 79.0415 69.0416C82.9518 65.1313 82.9518 58.8098 79.0415 54.8995ZM72.9675 68.0446H70.9734V62.9676H65.8964V60.9735H70.9734V55.8965H72.9675V60.9735H78.0445V62.9676H72.9675V68.0446Z" fill="#19BD2A"/>
</g>
<defs>
<filter id="filter0_d_1389_1184" x="0" y="0.681702" width="97" height="100" filterUnits="userSpaceOnUse" color-interpolation-filters="sRGB">
<feFlood flood-opacity="0" result="BackgroundImageFix"/>
<feColorMatrix in="SourceAlpha" type="matrix" values="0 0 0 0 0 0 0 0 0 0 0 0 0 0 0 0 0 0 127 0" result="hardAlpha"/>
<feOffset dy="6"/>
<feGaussianBlur stdDeviation="10"/>
<feComposite in2="hardAlpha" operator="out"/>
<feColorMatrix type="matrix" values="0 0 0 0 1 0 0 0 0 1 0 0 0 0 1 0 0 0 0.21 0"/>
<feBlend mode="normal" in2="BackgroundImageFix" result="effect1_dropShadow_1389_1184"/>
<feBlend mode="normal" in="SourceGraphic" in2="effect1_dropShadow_1389_1184" result="shape"/>
</filter>
<filter id="filter1_d_1389_1184" x="47" y="39" width="49.9412" height="49.9411" filterUnits="userSpaceOnUse" color-interpolation-filters="sRGB">
<feFlood flood-opacity="0" result="BackgroundImageFix"/>
<feColorMatrix in="SourceAlpha" type="matrix" values="0 0 0 0 0 0 0 0 0 0 0 0 0 0 0 0 0 0 127 0" result="hardAlpha"/>
<feOffset dy="2"/>
<feGaussianBlur stdDeviation="4"/>
<feComposite in2="hardAlpha" operator="out"/>
<feColorMatrix type="matrix" values="0 0 0 0 0.295595 0 0 0 0 0.795833 0 0 0 0 0.212222 0 0 0 0.48 0"/>
<feBlend mode="normal" in2="BackgroundImageFix" result="effect1_dropShadow_1389_1184"/>
<feBlend mode="normal" in="SourceGraphic" in2="effect1_dropShadow_1389_1184" result="shape"/>
</filter>
</defs>
</svg>
