<svg width="485" height="391" viewBox="0 0 485 391" fill="none" xmlns="http://www.w3.org/2000/svg">
<g clipPath="url(#clip0_164_2936)">
<path d="M667.025 344.35C667.025 344.35 592.356 387.26 399.798 336.884C207.24 286.508 133.506 161.991 239.234 89.1112C239.234 89.1112 153.344 108.266 128.996 201.336C104.647 294.405 166.421 446.958 397.857 507.505C629.292 568.052 710.895 521.183 710.895 521.183L667.025 344.35Z" fill="url(#paint0_linear_164_2936)"/>
<path opacity="0.5" d="M-127.182 567.711C-89.0641 543.889 -59.107 509.016 -32.9943 472.408C0.408268 425.548 28.4566 375.092 50.6252 321.983C61.1168 296.835 70.2844 271.126 81.733 246.414C93.883 220.215 108.542 195.256 125.505 171.887C151.782 135.636 186.567 101.682 230.614 93.7866C183.293 130.19 152.662 185.707 148.427 245.286C146.947 266.119 148.541 287.041 149.49 307.923C151.634 354.31 150.452 401.398 138.129 446.158C121.083 507.347 84.1606 561.121 33.1879 598.993C24.6945 595.339 15.9043 592.417 6.91341 590.261C-12.2772 586.055 -31.652 581.844 -51.2816 581.881C-64.568 581.906 -77.8223 583.883 -91.0995 583.381C-104.377 582.88 -117.4 576.715 -127.182 567.711Z" fill="url(#paint1_linear_164_2936)"/>
<path opacity="0.2" d="M515.451 258.927C515.451 258.927 466.559 287.033 340.45 254.04C214.341 221.048 166.077 139.504 235.3 91.8117C235.3 91.8117 179.058 104.348 163.111 165.306C147.163 226.265 187.604 326.196 339.119 365.835C490.634 405.474 544.115 374.782 544.115 374.782L515.451 258.927Z" fill="url(#paint2_radial_164_2936)"/>
<circle cx="219.012" cy="100" r="100" fill="#5B5B5B" fill-opacity="0.17"/>
<g clipPath="url(#clip1_164_2936)">
<path d="M242.549 42.3106C288.42 13.1204 320.385 15.04 331.233 16.9468C332.398 17.1506 333.436 17.8005 334.125 18.7573C334.815 19.7141 335.101 20.9016 334.921 22.0656C333.263 32.9431 324.909 63.7201 282.508 97.7219C282.508 97.7219 257.419 117.954 223.27 123.751L211.06 106.846L198.85 89.9285C215.327 59.5482 242.549 42.3106 242.549 42.3106Z" fill="white"/>
<path d="M190.868 104.786L207.127 126.874L214.954 119.195L200.675 99.8462L190.868 104.786Z" fill="white"/>
<path d="M257.092 68.6245C252.629 58.9431 256.894 47.4919 266.618 43.0474C276.342 38.603 287.842 42.8484 292.305 52.5298C296.769 62.2112 292.504 73.6625 282.78 78.1069C273.056 82.5514 261.556 78.3059 257.092 68.6245Z" fill="#4967D4"/>
<path d="M268.024 51.3072C266.172 52.6449 264.76 54.4992 263.967 56.6358C263.173 58.7724 263.034 61.0952 263.567 63.3105C264.099 65.5258 265.279 67.5342 266.958 69.0816C268.637 70.6291 270.739 71.646 272.999 72.004C275.258 72.3619 277.573 72.0447 279.652 71.0925C281.73 70.1403 283.478 68.5959 284.675 66.6545C285.872 64.7131 286.463 62.462 286.375 60.1858C286.287 57.9095 285.523 55.7105 284.18 53.8667C283.287 52.6424 282.162 51.605 280.867 50.8138C279.573 50.0226 278.134 49.493 276.634 49.2554C275.134 49.0177 273.601 49.0766 272.124 49.4286C270.646 49.7807 269.253 50.4191 268.024 51.3072Z" fill="#1B3183"/>
<path d="M203.015 90.7764L224.349 119.868L218.247 124.304L196.912 95.2128L203.015 90.7764Z" fill="#4967D4"/>
<path d="M214.729 88.4031L229.899 109.09L223.797 113.526L208.627 92.8395L214.729 88.4031Z" fill="#4967D4"/>
<path d="M269.876 99.0713L260.374 134.179C259.758 136.45 258.683 138.572 257.215 140.414C255.746 142.257 253.915 143.781 251.834 144.894L209.908 167.342C209.426 167.601 208.892 167.751 208.346 167.781C207.799 167.811 207.252 167.72 206.744 167.516C206.237 167.312 205.781 166.998 205.409 166.598C205.037 166.198 204.758 165.721 204.592 165.202C204.376 164.526 204.358 163.803 204.541 163.118C204.723 162.432 205.099 161.813 205.623 161.333C212.55 155.005 237.474 130.67 234.529 109.736L269.876 99.0713Z" fill="#4967D4"/>
<path d="M236.03 52.9122L199.531 51.2953C197.174 51.1899 194.82 51.5639 192.613 52.3945C190.406 53.2252 188.391 54.4949 186.694 56.1264L152.447 89.0577C152.053 89.4376 151.748 89.8991 151.553 90.4095C151.359 90.9199 151.279 91.4666 151.32 92.011C151.362 92.5554 151.523 93.084 151.792 93.5594C152.062 94.0349 152.433 94.4455 152.88 94.7621C153.458 95.1727 154.143 95.4091 154.853 95.4432C155.563 95.4773 156.268 95.3076 156.884 94.9544C165.064 90.283 195.921 74.0693 215.014 83.3148L236.03 52.9122Z" fill="#4967D4"/>
<path d="M173.914 130.517L176.732 134.412C176.883 134.628 177.076 134.811 177.299 134.952C177.521 135.092 177.77 135.187 178.031 135.23C178.291 135.273 178.557 135.265 178.814 135.204C179.07 135.144 179.312 135.033 179.525 134.878L248.765 86.7295C249.033 86.5443 249.26 86.3076 249.435 86.0334C249.609 85.7592 249.726 85.453 249.78 85.1329C249.833 84.8128 249.822 84.4852 249.746 84.1696C249.671 83.854 249.532 83.5566 249.339 83.2951L244.971 77.3284C244.777 77.0665 244.533 76.8455 244.253 76.6782C243.972 76.511 243.661 76.4009 243.338 76.3542C243.015 76.3075 242.685 76.3252 242.369 76.4063C242.052 76.4874 241.755 76.6303 241.494 76.8266L174.312 127.834C173.917 128.148 173.655 128.599 173.581 129.097C173.507 129.596 173.626 130.103 173.914 130.517Z" fill="#4967D4"/>
</g>
</g>
<defs>
<linearGradient id="paint0_linear_164_2936" x1="237.5" y1="440" x2="149.5" y2="113.5" gradientUnits="userSpaceOnUse">
<stop stop-color="#78E2FF" stop-opacity="0"/>
<stop offset="0.382447" stop-color="#67C7FF" stop-opacity="0.177083"/>
<stop offset="0.627604" stop-color="#428EFF" stop-opacity="0.56"/>
<stop offset="1" stop-color="#0AD3FF"/>
</linearGradient>
<linearGradient id="paint1_linear_164_2936" x1="-73.5" y1="643.5" x2="199.512" y2="110.5" gradientUnits="userSpaceOnUse">
<stop stop-color="white" stop-opacity="0"/>
<stop offset="0.739583" stop-color="white" stop-opacity="0.21"/>
<stop offset="0.99" stop-color="white" stop-opacity="0.6"/>
</linearGradient>
<radialGradient id="paint2_radial_164_2936" cx="0" cy="0" r="1" gradientUnits="userSpaceOnUse" gradientTransform="translate(594 268) rotate(-159.42) scale(413.916 692.642)">
<stop stop-color="white" stop-opacity="0"/>
<stop offset="0.182292" stop-color="white" stop-opacity="0"/>
<stop offset="0.333333" stop-color="white" stop-opacity="0.1"/>
<stop offset="0.59375" stop-color="white" stop-opacity="0.26"/>
<stop offset="0.99" stop-color="white" stop-opacity="0.8"/>
</radialGradient>
<clipPath id="clip0_164_2936">
<rect width="485" height="391" fill="white"/>
</clipPath>
<clipPath id="clip1_164_2936">
<rect width="184" height="153" fill="white" transform="matrix(-1 0 0 1 335.012 16)"/>
</clipPath>
</defs>
</svg>
