<svg width="40" height="40" viewBox="0 0 40 40" fill="none" xmlns="http://www.w3.org/2000/svg">
<rect width="40" height="40" rx="6" fill="#DDDDDD"/>
<path d="M10.4947 14.7415L18.2168 19.1998C19.0777 19.6969 19.7757 20.9057 19.7757 21.8998L19.7757 30.8165C19.7757 31.8106 19.0777 32.2136 18.2168 31.7165L10.4947 27.2582C9.63382 26.7611 8.9359 25.5523 8.9359 24.5582L8.9359 15.6415C8.9359 14.6474 9.63382 14.2444 10.4947 14.7415Z" fill="#515358" stroke="#DDDDDD" stroke-width="0.4"/>
<rect x="0.173205" y="0.1" width="12.5167" height="12.5167" rx="1.8" transform="matrix(0.866025 -0.5 2.20305e-08 1 19.9719 20.0866)" fill="#1A1B1F" stroke="#DDDDDD" stroke-width="0.4"/>
<path d="M21.5076 8.18325L29.2296 12.6416C30.0906 13.1386 30.0906 13.9445 29.2296 14.4416L21.5076 18.8999C20.6467 19.397 19.2508 19.397 18.3899 18.8999L10.6678 14.4416C9.8069 13.9445 9.8069 13.1386 10.6678 12.6416L18.3899 8.18325C19.2508 7.6862 20.6466 7.6862 21.5076 8.18325Z" fill="#6A6B6C" stroke="#DDDDDD" stroke-width="0.4"/>
</svg>
