<svg width="54" height="54" viewBox="0 0 54 54" fill="none" xmlns="http://www.w3.org/2000/svg">
<path d="M34.748 4.73685V16.579H49.3046V13.4333C49.3046 9.80103 47.2811 6.69111 44.4045 5.3889C43.4786 4.96986 42.4612 4.73685 41.3954 4.73685H34.748Z" fill="#D6D6D6"/>
<path d="M14.5566 13.5276V49.2632H31.2825C35.3845 49.2632 38.71 45.9204 38.71 41.7972V16.4468H38.6749V14.4326C38.6749 11.755 39.712 9.33014 41.3849 7.57607C42.2926 6.6247 43.3869 5.87216 44.6088 5.38162C43.7437 4.96725 42.7935 4.73685 41.799 4.73685H22.9491C18.3129 4.73685 14.5566 8.67236 14.5566 13.5276Z" fill="white"/>
<path d="M4.69531 38.8421L4.69531 40.6047C4.69531 44.0651 6.515 47.0504 9.14832 48.4364C9.2656 48.4981 9.38471 48.5561 9.50566 48.6141C10.4164 49.0312 11.4133 49.2632 12.4578 49.2632H31.9301V49.1752C31.8421 49.1621 31.756 49.1453 31.6699 49.1285C31.1183 49.02 30.5869 48.8442 30.0829 48.6141C27.259 47.3179 25.2726 44.2222 25.2726 40.6066V38.844L4.69531 38.8421Z" fill="#D6D6D6"/>
<rect x="17.8438" y="16.5789" width="17.8435" height="1.42105" fill="#D9D9D9"/>
<rect x="17.8438" y="20.8421" width="17.8435" height="1.42105" fill="#D9D9D9"/>
<rect x="17.8438" y="25.5789" width="17.8435" height="1.42105" fill="#D9D9D9"/>
<rect x="17.8438" y="29.8421" width="11.2696" height="1.42105" fill="#D9D9D9"/>
<path d="M20.5969 25.3315C21.3682 22.0608 19.377 18.7758 16.1496 17.9942C12.9221 17.2126 9.68048 19.2304 8.90921 22.5011C8.13794 25.7718 10.1291 29.0568 13.3565 29.8384C16.584 30.62 19.8256 28.6022 20.5969 25.3315Z" fill="#2ABB53"/>
<path d="M14.5 26.4165L11.2734 23.861L11.9583 22.9732L14.3621 24.8796L17.6421 21.1501L18.4715 21.8983L14.5 26.4165Z" fill="white"/>
</svg>
