<svg width="52" height="12" viewBox="0 0 52 12" fill="none" xmlns="http://www.w3.org/2000/svg">
<path d="M0 10.8522V9.92795L4.2326 4.65101H0.196512V3.21997H6.40937V4.29325L2.26746 9.49566H6.5303V10.8522H0Z" fill="#E2E4EC"/>
<path d="M11.6696 11.0157C10.2789 11.0157 9.251 10.6728 8.601 9.98711C7.95099 9.30141 7.63354 8.31757 7.63354 7.03561C7.63354 5.75364 7.96611 4.7698 8.61611 4.0841C9.26612 3.39839 10.294 3.05554 11.6696 3.05554C13.0603 3.05554 14.0883 3.39839 14.7383 4.0841C15.3883 4.7698 15.7208 5.75364 15.7208 7.03561C15.7208 8.31757 15.4034 9.30141 14.7534 9.98711C14.0883 10.6728 13.0603 11.0157 11.6696 11.0157ZM11.6696 9.52501C12.4859 9.52501 13.0603 9.33122 13.408 8.94365C13.7557 8.55608 13.922 7.9151 13.922 7.03561C13.922 6.15612 13.7557 5.51513 13.408 5.14247C13.0603 4.7549 12.4859 4.56111 11.6696 4.56111C10.8685 4.56111 10.294 4.7549 9.94636 5.14247C9.59868 5.53004 9.4324 6.15612 9.4324 7.03561C9.4324 7.9151 9.59868 8.55608 9.94636 8.94365C10.2789 9.33122 10.8533 9.52501 11.6696 9.52501Z" fill="#E2E4EC"/>
<path d="M17.4438 10.8517V3.21951H19.0764L19.152 4.02447C19.4997 3.75615 19.9229 3.53255 20.4067 3.33877C20.8904 3.14498 21.4346 3.05554 22.009 3.05554C23.0067 3.05554 23.7323 3.27914 24.2009 3.74125C24.6544 4.20335 24.8811 4.91887 24.8811 5.9027V10.8517H23.1125V5.99215C23.1125 5.39588 22.9916 4.9934 22.7497 4.7549C22.5079 4.51639 22.0392 4.39714 21.3741 4.39714C20.966 4.39714 20.573 4.47167 20.195 4.63564C19.802 4.79962 19.4846 5.00831 19.2276 5.26172V10.8517H17.4438Z" fill="#E2E4EC"/>
<path d="M29.9154 11.016C29.2201 11.016 28.6003 10.8967 28.0712 10.6582C27.5422 10.4197 27.1189 10.0322 26.8317 9.48061C26.5445 8.92906 26.3933 8.19864 26.3933 7.27443C26.3933 6.36512 26.5445 5.58998 26.8619 4.9639C27.1794 4.33782 27.6177 3.86081 28.177 3.53287C28.7364 3.20492 29.3712 3.05586 30.0817 3.05586C30.5503 3.05586 30.9585 3.11548 31.3364 3.21983C31.6992 3.32417 32.0469 3.48815 32.3945 3.71175V0H34.1783V10.852H32.6666L32.5457 10.0918C32.198 10.4048 31.8201 10.6284 31.3968 10.7775C30.9736 10.9415 30.4747 11.016 29.9154 11.016ZM30.384 9.6893C31.1852 9.6893 31.8352 9.42098 32.3794 8.88434V5.06825C31.8655 4.62105 31.2306 4.39745 30.4596 4.39745C29.7038 4.39745 29.1445 4.65086 28.7666 5.14278C28.3887 5.6347 28.1922 6.35022 28.1922 7.30424C28.1922 8.21354 28.3736 8.83962 28.7212 9.18247C29.0689 9.52533 29.6282 9.6893 30.384 9.6893Z" fill="#E2E4EC"/>
<path d="M38.5469 11.0161C38.0631 11.0161 37.6096 10.9267 37.1864 10.7627C36.7631 10.5839 36.4306 10.3304 36.1887 9.98759C35.9317 9.64474 35.8108 9.21245 35.8108 8.69072C35.8108 7.96029 36.0678 7.37893 36.5666 6.93174C37.0655 6.48454 37.8515 6.26094 38.9097 6.26094H41.3888V5.91809C41.3888 5.56033 41.3283 5.26219 41.2225 5.0535C41.1015 4.84481 40.905 4.68084 40.6027 4.5914C40.3004 4.50196 39.862 4.44233 39.2876 4.44233C38.3806 4.44233 37.5189 4.57649 36.7178 4.84481V3.54793C37.0655 3.41378 37.4887 3.29452 37.9876 3.20508C38.4864 3.11564 39.0306 3.07092 39.605 3.07092C40.7388 3.07092 41.6004 3.29452 42.1899 3.74172C42.7795 4.18892 43.0818 4.93425 43.0818 5.9479V10.8522H41.5702L41.4492 10.077C41.1318 10.3752 40.7388 10.6137 40.2853 10.7627C39.8318 10.9267 39.2422 11.0161 38.5469 11.0161ZM39.0306 9.76399C39.5597 9.76399 40.0283 9.67455 40.4213 9.49567C40.8143 9.31679 41.1469 9.07829 41.3888 8.78016V7.43856H38.9399C38.4108 7.43856 38.0329 7.54291 37.8062 7.73669C37.5794 7.93048 37.4585 8.24352 37.4585 8.646C37.4585 9.04847 37.5945 9.3317 37.8666 9.49567C38.1387 9.67455 38.5317 9.76399 39.0306 9.76399Z" fill="#E2E4EC"/>
<path d="M44.1248 10.8522L47.0725 6.97644L44.2306 3.21997H46.1352L48.0248 5.769L49.9144 3.21997H51.819L49.0225 6.97644L51.9551 10.8522H50.0353L48.0399 8.19878L46.0445 10.8522H44.1248Z" fill="#E2E4EC"/>
</svg>
