<svg width="80" height="18" viewBox="0 0 80 18" fill="none" xmlns="http://www.w3.org/2000/svg">
<path d="M27.2163 14.1996V13.2754L31.4489 7.99842H27.4128V6.56738H33.6257V7.64066L29.4838 12.8431H33.7466V14.1996H27.2163Z" fill="#FAFAFA"/>
<path d="M38.8859 14.3634C37.4952 14.3634 36.4673 14.0206 35.8173 13.3349C35.1673 12.6492 34.8499 11.6654 34.8499 10.3834C34.8499 9.10142 35.1824 8.11758 35.8324 7.43188C36.4824 6.74617 37.5103 6.40332 38.8859 6.40332C40.2766 6.40332 41.3046 6.74617 41.9546 7.43188C42.6046 8.11758 42.9371 9.10142 42.9371 10.3834C42.9371 11.6654 42.6197 12.6492 41.9697 13.3349C41.3046 14.0206 40.2766 14.3634 38.8859 14.3634ZM38.8859 12.8728C39.7022 12.8728 40.2766 12.679 40.6243 12.2914C40.972 11.9039 41.1383 11.2629 41.1383 10.3834C41.1383 9.5039 40.972 8.86291 40.6243 8.49025C40.2766 8.10267 39.7022 7.90889 38.8859 7.90889C38.0848 7.90889 37.5103 8.10267 37.1627 8.49025C36.815 8.87782 36.6487 9.5039 36.6487 10.3834C36.6487 11.2629 36.815 11.9039 37.1627 12.2914C37.4952 12.679 38.0696 12.8728 38.8859 12.8728Z" fill="#FAFAFA"/>
<path d="M44.6602 14.1995V6.56729H46.2927L46.3683 7.37225C46.716 7.10393 47.1393 6.88033 47.623 6.68655C48.1067 6.49276 48.6509 6.40332 49.2253 6.40332C50.223 6.40332 50.9486 6.62692 51.4172 7.08902C51.8707 7.55113 52.0974 8.26665 52.0974 9.25048V14.1995H50.3288V9.33992C50.3288 8.74366 50.2079 8.34118 49.966 8.10267C49.7242 7.86417 49.2556 7.74492 48.5904 7.74492C48.1823 7.74492 47.7893 7.81945 47.4113 7.98342C47.0183 8.14739 46.7009 8.35609 46.4439 8.6095V14.1995H44.6602Z" fill="#FAFAFA"/>
<path d="M57.1316 14.3636C56.4363 14.3636 55.8165 14.2444 55.2874 14.0059C54.7583 13.7674 54.3351 13.3798 54.0479 12.8283C53.7607 12.2767 53.6095 11.5463 53.6095 10.6221C53.6095 9.71278 53.7607 8.93764 54.0781 8.31156C54.3955 7.68548 54.8339 7.20847 55.3932 6.88052C55.9525 6.55258 56.5874 6.40351 57.2979 6.40351C57.7665 6.40351 58.1747 6.46314 58.5526 6.56748C58.9154 6.67183 59.263 6.8358 59.6107 7.0594V3.34766H61.3945V14.1997H59.8828L59.7619 13.4394C59.4142 13.7525 59.0363 13.9761 58.613 14.1251C58.1898 14.2891 57.6909 14.3636 57.1316 14.3636ZM57.6002 13.037C58.4014 13.037 59.0514 12.7686 59.5956 12.232V8.4159C59.0816 7.96871 58.4468 7.74511 57.6758 7.74511C56.92 7.74511 56.3607 7.99852 55.9828 8.49044C55.6049 8.98236 55.4084 9.69787 55.4084 10.6519C55.4084 11.5612 55.5897 12.1873 55.9374 12.5301C56.2851 12.873 56.8444 13.037 57.6002 13.037Z" fill="#FAFAFA"/>
<path d="M65.7631 14.3642C65.2793 14.3642 64.8258 14.2747 64.4026 14.1108C63.9793 13.9319 63.6468 13.6785 63.4049 13.3356C63.1479 12.9928 63.027 12.5605 63.027 12.0387C63.027 11.3083 63.284 10.727 63.7828 10.2798C64.2816 9.83256 65.0677 9.60896 66.1258 9.60896H68.6049V9.26611C68.6049 8.90835 68.5445 8.61022 68.4387 8.40152C68.3177 8.19283 68.1212 8.02886 67.8189 7.93942C67.5166 7.84998 67.0782 7.79035 66.5038 7.79035C65.5968 7.79035 64.7351 7.92451 63.934 8.19283V6.89596C64.2816 6.7618 64.7049 6.64254 65.2037 6.55311C65.7026 6.46367 66.2468 6.41895 66.8212 6.41895C67.9549 6.41895 68.8166 6.64254 69.4061 7.08974C69.9957 7.53694 70.298 8.28227 70.298 9.29592V14.2002H68.7863L68.6654 13.4251C68.348 13.7232 67.9549 13.9617 67.5014 14.1108C67.048 14.2747 66.4584 14.3642 65.7631 14.3642ZM66.2468 13.112C66.7759 13.112 67.2445 13.0226 67.6375 12.8437C68.0305 12.6648 68.3631 12.4263 68.6049 12.1282V10.7866H66.1561C65.627 10.7866 65.2491 10.8909 65.0223 11.0847C64.7956 11.2785 64.6747 11.5915 64.6747 11.994C64.6747 12.3965 64.8107 12.6797 65.0828 12.8437C65.3549 13.0226 65.7479 13.112 66.2468 13.112Z" fill="#FAFAFA"/>
<path d="M71.3412 14.1996L74.2889 10.3238L71.447 6.56738H73.3517L75.2412 9.11641L77.1308 6.56738H79.0355L76.2389 10.3238L79.1715 14.1996H77.2517L75.2563 11.5462L73.261 14.1996H71.3412Z" fill="#FAFAFA"/>
<path d="M0 0V1.58692H4.68795L0 6.24277V8.54666L8.61085 0H0Z" fill="#FAFAFA"/>
<path d="M11.5504 0L0 11.4652V13.9317L14.0337 0H11.5504Z" fill="#FAFAFA"/>
<path d="M0 16.7602V18H1.25053L18.1367 1.23544V0H16.8818L0 16.7602Z" fill="#FAFAFA"/>
<path d="M4.09766 17.9998L18.1367 4.06543V6.52931L6.58275 17.9998H4.09766Z" fill="#FAFAFA"/>
<path d="M9.52234 17.9994L18.1367 9.44922V11.7496L13.4435 16.4116L18.1367 16.4081L18.1296 17.9994H9.52234Z" fill="#FAFAFA"/>
</svg>
