<svg width="462" height="233" viewBox="0 0 462 233" fill="none" xmlns="http://www.w3.org/2000/svg">
<g clip-path="url(#clip0_4768_38701)">
<circle cx="231" cy="116" r="52.5" fill="#859BEC" fill-opacity="0.26" stroke="#4967D4" stroke-width="9"/>
<circle cx="231" cy="116" r="61.5" stroke="#859BEC" stroke-width="9"/>
<path d="M251.374 58.4481V89.3268H289.652V81.1245C289.652 71.6531 284.331 63.5439 276.767 60.1484C274.332 59.0557 271.657 58.4481 268.854 58.4481H251.374Z" fill="#D6D6D6"/>
<path d="M198.278 81.3704V174.552H242.261C253.048 174.552 261.793 165.835 261.793 155.084V88.9821H261.7V83.73C261.7 76.7482 264.427 70.4253 268.827 65.8515C271.213 63.3708 274.091 61.4085 277.304 60.1294C275.029 59.0489 272.531 58.4481 269.916 58.4481H220.347C208.156 58.4481 198.278 68.7101 198.278 81.3704Z" fill="white"/>
<path d="M172.348 147.379L172.348 151.975C172.348 160.998 177.133 168.782 184.058 172.396C184.366 172.557 184.679 172.708 184.997 172.859C187.392 173.947 190.014 174.552 192.76 174.552H243.965V174.323C243.734 174.289 243.507 174.245 243.281 174.201C241.831 173.918 240.433 173.459 239.108 172.859C231.682 169.479 226.458 161.408 226.458 151.98V147.384L172.348 147.379Z" fill="#D6D6D6"/>
<rect x="206.922" y="89.3268" width="46.9217" height="3.70544" fill="#D9D9D9"/>
<rect x="206.922" y="100.443" width="46.9217" height="3.70544" fill="#D9D9D9"/>
<rect x="206.922" y="112.795" width="46.9217" height="3.70544" fill="#D9D9D9"/>
<rect x="206.922" y="123.911" width="29.6348" height="3.70544" fill="#D9D9D9"/>
<circle cx="231" cy="116.5" r="170" stroke="#859BEC" stroke-opacity="0.06" stroke-width="80"/>
<circle cx="231" cy="116" r="146.5" stroke="white" stroke-opacity="0.31" stroke-width="3"/>
</g>
<defs>
<clipPath id="clip0_4768_38701">
<rect width="462" height="233" fill="white"/>
</clipPath>
</defs>
</svg>
