<svg width="462" height="233" viewBox="0 0 462 233" fill="none" xmlns="http://www.w3.org/2000/svg">
<g clip-path="url(#clip0_4768_38852)">
<path d="M193.568 114.468C188.733 114.468 184.885 113.309 182.024 110.99C179.163 108.671 177.732 104.996 177.732 99.964V88.642C177.732 87.1127 177.263 85.978 176.326 85.238C175.389 84.498 174.007 84.128 172.182 84.128V73.62C174.007 73.62 175.389 73.25 176.326 72.51C177.263 71.77 177.732 70.6353 177.732 69.106V58.006C177.732 52.974 179.163 49.3233 182.024 47.054C184.885 44.7353 188.733 43.576 193.568 43.576H195.418V53.418H193.568C191.94 53.418 190.756 53.8127 190.016 54.602C189.325 55.3913 188.98 56.5507 188.98 58.08V69.476C188.98 72.3867 188.339 74.5327 187.056 75.914C185.773 77.2953 183.874 78.1093 181.358 78.356V79.392C183.874 79.5893 185.773 80.3787 187.056 81.76C188.339 83.1413 188.98 85.2873 188.98 88.198V99.964C188.98 101.444 189.325 102.579 190.016 103.368C190.756 104.207 191.94 104.626 193.568 104.626H195.418V114.468H193.568ZM213.665 114.468H211.815V104.626H213.665C215.293 104.626 216.452 104.207 217.143 103.368C217.883 102.579 218.253 101.444 218.253 99.964V88.198C218.253 85.2873 218.894 83.1413 220.177 81.76C221.459 80.3787 223.359 79.5893 225.875 79.392V78.356C223.359 78.1093 221.459 77.2953 220.177 75.914C218.894 74.5327 218.253 72.3867 218.253 69.476V58.08C218.253 56.5507 217.883 55.3913 217.143 54.602C216.452 53.8127 215.293 53.418 213.665 53.418H211.815V43.576H213.665C218.499 43.576 222.347 44.7353 225.209 47.054C228.07 49.3233 229.501 52.974 229.501 58.006V69.106C229.501 70.6353 229.969 71.77 230.907 72.51C231.844 73.25 233.225 73.62 235.051 73.62V84.128C233.225 84.128 231.844 84.498 230.907 85.238C229.969 85.978 229.501 87.1127 229.501 88.642V99.964C229.501 104.996 228.07 108.671 225.209 110.99C222.347 113.309 218.499 114.468 213.665 114.468Z" fill="#859BEC" fill-opacity="0.08"/>
<path d="M256.568 193.468C251.733 193.468 247.885 192.309 245.024 189.99C242.163 187.671 240.732 183.996 240.732 178.964V167.642C240.732 166.113 240.263 164.978 239.326 164.238C238.389 163.498 237.007 163.128 235.182 163.128V152.62C237.007 152.62 238.389 152.25 239.326 151.51C240.263 150.77 240.732 149.635 240.732 148.106V137.006C240.732 131.974 242.163 128.323 245.024 126.054C247.885 123.735 251.733 122.576 256.568 122.576H258.418V132.418H256.568C254.94 132.418 253.756 132.813 253.016 133.602C252.325 134.391 251.98 135.551 251.98 137.08V148.476C251.98 151.387 251.339 153.533 250.056 154.914C248.773 156.295 246.874 157.109 244.358 157.356V158.392C246.874 158.589 248.773 159.379 250.056 160.76C251.339 162.141 251.98 164.287 251.98 167.198V178.964C251.98 180.444 252.325 181.579 253.016 182.368C253.756 183.207 254.94 183.626 256.568 183.626H258.418V193.468H256.568ZM276.665 193.468H274.815V183.626H276.665C278.293 183.626 279.452 183.207 280.143 182.368C280.883 181.579 281.253 180.444 281.253 178.964V167.198C281.253 164.287 281.894 162.141 283.177 160.76C284.459 159.379 286.359 158.589 288.875 158.392V157.356C286.359 157.109 284.459 156.295 283.177 154.914C281.894 153.533 281.253 151.387 281.253 148.476V137.08C281.253 135.551 280.883 134.391 280.143 133.602C279.452 132.813 278.293 132.418 276.665 132.418H274.815V122.576H276.665C281.499 122.576 285.347 123.735 288.209 126.054C291.07 128.323 292.501 131.974 292.501 137.006V148.106C292.501 149.635 292.969 150.77 293.907 151.51C294.844 152.25 296.225 152.62 298.051 152.62V163.128C296.225 163.128 294.844 163.498 293.907 164.238C292.969 164.978 292.501 166.113 292.501 167.642V178.964C292.501 183.996 291.07 187.671 288.209 189.99C285.347 192.309 281.499 193.468 276.665 193.468Z" fill="#859BEC" fill-opacity="0.08"/>
<path d="M193.568 193.468C188.733 193.468 184.885 192.309 182.024 189.99C179.163 187.671 177.732 183.996 177.732 178.964V167.642C177.732 166.113 177.263 164.978 176.326 164.238C175.389 163.498 174.007 163.128 172.182 163.128V152.62C174.007 152.62 175.389 152.25 176.326 151.51C177.263 150.77 177.732 149.635 177.732 148.106V137.006C177.732 131.974 179.163 128.323 182.024 126.054C184.885 123.735 188.733 122.576 193.568 122.576H195.418V132.418H193.568C191.94 132.418 190.756 132.813 190.016 133.602C189.325 134.391 188.98 135.551 188.98 137.08V148.476C188.98 151.387 188.339 153.533 187.056 154.914C185.773 156.295 183.874 157.109 181.358 157.356V158.392C183.874 158.589 185.773 159.379 187.056 160.76C188.339 162.141 188.98 164.287 188.98 167.198V178.964C188.98 180.444 189.325 181.579 190.016 182.368C190.756 183.207 191.94 183.626 193.568 183.626H195.418V193.468H193.568ZM213.665 193.468H211.815V183.626H213.665C215.293 183.626 216.452 183.207 217.143 182.368C217.883 181.579 218.253 180.444 218.253 178.964V167.198C218.253 164.287 218.894 162.141 220.177 160.76C221.459 159.379 223.359 158.589 225.875 158.392V157.356C223.359 157.109 221.459 156.295 220.177 154.914C218.894 153.533 218.253 151.387 218.253 148.476V137.08C218.253 135.551 217.883 134.391 217.143 133.602C216.452 132.813 215.293 132.418 213.665 132.418H211.815V122.576H213.665C218.499 122.576 222.347 123.735 225.209 126.054C228.07 128.323 229.501 131.974 229.501 137.006V148.106C229.501 149.635 229.969 150.77 230.907 151.51C231.844 152.25 233.225 152.62 235.051 152.62V163.128C233.225 163.128 231.844 163.498 230.907 164.238C229.969 164.978 229.501 166.113 229.501 167.642V178.964C229.501 183.996 228.07 187.671 225.209 189.99C222.347 192.309 218.499 193.468 213.665 193.468Z" fill="white" fill-opacity="0.87"/>
<path d="M255.568 114.468C250.733 114.468 246.885 113.309 244.024 110.99C241.163 108.671 239.732 104.996 239.732 99.964V88.642C239.732 87.1127 239.263 85.978 238.326 85.238C237.389 84.498 236.007 84.128 234.182 84.128V73.62C236.007 73.62 237.389 73.25 238.326 72.51C239.263 71.77 239.732 70.6353 239.732 69.106V58.006C239.732 52.974 241.163 49.3233 244.024 47.054C246.885 44.7353 250.733 43.576 255.568 43.576H257.418V53.418H255.568C253.94 53.418 252.756 53.8127 252.016 54.602C251.325 55.3913 250.98 56.5507 250.98 58.08V69.476C250.98 72.3867 250.339 74.5327 249.056 75.914C247.773 77.2953 245.874 78.1093 243.358 78.356V79.392C245.874 79.5893 247.773 80.3787 249.056 81.76C250.339 83.1413 250.98 85.2873 250.98 88.198V99.964C250.98 101.444 251.325 102.579 252.016 103.368C252.756 104.207 253.94 104.626 255.568 104.626H257.418V114.468H255.568ZM275.665 114.468H273.815V104.626H275.665C277.293 104.626 278.452 104.207 279.143 103.368C279.883 102.579 280.253 101.444 280.253 99.964V88.198C280.253 85.2873 280.894 83.1413 282.177 81.76C283.459 80.3787 285.359 79.5893 287.875 79.392V78.356C285.359 78.1093 283.459 77.2953 282.177 75.914C280.894 74.5327 280.253 72.3867 280.253 69.476V58.08C280.253 56.5507 279.883 55.3913 279.143 54.602C278.452 53.8127 277.293 53.418 275.665 53.418H273.815V43.576H275.665C280.499 43.576 284.347 44.7353 287.209 47.054C290.07 49.3233 291.501 52.974 291.501 58.006V69.106C291.501 70.6353 291.969 71.77 292.907 72.51C293.844 73.25 295.225 73.62 297.051 73.62V84.128C295.225 84.128 293.844 84.498 292.907 85.238C291.969 85.978 291.501 87.1127 291.501 88.642V99.964C291.501 104.996 290.07 108.671 287.209 110.99C284.347 113.309 280.499 114.468 275.665 114.468Z" fill="white" fill-opacity="0.81"/>
<circle cx="231" cy="116.5" r="200" stroke="#859BEC" stroke-opacity="0.06" stroke-width="20"/>
<circle cx="231" cy="116" r="146.5" stroke="white" stroke-opacity="0.31" stroke-width="3"/>
<path d="M220.568 154.468C215.733 154.468 211.885 153.309 209.024 150.99C206.163 148.671 204.732 144.996 204.732 139.964V128.642C204.732 127.113 204.263 125.978 203.326 125.238C202.389 124.498 201.007 124.128 199.182 124.128V113.62C201.007 113.62 202.389 113.25 203.326 112.51C204.263 111.77 204.732 110.635 204.732 109.106V98.006C204.732 92.974 206.163 89.3233 209.024 87.054C211.885 84.7353 215.733 83.576 220.568 83.576H222.418V93.418H220.568C218.94 93.418 217.756 93.8127 217.016 94.602C216.325 95.3913 215.98 96.5507 215.98 98.08V109.476C215.98 112.387 215.339 114.533 214.056 115.914C212.773 117.295 210.874 118.109 208.358 118.356V119.392C210.874 119.589 212.773 120.379 214.056 121.76C215.339 123.141 215.98 125.287 215.98 128.198V139.964C215.98 141.444 216.325 142.579 217.016 143.368C217.756 144.207 218.94 144.626 220.568 144.626H222.418V154.468H220.568ZM240.665 154.468H238.815V144.626H240.665C242.293 144.626 243.452 144.207 244.143 143.368C244.883 142.579 245.253 141.444 245.253 139.964V128.198C245.253 125.287 245.894 123.141 247.177 121.76C248.459 120.379 250.359 119.589 252.875 119.392V118.356C250.359 118.109 248.459 117.295 247.177 115.914C245.894 114.533 245.253 112.387 245.253 109.476V98.08C245.253 96.5507 244.883 95.3913 244.143 94.602C243.452 93.8127 242.293 93.418 240.665 93.418H238.815V83.576H240.665C245.499 83.576 249.347 84.7353 252.209 87.054C255.07 89.3233 256.501 92.974 256.501 98.006V109.106C256.501 110.635 256.969 111.77 257.907 112.51C258.844 113.25 260.225 113.62 262.051 113.62V124.128C260.225 124.128 258.844 124.498 257.907 125.238C256.969 125.978 256.501 127.113 256.501 128.642V139.964C256.501 144.996 255.07 148.671 252.209 150.99C249.347 153.309 245.499 154.468 240.665 154.468Z" fill="#4967D4"/>
</g>
<defs>
<clipPath id="clip0_4768_38852">
<rect width="462" height="233" fill="white"/>
</clipPath>
</defs>
</svg>
