<svg width="462" height="233" viewBox="0 0 462 233" fill="none" xmlns="http://www.w3.org/2000/svg">
<g clip-path="url(#clip0_4768_38925)">
<circle cx="231" cy="116.5" r="200" stroke="#859BEC" stroke-opacity="0.06" stroke-width="20"/>
<circle cx="231" cy="116" r="146.5" stroke="white" stroke-opacity="0.31" stroke-width="3"/>
<circle cx="231" cy="116" r="91.5" stroke="white" stroke-opacity="0.31" stroke-width="3"/>
<circle cx="231" cy="116" r="101" stroke="white" stroke-opacity="0.31" stroke-width="10"/>
<rect x="135.5" y="55.5" width="202" height="29" rx="5.5" fill="white"/>
<rect x="140" y="60" width="42" height="20" rx="4" fill="#31D87E" fill-opacity="0.35"/>
<path d="M144.923 74V64.9H148.056C148.775 64.9 149.365 65.0213 149.824 65.264C150.292 65.5067 150.639 65.836 150.864 66.252C151.089 66.6593 151.202 67.1143 151.202 67.617C151.202 68.1803 151.05 68.6917 150.747 69.151C150.452 69.6103 149.989 69.9397 149.356 70.139L151.293 74H149.694L147.926 70.334H146.301V74H144.923ZM146.301 69.294H147.978C148.602 69.294 149.057 69.1423 149.343 68.839C149.638 68.5357 149.785 68.1413 149.785 67.656C149.785 67.1707 149.642 66.785 149.356 66.499C149.07 66.2043 148.606 66.057 147.965 66.057H146.301V69.294ZM152.832 74V64.9H158.617V66.018H154.21V68.852H158.227V69.944H154.21V72.882H158.617V74H152.832ZM159.674 74L163.028 64.9H164.536L167.864 74H166.408L165.628 71.777H161.91L161.13 74H159.674ZM162.3 70.685H165.238L163.769 66.538L162.3 70.685ZM169.133 74V64.9H172.084C173.15 64.9 174.025 65.0863 174.71 65.459C175.403 65.8317 175.915 66.3603 176.244 67.045C176.582 67.721 176.751 68.527 176.751 69.463C176.751 70.3903 176.582 71.1963 176.244 71.881C175.915 72.557 175.403 73.0813 174.71 73.454C174.025 73.818 173.15 74 172.084 74H169.133ZM170.511 72.83H172.032C172.855 72.83 173.505 72.6957 173.982 72.427C174.467 72.1583 174.814 71.7727 175.022 71.27C175.239 70.7673 175.347 70.165 175.347 69.463C175.347 68.761 175.239 68.1543 175.022 67.643C174.814 67.1317 174.467 66.7417 173.982 66.473C173.505 66.1957 172.855 66.057 172.032 66.057H170.511V72.83Z" fill="#2D975E"/>
<path d="M193.744 75.192C193.083 75.192 192.533 75.08 192.096 74.856C191.659 74.632 191.333 74.3333 191.12 73.96C190.907 73.5867 190.8 73.1813 190.8 72.744C190.8 71.9333 191.109 71.3093 191.728 70.872C192.347 70.4347 193.189 70.216 194.256 70.216H196.4V70.12C196.4 69.4267 196.219 68.904 195.856 68.552C195.493 68.1893 195.008 68.008 194.4 68.008C193.877 68.008 193.424 68.1413 193.04 68.408C192.667 68.664 192.432 69.0427 192.336 69.544H190.96C191.013 68.968 191.205 68.4827 191.536 68.088C191.877 67.6933 192.299 67.3947 192.8 67.192C193.301 66.9787 193.835 66.872 194.4 66.872C195.509 66.872 196.341 67.1707 196.896 67.768C197.461 68.3547 197.744 69.1387 197.744 70.12V75H196.544L196.464 73.576C196.24 74.024 195.909 74.408 195.472 74.728C195.045 75.0373 194.469 75.192 193.744 75.192ZM193.952 74.056C194.464 74.056 194.901 73.9227 195.264 73.656C195.637 73.3893 195.92 73.0427 196.112 72.616C196.304 72.1893 196.4 71.7413 196.4 71.272V71.256H194.368C193.579 71.256 193.019 71.3947 192.688 71.672C192.368 71.9387 192.208 72.2747 192.208 72.68C192.208 73.096 192.357 73.432 192.656 73.688C192.965 73.9333 193.397 74.056 193.952 74.056ZM199.76 75V63.48H201.104V75H199.76ZM203.307 75V63.48H204.651V75H203.307ZM210.47 75.192C209.723 75.192 209.051 75.0213 208.454 74.68C207.857 74.3387 207.382 73.8587 207.03 73.24C206.689 72.6107 206.518 71.8747 206.518 71.032C206.518 70.1893 206.694 69.4587 207.046 68.84C207.398 68.2107 207.873 67.7253 208.47 67.384C209.078 67.0427 209.755 66.872 210.502 66.872C211.249 66.872 211.921 67.0427 212.518 67.384C213.115 67.7253 213.585 68.2107 213.926 68.84C214.278 69.4587 214.454 70.1893 214.454 71.032C214.454 71.8747 214.278 72.6107 213.926 73.24C213.574 73.8587 213.094 74.3387 212.486 74.68C211.889 75.0213 211.217 75.192 210.47 75.192ZM210.47 74.04C210.929 74.04 211.355 73.928 211.75 73.704C212.145 73.48 212.465 73.144 212.71 72.696C212.955 72.248 213.078 71.6933 213.078 71.032C213.078 70.3707 212.955 69.816 212.71 69.368C212.475 68.92 212.161 68.584 211.766 68.36C211.371 68.136 210.95 68.024 210.502 68.024C210.043 68.024 209.617 68.136 209.222 68.36C208.827 68.584 208.507 68.92 208.262 69.368C208.017 69.816 207.894 70.3707 207.894 71.032C207.894 71.6933 208.017 72.248 208.262 72.696C208.507 73.144 208.822 73.48 209.206 73.704C209.601 73.928 210.022 74.04 210.47 74.04ZM217.626 75L215.306 67.064H216.65L218.33 73.288L220.186 67.064H221.706L223.578 73.288L225.242 67.064H226.602L224.282 75H222.906L220.954 68.456L219.002 75H217.626ZM230.447 75.192C229.786 75.192 229.236 75.08 228.799 74.856C228.362 74.632 228.036 74.3333 227.823 73.96C227.61 73.5867 227.503 73.1813 227.503 72.744C227.503 71.9333 227.812 71.3093 228.431 70.872C229.05 70.4347 229.892 70.216 230.959 70.216H233.103V70.12C233.103 69.4267 232.922 68.904 232.559 68.552C232.196 68.1893 231.711 68.008 231.103 68.008C230.58 68.008 230.127 68.1413 229.743 68.408C229.37 68.664 229.135 69.0427 229.039 69.544H227.663C227.716 68.968 227.908 68.4827 228.239 68.088C228.58 67.6933 229.002 67.3947 229.503 67.192C230.004 66.9787 230.538 66.872 231.103 66.872C232.212 66.872 233.044 67.1707 233.599 67.768C234.164 68.3547 234.447 69.1387 234.447 70.12V75H233.247L233.167 73.576C232.943 74.024 232.612 74.408 232.175 74.728C231.748 75.0373 231.172 75.192 230.447 75.192ZM230.655 74.056C231.167 74.056 231.604 73.9227 231.967 73.656C232.34 73.3893 232.623 73.0427 232.815 72.616C233.007 72.1893 233.103 71.7413 233.103 71.272V71.256H231.071C230.282 71.256 229.722 71.3947 229.391 71.672C229.071 71.9387 228.911 72.2747 228.911 72.68C228.911 73.096 229.06 73.432 229.359 73.688C229.668 73.9333 230.1 74.056 230.655 74.056ZM236.463 75V67.064H237.679L237.759 68.488C238.015 67.9867 238.383 67.592 238.863 67.304C239.343 67.016 239.887 66.872 240.495 66.872C241.434 66.872 242.181 67.16 242.735 67.736C243.301 68.3013 243.583 69.176 243.583 70.36V75H242.239V70.504C242.239 68.8507 241.557 68.024 240.191 68.024C239.509 68.024 238.938 68.2747 238.479 68.776C238.031 69.2667 237.807 69.9707 237.807 70.888V75H236.463ZM249.268 75.192C248.51 75.192 247.828 75.0213 247.22 74.68C246.622 74.328 246.148 73.8427 245.796 73.224C245.454 72.5947 245.284 71.864 245.284 71.032C245.284 70.2 245.454 69.4747 245.796 68.856C246.148 68.2267 246.622 67.7413 247.22 67.4C247.828 67.048 248.51 66.872 249.268 66.872C250.206 66.872 250.996 67.1173 251.636 67.608C252.286 68.0987 252.697 68.7547 252.868 69.576H251.492C251.385 69.0853 251.124 68.7067 250.708 68.44C250.292 68.1627 249.806 68.024 249.252 68.024C248.804 68.024 248.382 68.136 247.988 68.36C247.593 68.584 247.273 68.92 247.028 69.368C246.782 69.816 246.66 70.3707 246.66 71.032C246.66 71.6933 246.782 72.248 247.028 72.696C247.273 73.144 247.593 73.4853 247.988 73.72C248.382 73.944 248.804 74.056 249.252 74.056C249.806 74.056 250.292 73.9227 250.708 73.656C251.124 73.3787 251.385 72.9893 251.492 72.488H252.868C252.708 73.288 252.302 73.9387 251.652 74.44C251.001 74.9413 250.206 75.192 249.268 75.192ZM258.313 75.192C257.555 75.192 256.883 75.0213 256.297 74.68C255.71 74.328 255.246 73.8427 254.905 73.224C254.574 72.6053 254.409 71.8747 254.409 71.032C254.409 70.2 254.574 69.4747 254.905 68.856C255.235 68.2267 255.694 67.7413 256.281 67.4C256.878 67.048 257.566 66.872 258.345 66.872C259.113 66.872 259.774 67.048 260.329 67.4C260.894 67.7413 261.326 68.1947 261.625 68.76C261.923 69.3253 262.073 69.9333 262.073 70.584C262.073 70.7013 262.067 70.8187 262.057 70.936C262.057 71.0533 262.057 71.1867 262.057 71.336H255.737C255.769 71.944 255.907 72.4507 256.153 72.856C256.409 73.2507 256.723 73.5493 257.097 73.752C257.481 73.9547 257.886 74.056 258.313 74.056C258.867 74.056 259.331 73.928 259.705 73.672C260.078 73.416 260.35 73.0693 260.521 72.632H261.849C261.635 73.368 261.225 73.9813 260.617 74.472C260.019 74.952 259.251 75.192 258.313 75.192ZM258.313 68.008C257.673 68.008 257.102 68.2053 256.601 68.6C256.11 68.984 255.827 69.5493 255.753 70.296H260.745C260.713 69.5813 260.467 69.0213 260.009 68.616C259.55 68.2107 258.985 68.008 258.313 68.008Z" fill="#A5A7AD"/>
<path d="M319.175 72.8416L323 69.0249L326.825 72.8416L328 71.6666L323 66.6666L318 71.6666L319.175 72.8416Z" fill="#AEB0B6"/>
<rect x="135.5" y="55.5" width="202" height="29" rx="5.5" stroke="#C5C8CF"/>
<g filter="url(#filter0_d_4768_38925)">
<rect x="135" y="93" width="203" height="86" rx="6" fill="white" shape-rendering="crispEdges"/>
<rect x="140" y="98" width="42" height="20" rx="4" fill="#31D87E" fill-opacity="0.35"/>
<path d="M144.923 112V102.9H148.056C148.775 102.9 149.365 103.021 149.824 103.264C150.292 103.507 150.639 103.836 150.864 104.252C151.089 104.659 151.202 105.114 151.202 105.617C151.202 106.18 151.05 106.692 150.747 107.151C150.452 107.61 149.989 107.94 149.356 108.139L151.293 112H149.694L147.926 108.334H146.301V112H144.923ZM146.301 107.294H147.978C148.602 107.294 149.057 107.142 149.343 106.839C149.638 106.536 149.785 106.141 149.785 105.656C149.785 105.171 149.642 104.785 149.356 104.499C149.07 104.204 148.606 104.057 147.965 104.057H146.301V107.294ZM152.832 112V102.9H158.617V104.018H154.21V106.852H158.227V107.944H154.21V110.882H158.617V112H152.832ZM159.674 112L163.028 102.9H164.536L167.864 112H166.408L165.628 109.777H161.91L161.13 112H159.674ZM162.3 108.685H165.238L163.769 104.538L162.3 108.685ZM169.133 112V102.9H172.084C173.15 102.9 174.025 103.086 174.71 103.459C175.403 103.832 175.915 104.36 176.244 105.045C176.582 105.721 176.751 106.527 176.751 107.463C176.751 108.39 176.582 109.196 176.244 109.881C175.915 110.557 175.403 111.081 174.71 111.454C174.025 111.818 173.15 112 172.084 112H169.133ZM170.511 110.83H172.032C172.855 110.83 173.505 110.696 173.982 110.427C174.467 110.158 174.814 109.773 175.022 109.27C175.239 108.767 175.347 108.165 175.347 107.463C175.347 106.761 175.239 106.154 175.022 105.643C174.814 105.132 174.467 104.742 173.982 104.473C173.505 104.196 172.855 104.057 172.032 104.057H170.511V110.83Z" fill="#2D975E"/>
<path d="M195.344 113.192C194.693 113.192 194.112 113.059 193.6 112.792C193.099 112.525 192.715 112.152 192.448 111.672L192.32 113H191.104V101.48H192.448V106.376C192.704 105.992 193.067 105.645 193.536 105.336C194.016 105.027 194.624 104.872 195.36 104.872C196.149 104.872 196.837 105.053 197.424 105.416C198.011 105.779 198.464 106.275 198.784 106.904C199.115 107.533 199.28 108.248 199.28 109.048C199.28 109.848 199.115 110.563 198.784 111.192C198.464 111.811 198.005 112.301 197.408 112.664C196.821 113.016 196.133 113.192 195.344 113.192ZM195.2 112.024C195.733 112.024 196.203 111.901 196.608 111.656C197.013 111.4 197.333 111.048 197.568 110.6C197.803 110.152 197.92 109.629 197.92 109.032C197.92 108.435 197.803 107.912 197.568 107.464C197.333 107.016 197.013 106.669 196.608 106.424C196.203 106.168 195.733 106.04 195.2 106.04C194.667 106.04 194.197 106.168 193.792 106.424C193.387 106.669 193.067 107.016 192.832 107.464C192.597 107.912 192.48 108.435 192.48 109.032C192.48 109.629 192.597 110.152 192.832 110.6C193.067 111.048 193.387 111.4 193.792 111.656C194.197 111.901 194.667 112.024 195.2 112.024ZM203.791 113.192C203.13 113.192 202.58 113.08 202.143 112.856C201.706 112.632 201.38 112.333 201.167 111.96C200.954 111.587 200.847 111.181 200.847 110.744C200.847 109.933 201.156 109.309 201.775 108.872C202.394 108.435 203.236 108.216 204.303 108.216H206.447V108.12C206.447 107.427 206.266 106.904 205.903 106.552C205.54 106.189 205.055 106.008 204.447 106.008C203.924 106.008 203.471 106.141 203.087 106.408C202.714 106.664 202.479 107.043 202.383 107.544H201.007C201.06 106.968 201.252 106.483 201.583 106.088C201.924 105.693 202.346 105.395 202.847 105.192C203.348 104.979 203.882 104.872 204.447 104.872C205.556 104.872 206.388 105.171 206.943 105.768C207.508 106.355 207.791 107.139 207.791 108.12V113H206.591L206.511 111.576C206.287 112.024 205.956 112.408 205.519 112.728C205.092 113.037 204.516 113.192 203.791 113.192ZM203.999 112.056C204.511 112.056 204.948 111.923 205.311 111.656C205.684 111.389 205.967 111.043 206.159 110.616C206.351 110.189 206.447 109.741 206.447 109.272V109.256H204.415C203.626 109.256 203.066 109.395 202.735 109.672C202.415 109.939 202.255 110.275 202.255 110.68C202.255 111.096 202.404 111.432 202.703 111.688C203.012 111.933 203.444 112.056 203.999 112.056ZM209.807 113V101.48H211.151V113H209.807ZM215.994 113.192C215.333 113.192 214.783 113.08 214.346 112.856C213.909 112.632 213.583 112.333 213.37 111.96C213.157 111.587 213.05 111.181 213.05 110.744C213.05 109.933 213.359 109.309 213.978 108.872C214.597 108.435 215.439 108.216 216.506 108.216H218.65V108.12C218.65 107.427 218.469 106.904 218.106 106.552C217.743 106.189 217.258 106.008 216.65 106.008C216.127 106.008 215.674 106.141 215.29 106.408C214.917 106.664 214.682 107.043 214.586 107.544H213.21C213.263 106.968 213.455 106.483 213.786 106.088C214.127 105.693 214.549 105.395 215.05 105.192C215.551 104.979 216.085 104.872 216.65 104.872C217.759 104.872 218.591 105.171 219.146 105.768C219.711 106.355 219.994 107.139 219.994 108.12V113H218.794L218.714 111.576C218.49 112.024 218.159 112.408 217.722 112.728C217.295 113.037 216.719 113.192 215.994 113.192ZM216.202 112.056C216.714 112.056 217.151 111.923 217.514 111.656C217.887 111.389 218.17 111.043 218.362 110.616C218.554 110.189 218.65 109.741 218.65 109.272V109.256H216.618C215.829 109.256 215.269 109.395 214.938 109.672C214.618 109.939 214.458 110.275 214.458 110.68C214.458 111.096 214.607 111.432 214.906 111.688C215.215 111.933 215.647 112.056 216.202 112.056ZM222.01 113V105.064H223.226L223.306 106.488C223.562 105.987 223.93 105.592 224.41 105.304C224.89 105.016 225.434 104.872 226.042 104.872C226.981 104.872 227.728 105.16 228.282 105.736C228.848 106.301 229.13 107.176 229.13 108.36V113H227.786V108.504C227.786 106.851 227.104 106.024 225.738 106.024C225.056 106.024 224.485 106.275 224.026 106.776C223.578 107.267 223.354 107.971 223.354 108.888V113H222.01ZM234.815 113.192C234.057 113.192 233.375 113.021 232.767 112.68C232.169 112.328 231.695 111.843 231.343 111.224C231.001 110.595 230.831 109.864 230.831 109.032C230.831 108.2 231.001 107.475 231.343 106.856C231.695 106.227 232.169 105.741 232.767 105.4C233.375 105.048 234.057 104.872 234.815 104.872C235.753 104.872 236.543 105.117 237.183 105.608C237.833 106.099 238.244 106.755 238.415 107.576H237.039C236.932 107.085 236.671 106.707 236.255 106.44C235.839 106.163 235.353 106.024 234.799 106.024C234.351 106.024 233.929 106.136 233.535 106.36C233.14 106.584 232.82 106.92 232.575 107.368C232.329 107.816 232.207 108.371 232.207 109.032C232.207 109.693 232.329 110.248 232.575 110.696C232.82 111.144 233.14 111.485 233.535 111.72C233.929 111.944 234.351 112.056 234.799 112.056C235.353 112.056 235.839 111.923 236.255 111.656C236.671 111.379 236.932 110.989 237.039 110.488H238.415C238.255 111.288 237.849 111.939 237.199 112.44C236.548 112.941 235.753 113.192 234.815 113.192ZM243.86 113.192C243.102 113.192 242.43 113.021 241.844 112.68C241.257 112.328 240.793 111.843 240.452 111.224C240.121 110.605 239.956 109.875 239.956 109.032C239.956 108.2 240.121 107.475 240.452 106.856C240.782 106.227 241.241 105.741 241.828 105.4C242.425 105.048 243.113 104.872 243.891 104.872C244.66 104.872 245.321 105.048 245.876 105.4C246.441 105.741 246.873 106.195 247.172 106.76C247.47 107.325 247.62 107.933 247.62 108.584C247.62 108.701 247.614 108.819 247.604 108.936C247.604 109.053 247.604 109.187 247.604 109.336H241.284C241.316 109.944 241.454 110.451 241.7 110.856C241.956 111.251 242.27 111.549 242.644 111.752C243.028 111.955 243.433 112.056 243.86 112.056C244.414 112.056 244.878 111.928 245.252 111.672C245.625 111.416 245.897 111.069 246.068 110.632H247.396C247.182 111.368 246.772 111.981 246.164 112.472C245.566 112.952 244.798 113.192 243.86 113.192ZM243.86 106.008C243.22 106.008 242.649 106.205 242.148 106.6C241.657 106.984 241.374 107.549 241.299 108.296H246.292C246.26 107.581 246.014 107.021 245.556 106.616C245.097 106.211 244.532 106.008 243.86 106.008Z" fill="#A5A7AD"/>
<rect x="140" y="126" width="42" height="20" rx="4" fill="#31D87E" fill-opacity="0.35"/>
<path d="M144.923 140V130.9H148.056C148.775 130.9 149.365 131.021 149.824 131.264C150.292 131.507 150.639 131.836 150.864 132.252C151.089 132.659 151.202 133.114 151.202 133.617C151.202 134.18 151.05 134.692 150.747 135.151C150.452 135.61 149.989 135.94 149.356 136.139L151.293 140H149.694L147.926 136.334H146.301V140H144.923ZM146.301 135.294H147.978C148.602 135.294 149.057 135.142 149.343 134.839C149.638 134.536 149.785 134.141 149.785 133.656C149.785 133.171 149.642 132.785 149.356 132.499C149.07 132.204 148.606 132.057 147.965 132.057H146.301V135.294ZM152.832 140V130.9H158.617V132.018H154.21V134.852H158.227V135.944H154.21V138.882H158.617V140H152.832ZM159.674 140L163.028 130.9H164.536L167.864 140H166.408L165.628 137.777H161.91L161.13 140H159.674ZM162.3 136.685H165.238L163.769 132.538L162.3 136.685ZM169.133 140V130.9H172.084C173.15 130.9 174.025 131.086 174.71 131.459C175.403 131.832 175.915 132.36 176.244 133.045C176.582 133.721 176.751 134.527 176.751 135.463C176.751 136.39 176.582 137.196 176.244 137.881C175.915 138.557 175.403 139.081 174.71 139.454C174.025 139.818 173.15 140 172.084 140H169.133ZM170.511 138.83H172.032C172.855 138.83 173.505 138.696 173.982 138.427C174.467 138.158 174.814 137.773 175.022 137.27C175.239 136.767 175.347 136.165 175.347 135.463C175.347 134.761 175.239 134.154 175.022 133.643C174.814 133.132 174.467 132.742 173.982 132.473C173.505 132.196 172.855 132.057 172.032 132.057H170.511V138.83Z" fill="#2D975E"/>
<path d="M194.72 141.192C193.973 141.192 193.301 141.021 192.704 140.68C192.107 140.339 191.632 139.859 191.28 139.24C190.939 138.611 190.768 137.875 190.768 137.032C190.768 136.189 190.944 135.459 191.296 134.84C191.648 134.211 192.123 133.725 192.72 133.384C193.328 133.043 194.005 132.872 194.752 132.872C195.499 132.872 196.171 133.043 196.768 133.384C197.365 133.725 197.835 134.211 198.176 134.84C198.528 135.459 198.704 136.189 198.704 137.032C198.704 137.875 198.528 138.611 198.176 139.24C197.824 139.859 197.344 140.339 196.736 140.68C196.139 141.021 195.467 141.192 194.72 141.192ZM194.72 140.04C195.179 140.04 195.605 139.928 196 139.704C196.395 139.48 196.715 139.144 196.96 138.696C197.205 138.248 197.328 137.693 197.328 137.032C197.328 136.371 197.205 135.816 196.96 135.368C196.725 134.92 196.411 134.584 196.016 134.36C195.621 134.136 195.2 134.024 194.752 134.024C194.293 134.024 193.867 134.136 193.472 134.36C193.077 134.584 192.757 134.92 192.512 135.368C192.267 135.816 192.144 136.371 192.144 137.032C192.144 137.693 192.267 138.248 192.512 138.696C192.757 139.144 193.072 139.48 193.456 139.704C193.851 139.928 194.272 140.04 194.72 140.04ZM201.876 141L199.556 133.064H200.9L202.58 139.288L204.436 133.064H205.956L207.828 139.288L209.492 133.064H210.852L208.532 141H207.156L205.204 134.456L203.252 141H201.876ZM212.338 141V133.064H213.554L213.634 134.488C213.89 133.987 214.258 133.592 214.738 133.304C215.218 133.016 215.762 132.872 216.37 132.872C217.309 132.872 218.056 133.16 218.61 133.736C219.176 134.301 219.458 135.176 219.458 136.36V141H218.114V136.504C218.114 134.851 217.432 134.024 216.066 134.024C215.384 134.024 214.813 134.275 214.354 134.776C213.906 135.267 213.682 135.971 213.682 136.888V141H212.338ZM225.063 141.192C224.305 141.192 223.633 141.021 223.047 140.68C222.46 140.328 221.996 139.843 221.655 139.224C221.324 138.605 221.159 137.875 221.159 137.032C221.159 136.2 221.324 135.475 221.655 134.856C221.985 134.227 222.444 133.741 223.031 133.4C223.628 133.048 224.316 132.872 225.095 132.872C225.863 132.872 226.524 133.048 227.079 133.4C227.644 133.741 228.076 134.195 228.375 134.76C228.673 135.325 228.823 135.933 228.823 136.584C228.823 136.701 228.817 136.819 228.807 136.936C228.807 137.053 228.807 137.187 228.807 137.336H222.487C222.519 137.944 222.657 138.451 222.903 138.856C223.159 139.251 223.473 139.549 223.847 139.752C224.231 139.955 224.636 140.056 225.063 140.056C225.617 140.056 226.081 139.928 226.455 139.672C226.828 139.416 227.1 139.069 227.271 138.632H228.599C228.385 139.368 227.975 139.981 227.367 140.472C226.769 140.952 226.001 141.192 225.063 141.192ZM225.063 134.008C224.423 134.008 223.852 134.205 223.351 134.6C222.86 134.984 222.577 135.549 222.503 136.296H227.495C227.463 135.581 227.217 135.021 226.759 134.616C226.3 134.211 225.735 134.008 225.063 134.008ZM230.604 141V133.064H231.82L231.932 134.584C232.177 134.061 232.551 133.645 233.052 133.336C233.553 133.027 234.172 132.872 234.908 132.872V134.28H234.54C234.071 134.28 233.639 134.365 233.244 134.536C232.849 134.696 232.535 134.973 232.3 135.368C232.065 135.763 231.948 136.307 231.948 137V141H230.604Z" fill="#A5A7AD"/>
<rect x="140" y="154" width="47" height="20" rx="4" fill="#DD3250" fill-opacity="0.35"/>
<path d="M146.782 168.013L144.325 158.9H145.807L147.614 166.44L149.694 158.9H151.215L153.23 166.44L155.037 158.9H156.519L154.023 168H152.411L150.422 160.863L148.368 168L146.782 168.013ZM157.783 168V158.9H160.916C161.636 158.9 162.225 159.021 162.684 159.264C163.152 159.507 163.499 159.836 163.724 160.252C163.95 160.659 164.062 161.114 164.062 161.617C164.062 162.18 163.911 162.692 163.607 163.151C163.313 163.61 162.849 163.94 162.216 164.139L164.153 168H162.554L160.786 164.334H159.161V168H157.783ZM159.161 163.294H160.838C161.462 163.294 161.917 163.142 162.203 162.839C162.498 162.536 162.645 162.141 162.645 161.656C162.645 161.171 162.502 160.785 162.216 160.499C161.93 160.204 161.467 160.057 160.825 160.057H159.161V163.294ZM165.693 168V158.9H167.071V168H165.693ZM171.049 168V160.018H168.358V158.9H175.105V160.018H172.427V168H171.049ZM176.395 168V158.9H182.18V160.018H177.773V162.852H181.79V163.944H177.773V166.882H182.18V168H176.395Z" fill="#C41E3C"/>
<rect x="195" y="154" width="61" height="20" rx="4" fill="#7D32DD" fill-opacity="0.35"/>
<path d="M199.923 168V158.9H203.108C203.819 158.9 204.408 159.021 204.876 159.264C205.344 159.498 205.691 159.823 205.916 160.239C206.15 160.646 206.267 161.11 206.267 161.63C206.267 162.124 206.154 162.579 205.929 162.995C205.712 163.402 205.37 163.727 204.902 163.97C204.434 164.213 203.836 164.334 203.108 164.334H201.301V168H199.923ZM201.301 163.203H203.043C203.693 163.203 204.157 163.064 204.434 162.787C204.72 162.501 204.863 162.115 204.863 161.63C204.863 161.127 204.72 160.737 204.434 160.46C204.157 160.174 203.693 160.031 203.043 160.031H201.301V163.203ZM205.99 168L209.344 158.9H210.852L214.18 168H212.724L211.944 165.777H208.226L207.446 168H205.99ZM208.616 164.685H211.554L210.085 160.538L208.616 164.685ZM216.76 168V164.646L213.744 158.9H215.304L217.449 163.294L219.581 158.9H221.128L218.138 164.646V168H216.76ZM220.679 168L224.033 158.9H225.541L228.869 168H227.413L226.633 165.777H222.915L222.135 168H220.679ZM223.305 164.685H226.243L224.774 160.538L223.305 164.685ZM230.138 168V158.9H233.57C234.515 158.9 235.23 159.121 235.715 159.563C236.2 160.005 236.443 160.56 236.443 161.227C236.443 161.808 236.287 162.271 235.975 162.618C235.663 162.956 235.286 163.186 234.844 163.307C235.191 163.376 235.498 163.515 235.767 163.723C236.044 163.931 236.261 164.191 236.417 164.503C236.573 164.815 236.651 165.153 236.651 165.517C236.651 165.985 236.534 166.41 236.3 166.791C236.075 167.164 235.741 167.458 235.299 167.675C234.857 167.892 234.315 168 233.674 168H230.138ZM231.516 162.8H233.401C233.93 162.8 234.333 162.679 234.61 162.436C234.887 162.185 235.026 161.842 235.026 161.409C235.026 160.984 234.887 160.646 234.61 160.395C234.341 160.144 233.93 160.018 233.375 160.018H231.516V162.8ZM231.516 166.869H233.492C234.047 166.869 234.476 166.739 234.779 166.479C235.091 166.219 235.247 165.855 235.247 165.387C235.247 164.919 235.087 164.551 234.766 164.282C234.445 164.005 234.012 163.866 233.466 163.866H231.516V166.869ZM238.161 168V158.9H239.539V166.908H243.673V168H238.161ZM245.156 168V158.9H250.941V160.018H246.534V162.852H250.551V163.944H246.534V166.882H250.941V168H245.156Z" fill="#5D1EC4"/>
<path d="M268.704 169.192C267.915 169.192 267.221 169.011 266.624 168.648C266.037 168.285 265.579 167.789 265.248 167.16C264.928 166.531 264.768 165.816 264.768 165.016C264.768 164.216 264.933 163.507 265.264 162.888C265.595 162.259 266.053 161.768 266.64 161.416C267.227 161.053 267.92 160.872 268.72 160.872C269.371 160.872 269.947 161.005 270.448 161.272C270.949 161.539 271.339 161.912 271.616 162.392V157.48H272.96V169H271.744L271.616 167.688C271.36 168.072 270.992 168.419 270.512 168.728C270.032 169.037 269.429 169.192 268.704 169.192ZM268.848 168.024C269.381 168.024 269.851 167.901 270.256 167.656C270.672 167.4 270.992 167.048 271.216 166.6C271.451 166.152 271.568 165.629 271.568 165.032C271.568 164.435 271.451 163.912 271.216 163.464C270.992 163.016 270.672 162.669 270.256 162.424C269.851 162.168 269.381 162.04 268.848 162.04C268.325 162.04 267.856 162.168 267.44 162.424C267.035 162.669 266.715 163.016 266.48 163.464C266.256 163.912 266.144 164.435 266.144 165.032C266.144 165.629 266.256 166.152 266.48 166.6C266.715 167.048 267.035 167.4 267.44 167.656C267.856 167.901 268.325 168.024 268.848 168.024ZM278.719 169.192C277.962 169.192 277.29 169.021 276.703 168.68C276.116 168.328 275.652 167.843 275.311 167.224C274.98 166.605 274.815 165.875 274.815 165.032C274.815 164.2 274.98 163.475 275.311 162.856C275.642 162.227 276.1 161.741 276.687 161.4C277.284 161.048 277.972 160.872 278.751 160.872C279.519 160.872 280.18 161.048 280.735 161.4C281.3 161.741 281.732 162.195 282.031 162.76C282.33 163.325 282.479 163.933 282.479 164.584C282.479 164.701 282.474 164.819 282.463 164.936C282.463 165.053 282.463 165.187 282.463 165.336H276.143C276.175 165.944 276.314 166.451 276.559 166.856C276.815 167.251 277.13 167.549 277.503 167.752C277.887 167.955 278.292 168.056 278.719 168.056C279.274 168.056 279.738 167.928 280.111 167.672C280.484 167.416 280.756 167.069 280.927 166.632H282.255C282.042 167.368 281.631 167.981 281.023 168.472C280.426 168.952 279.658 169.192 278.719 169.192ZM278.719 162.008C278.079 162.008 277.508 162.205 277.007 162.6C276.516 162.984 276.234 163.549 276.159 164.296H281.151C281.119 163.581 280.874 163.021 280.415 162.616C279.956 162.211 279.391 162.008 278.719 162.008ZM284.26 172.52V161.064H285.476L285.604 162.376C285.86 161.992 286.223 161.645 286.692 161.336C287.172 161.027 287.78 160.872 288.516 160.872C289.306 160.872 289.994 161.053 290.58 161.416C291.167 161.779 291.62 162.275 291.94 162.904C292.271 163.533 292.436 164.248 292.436 165.048C292.436 165.848 292.271 166.563 291.94 167.192C291.62 167.811 291.162 168.301 290.564 168.664C289.978 169.016 289.29 169.192 288.5 169.192C287.85 169.192 287.268 169.059 286.756 168.792C286.255 168.525 285.871 168.152 285.604 167.672V172.52H284.26ZM288.356 168.024C288.89 168.024 289.359 167.901 289.764 167.656C290.17 167.4 290.49 167.048 290.724 166.6C290.959 166.152 291.076 165.629 291.076 165.032C291.076 164.435 290.959 163.912 290.724 163.464C290.49 163.016 290.17 162.669 289.764 162.424C289.359 162.168 288.89 162.04 288.356 162.04C287.823 162.04 287.354 162.168 286.948 162.424C286.543 162.669 286.223 163.016 285.988 163.464C285.754 163.912 285.636 164.435 285.636 165.032C285.636 165.629 285.754 166.152 285.988 166.6C286.223 167.048 286.543 167.4 286.948 167.656C287.354 167.901 287.823 168.024 288.356 168.024ZM297.923 169.192C297.176 169.192 296.504 169.021 295.907 168.68C295.31 168.339 294.835 167.859 294.483 167.24C294.142 166.611 293.971 165.875 293.971 165.032C293.971 164.189 294.147 163.459 294.499 162.84C294.851 162.211 295.326 161.725 295.923 161.384C296.531 161.043 297.208 160.872 297.955 160.872C298.702 160.872 299.374 161.043 299.971 161.384C300.568 161.725 301.038 162.211 301.379 162.84C301.731 163.459 301.907 164.189 301.907 165.032C301.907 165.875 301.731 166.611 301.379 167.24C301.027 167.859 300.547 168.339 299.939 168.68C299.342 169.021 298.67 169.192 297.923 169.192ZM297.923 168.04C298.382 168.04 298.808 167.928 299.203 167.704C299.598 167.48 299.918 167.144 300.163 166.696C300.408 166.248 300.531 165.693 300.531 165.032C300.531 164.371 300.408 163.816 300.163 163.368C299.928 162.92 299.614 162.584 299.219 162.36C298.824 162.136 298.403 162.024 297.955 162.024C297.496 162.024 297.07 162.136 296.675 162.36C296.28 162.584 295.96 162.92 295.715 163.368C295.47 163.816 295.347 164.371 295.347 165.032C295.347 165.693 295.47 166.248 295.715 166.696C295.96 167.144 296.275 167.48 296.659 167.704C297.054 167.928 297.475 168.04 297.923 168.04ZM306.816 169.192C305.867 169.192 305.077 168.952 304.448 168.472C303.819 167.992 303.451 167.341 303.344 166.52H304.72C304.805 166.936 305.024 167.299 305.376 167.608C305.739 167.907 306.224 168.056 306.832 168.056C307.397 168.056 307.813 167.939 308.08 167.704C308.347 167.459 308.48 167.171 308.48 166.84C308.48 166.36 308.304 166.04 307.952 165.88C307.611 165.72 307.125 165.576 306.496 165.448C306.069 165.363 305.643 165.24 305.216 165.08C304.789 164.92 304.432 164.696 304.144 164.408C303.856 164.109 303.712 163.72 303.712 163.24C303.712 162.547 303.968 161.981 304.48 161.544C305.003 161.096 305.707 160.872 306.592 160.872C307.435 160.872 308.123 161.085 308.656 161.512C309.2 161.928 309.515 162.525 309.6 163.304H308.272C308.219 162.899 308.043 162.584 307.744 162.36C307.456 162.125 307.067 162.008 306.576 162.008C306.096 162.008 305.723 162.109 305.456 162.312C305.2 162.515 305.072 162.781 305.072 163.112C305.072 163.432 305.237 163.683 305.568 163.864C305.909 164.045 306.368 164.2 306.944 164.328C307.435 164.435 307.899 164.568 308.336 164.728C308.784 164.877 309.147 165.107 309.424 165.416C309.712 165.715 309.856 166.152 309.856 166.728C309.867 167.443 309.595 168.035 309.04 168.504C308.496 168.963 307.755 169.192 306.816 169.192ZM312.592 159.304C312.325 159.304 312.101 159.219 311.92 159.048C311.749 158.867 311.664 158.643 311.664 158.376C311.664 158.12 311.749 157.907 311.92 157.736C312.101 157.565 312.325 157.48 312.592 157.48C312.848 157.48 313.067 157.565 313.248 157.736C313.429 157.907 313.52 158.12 313.52 158.376C313.52 158.643 313.429 158.867 313.248 159.048C313.067 159.219 312.848 159.304 312.592 159.304ZM311.92 169V161.064H313.264V169H311.92ZM318.74 169C318.015 169 317.444 168.824 317.028 168.472C316.612 168.12 316.404 167.485 316.404 166.568V162.2H315.028V161.064H316.404L316.58 159.16H317.748V161.064H320.084V162.2H317.748V166.568C317.748 167.069 317.849 167.411 318.052 167.592C318.255 167.763 318.612 167.848 319.124 167.848H319.956V169H318.74Z" fill="#A5A7AD"/>
</g>
</g>
<defs>
<filter id="filter0_d_4768_38925" x="35" y="41" width="403" height="286" filterUnits="userSpaceOnUse" color-interpolation-filters="sRGB">
<feFlood flood-opacity="0" result="BackgroundImageFix"/>
<feColorMatrix in="SourceAlpha" type="matrix" values="0 0 0 0 0 0 0 0 0 0 0 0 0 0 0 0 0 0 127 0" result="hardAlpha"/>
<feOffset dy="48"/>
<feGaussianBlur stdDeviation="50"/>
<feComposite in2="hardAlpha" operator="out"/>
<feColorMatrix type="matrix" values="0 0 0 0 0.0666667 0 0 0 0 0.0470588 0 0 0 0 0.180392 0 0 0 0.15 0"/>
<feBlend mode="normal" in2="BackgroundImageFix" result="effect1_dropShadow_4768_38925"/>
<feBlend mode="normal" in="SourceGraphic" in2="effect1_dropShadow_4768_38925" result="shape"/>
</filter>
<clipPath id="clip0_4768_38925">
<rect width="462" height="233" fill="white"/>
</clipPath>
</defs>
</svg>
