<svg width="462" height="233" viewBox="0 0 462 233" fill="none" xmlns="http://www.w3.org/2000/svg">
<g clip-path="url(#clip0_4768_39056)">
<circle cx="231" cy="116.5" r="200" stroke="#859BEC" stroke-opacity="0.06" stroke-width="20"/>
<circle cx="231" cy="116" r="146.5" stroke="white" stroke-opacity="0.31" stroke-width="3"/>
<circle cx="231" cy="116" r="91.5" stroke="white" stroke-opacity="0.31" stroke-width="3"/>
<circle cx="231" cy="116" r="101" stroke="white" stroke-opacity="0.31" stroke-width="10"/>
<path d="M105.744 63.26L110.588 51.36H111.82L106.962 63.26H105.744ZM114.139 63.26L118.983 51.36H120.215L115.357 63.26H114.139ZM130.466 62V52.2H131.726L133.966 56.862L136.206 52.2H137.466V62H136.318V54.468L134.414 58.43H133.518L131.614 54.482V62H130.466ZM142.43 62.168C141.777 62.168 141.198 62.0187 140.694 61.72C140.199 61.412 139.807 60.9873 139.518 60.446C139.229 59.8953 139.084 59.256 139.084 58.528C139.084 57.8 139.224 57.1653 139.504 56.624C139.793 56.0733 140.19 55.6487 140.694 55.35C141.198 55.042 141.786 54.888 142.458 54.888C143.13 54.888 143.704 55.042 144.18 55.35C144.656 55.6487 145.02 56.0453 145.272 56.54C145.524 57.0347 145.65 57.5667 145.65 58.136C145.65 58.2387 145.645 58.3413 145.636 58.444C145.636 58.5467 145.636 58.6633 145.636 58.794H140.246C140.274 59.3073 140.391 59.7367 140.596 60.082C140.811 60.418 141.077 60.67 141.394 60.838C141.721 61.006 142.066 61.09 142.43 61.09C142.943 61.09 143.345 60.9827 143.634 60.768C143.923 60.5533 144.143 60.2547 144.292 59.872H145.454C145.295 60.516 144.964 61.062 144.46 61.51C143.956 61.9487 143.279 62.168 142.43 62.168ZM142.43 55.938C141.889 55.938 141.413 56.1013 141.002 56.428C140.601 56.7547 140.353 57.212 140.26 57.8H144.488C144.451 57.2213 144.241 56.7687 143.858 56.442C143.485 56.106 143.009 55.938 142.43 55.938ZM151.483 62C150.848 62 150.349 61.846 149.985 61.538C149.621 61.23 149.439 60.6747 149.439 59.872V56.064H147.675V55.056H148.725C149.201 55.056 149.476 54.8227 149.551 54.356L149.747 53.278H150.615V55.056H153.387V56.064H150.615V59.872C150.615 60.264 150.703 60.5393 150.881 60.698C151.067 60.8567 151.385 60.936 151.833 60.936H153.387V62H151.483ZM156.111 62V51.92H157.287V56.106C157.474 55.7513 157.782 55.462 158.211 55.238C158.641 55.0047 159.112 54.888 159.625 54.888C160.475 54.888 161.119 55.1447 161.557 55.658C162.005 56.1713 162.229 56.89 162.229 57.814V62H161.053V57.968C161.053 57.3427 160.899 56.8573 160.591 56.512C160.293 56.1667 159.873 55.994 159.331 55.994C158.958 55.994 158.617 56.078 158.309 56.246C158.001 56.414 157.754 56.6613 157.567 56.988C157.381 57.3147 157.287 57.716 157.287 58.192V62H156.111ZM167.544 62.168C166.89 62.168 166.312 62.0187 165.808 61.72C165.304 61.4213 164.907 61.0013 164.618 60.46C164.328 59.9093 164.184 59.2653 164.184 58.528C164.184 57.7907 164.328 57.1513 164.618 56.61C164.907 56.0593 165.304 55.6347 165.808 55.336C166.312 55.0373 166.89 54.888 167.544 54.888C168.197 54.888 168.776 55.0373 169.28 55.336C169.784 55.6347 170.18 56.0593 170.47 56.61C170.759 57.1513 170.904 57.7907 170.904 58.528C170.904 59.2653 170.759 59.9093 170.47 60.46C170.18 61.0013 169.784 61.4213 169.28 61.72C168.776 62.0187 168.197 62.168 167.544 62.168ZM167.544 61.048C167.945 61.048 168.309 60.9593 168.636 60.782C168.962 60.6047 169.219 60.3293 169.406 59.956C169.602 59.5827 169.7 59.1067 169.7 58.528C169.7 57.9493 169.602 57.4733 169.406 57.1C169.219 56.7267 168.962 56.4513 168.636 56.274C168.309 56.0967 167.945 56.008 167.544 56.008C167.152 56.008 166.792 56.0967 166.466 56.274C166.139 56.4513 165.878 56.7267 165.682 57.1C165.486 57.4733 165.388 57.9493 165.388 58.528C165.388 59.396 165.598 60.0353 166.018 60.446C166.438 60.8473 166.946 61.048 167.544 61.048ZM175.7 62.168C175.112 62.168 174.585 62.028 174.118 61.748C173.661 61.468 173.302 61.0573 173.04 60.516C172.779 59.9653 172.648 59.298 172.648 58.514C172.648 57.7393 172.779 57.0813 173.04 56.54C173.302 55.9987 173.661 55.588 174.118 55.308C174.585 55.028 175.112 54.888 175.7 54.888C176.251 54.888 176.704 54.9953 177.058 55.21C177.422 55.4247 177.693 55.7047 177.87 56.05V51.92H179.046V62H178.08L177.954 60.922H177.87C177.684 61.3047 177.408 61.608 177.044 61.832C176.68 62.056 176.232 62.168 175.7 62.168ZM175.854 61.048C176.442 61.048 176.928 60.8427 177.31 60.432C177.693 60.012 177.884 59.3773 177.884 58.528C177.884 57.6787 177.693 57.0487 177.31 56.638C176.928 56.218 176.442 56.008 175.854 56.008C175.266 56.008 174.781 56.218 174.398 56.638C174.025 57.0487 173.838 57.6787 173.838 58.528C173.838 59.3773 174.025 60.012 174.398 60.432C174.781 60.8427 175.266 61.048 175.854 61.048ZM189.619 65.08V55.056H190.571L190.711 56.204H190.795C190.973 55.8307 191.257 55.518 191.649 55.266C192.041 55.014 192.503 54.888 193.035 54.888C193.595 54.888 194.099 55.028 194.547 55.308C195.005 55.588 195.364 56.0033 195.625 56.554C195.887 57.0953 196.017 57.758 196.017 58.542C196.017 59.3167 195.882 59.9747 195.611 60.516C195.35 61.0573 194.986 61.468 194.519 61.748C194.062 62.028 193.535 62.168 192.937 62.168C192.405 62.168 191.953 62.056 191.579 61.832C191.215 61.5987 190.954 61.328 190.795 61.02V65.08H189.619ZM192.797 61.048C193.385 61.048 193.871 60.8427 194.253 60.432C194.636 60.012 194.827 59.3773 194.827 58.528C194.827 57.6787 194.636 57.0487 194.253 56.638C193.871 56.218 193.385 56.008 192.797 56.008C192.209 56.008 191.724 56.218 191.341 56.638C190.959 57.0487 190.767 57.6787 190.767 58.528C190.767 59.3773 190.959 60.012 191.341 60.432C191.724 60.8427 192.209 61.048 192.797 61.048ZM200.534 62.168C199.983 62.168 199.526 62.07 199.162 61.874C198.798 61.678 198.527 61.4213 198.35 61.104C198.173 60.7773 198.084 60.4227 198.084 60.04C198.084 59.3307 198.341 58.794 198.854 58.43C199.377 58.0567 200.072 57.87 200.94 57.87H202.844V57.73C202.844 56.5167 202.289 55.91 201.178 55.91C200.73 55.91 200.352 56.008 200.044 56.204C199.745 56.4 199.554 56.708 199.47 57.128H198.266C198.313 56.6613 198.467 56.26 198.728 55.924C198.999 55.588 199.344 55.3313 199.764 55.154C200.184 54.9767 200.655 54.888 201.178 54.888C202.167 54.888 202.886 55.1493 203.334 55.672C203.791 56.1853 204.02 56.8713 204.02 57.73V62H203.012L202.914 60.922H202.816C202.611 61.258 202.335 61.552 201.99 61.804C201.654 62.0467 201.169 62.168 200.534 62.168ZM200.744 61.132C201.192 61.132 201.57 61.0247 201.878 60.81C202.195 60.5953 202.433 60.3107 202.592 59.956C202.76 59.6013 202.844 59.214 202.844 58.794H201.038C200.403 58.794 199.955 58.9013 199.694 59.116C199.442 59.3307 199.316 59.6153 199.316 59.97C199.316 60.334 199.437 60.6187 199.68 60.824C199.923 61.0293 200.277 61.132 200.744 61.132ZM206.492 62V60.992H208.27V56.414C208.27 56.1807 208.158 56.064 207.934 56.064H206.674V55.056H208.368C208.676 55.056 208.924 55.14 209.11 55.308C209.297 55.476 209.39 55.7233 209.39 56.05V56.344H209.446C209.558 55.8773 209.768 55.518 210.076 55.266C210.394 55.014 210.832 54.888 211.392 54.888H212.666V56.134H211.224C210.655 56.134 210.216 56.3253 209.908 56.708C209.6 57.0813 209.446 57.562 209.446 58.15V60.992H211.63V62H206.492ZM217.323 62.168C216.772 62.168 216.315 62.07 215.951 61.874C215.587 61.678 215.316 61.4213 215.139 61.104C214.962 60.7773 214.873 60.4227 214.873 60.04C214.873 59.3307 215.13 58.794 215.643 58.43C216.166 58.0567 216.861 57.87 217.729 57.87H219.633V57.73C219.633 56.5167 219.078 55.91 217.967 55.91C217.519 55.91 217.141 56.008 216.833 56.204C216.534 56.4 216.343 56.708 216.259 57.128H215.055C215.102 56.6613 215.256 56.26 215.517 55.924C215.788 55.588 216.133 55.3313 216.553 55.154C216.973 54.9767 217.444 54.888 217.967 54.888C218.956 54.888 219.675 55.1493 220.123 55.672C220.58 56.1853 220.809 56.8713 220.809 57.73V62H219.801L219.703 60.922H219.605C219.4 61.258 219.124 61.552 218.779 61.804C218.443 62.0467 217.958 62.168 217.323 62.168ZM217.533 61.132C217.981 61.132 218.359 61.0247 218.667 60.81C218.984 60.5953 219.222 60.3107 219.381 59.956C219.549 59.6013 219.633 59.214 219.633 58.794H217.827C217.192 58.794 216.744 58.9013 216.483 59.116C216.231 59.3307 216.105 59.6153 216.105 59.97C216.105 60.334 216.226 60.6187 216.469 60.824C216.712 61.0293 217.066 61.132 217.533 61.132ZM222.623 62V55.056H223.589L223.715 55.868H223.785C223.907 55.588 224.089 55.3547 224.331 55.168C224.583 54.9813 224.887 54.888 225.241 54.888C225.596 54.888 225.895 54.9767 226.137 55.154C226.389 55.322 226.571 55.56 226.683 55.868H226.739C226.861 55.588 227.057 55.3547 227.327 55.168C227.598 54.9813 227.925 54.888 228.307 54.888C228.839 54.888 229.236 55.07 229.497 55.434C229.768 55.7887 229.903 56.2647 229.903 56.862V62H228.755V57.044C228.755 56.708 228.685 56.442 228.545 56.246C228.415 56.05 228.2 55.952 227.901 55.952C227.593 55.952 227.341 56.0687 227.145 56.302C226.949 56.5353 226.851 56.8667 226.851 57.296V62H225.689V57.044C225.689 56.708 225.624 56.442 225.493 56.246C225.363 56.05 225.148 55.952 224.849 55.952C224.541 55.952 224.285 56.0687 224.079 56.302C223.883 56.5353 223.785 56.8667 223.785 57.296V62H222.623ZM234.77 62.168C234.117 62.168 233.538 62.0187 233.034 61.72C232.539 61.412 232.147 60.9873 231.858 60.446C231.569 59.8953 231.424 59.256 231.424 58.528C231.424 57.8 231.564 57.1653 231.844 56.624C232.133 56.0733 232.53 55.6487 233.034 55.35C233.538 55.042 234.126 54.888 234.798 54.888C235.47 54.888 236.044 55.042 236.52 55.35C236.996 55.6487 237.36 56.0453 237.612 56.54C237.864 57.0347 237.99 57.5667 237.99 58.136C237.99 58.2387 237.985 58.3413 237.976 58.444C237.976 58.5467 237.976 58.6633 237.976 58.794H232.586C232.614 59.3073 232.731 59.7367 232.936 60.082C233.151 60.418 233.417 60.67 233.734 60.838C234.061 61.006 234.406 61.09 234.77 61.09C235.283 61.09 235.685 60.9827 235.974 60.768C236.263 60.5533 236.483 60.2547 236.632 59.872H237.794C237.635 60.516 237.304 61.062 236.8 61.51C236.296 61.9487 235.619 62.168 234.77 62.168ZM234.77 55.938C234.229 55.938 233.753 56.1013 233.342 56.428C232.941 56.7547 232.693 57.212 232.6 57.8H236.828C236.791 57.2213 236.581 56.7687 236.198 56.442C235.825 56.106 235.349 55.938 234.77 55.938ZM243.823 62C243.188 62 242.689 61.846 242.325 61.538C241.961 61.23 241.779 60.6747 241.779 59.872V56.064H240.015V55.056H241.065C241.541 55.056 241.816 54.8227 241.891 54.356L242.087 53.278H242.955V55.056H245.727V56.064H242.955V59.872C242.955 60.264 243.043 60.5393 243.221 60.698C243.407 60.8567 243.725 60.936 244.173 60.936H245.727V62H243.823ZM251.559 62.168C250.906 62.168 250.327 62.0187 249.823 61.72C249.328 61.412 248.936 60.9873 248.647 60.446C248.358 59.8953 248.213 59.256 248.213 58.528C248.213 57.8 248.353 57.1653 248.633 56.624C248.922 56.0733 249.319 55.6487 249.823 55.35C250.327 55.042 250.915 54.888 251.587 54.888C252.259 54.888 252.833 55.042 253.309 55.35C253.785 55.6487 254.149 56.0453 254.401 56.54C254.653 57.0347 254.779 57.5667 254.779 58.136C254.779 58.2387 254.774 58.3413 254.765 58.444C254.765 58.5467 254.765 58.6633 254.765 58.794H249.375C249.403 59.3073 249.52 59.7367 249.725 60.082C249.94 60.418 250.206 60.67 250.523 60.838C250.85 61.006 251.195 61.09 251.559 61.09C252.072 61.09 252.474 60.9827 252.763 60.768C253.052 60.5533 253.272 60.2547 253.421 59.872H254.583C254.424 60.516 254.093 61.062 253.589 61.51C253.085 61.9487 252.408 62.168 251.559 62.168ZM251.559 55.938C251.018 55.938 250.542 56.1013 250.131 56.428C249.73 56.7547 249.482 57.212 249.389 57.8H253.617C253.58 57.2213 253.37 56.7687 252.987 56.442C252.614 56.106 252.138 55.938 251.559 55.938ZM256.86 62V60.992H258.638V56.414C258.638 56.1807 258.526 56.064 258.302 56.064H257.042V55.056H258.736C259.044 55.056 259.291 55.14 259.478 55.308C259.664 55.476 259.758 55.7233 259.758 56.05V56.344H259.814C259.926 55.8773 260.136 55.518 260.444 55.266C260.761 55.014 261.2 54.888 261.76 54.888H263.034V56.134H261.592C261.022 56.134 260.584 56.3253 260.276 56.708C259.968 57.0813 259.814 57.562 259.814 58.15V60.992H261.998V62H256.86ZM268.348 62.168C267.461 62.168 266.743 61.9627 266.192 61.552C265.651 61.132 265.347 60.558 265.282 59.83H266.5C266.556 60.2127 266.743 60.5253 267.06 60.768C267.387 61.0107 267.825 61.132 268.376 61.132C268.899 61.132 269.286 61.02 269.538 60.796C269.799 60.572 269.93 60.3153 269.93 60.026C269.93 59.634 269.776 59.368 269.468 59.228C269.16 59.0787 268.698 58.9667 268.082 58.892C267.345 58.808 266.733 58.6073 266.248 58.29C265.763 57.9727 265.52 57.4967 265.52 56.862C265.52 56.2927 265.758 55.8213 266.234 55.448C266.71 55.0747 267.359 54.888 268.18 54.888C268.992 54.888 269.631 55.0747 270.098 55.448C270.565 55.812 270.831 56.3347 270.896 57.016H269.734C269.706 56.68 269.543 56.414 269.244 56.218C268.955 56.0127 268.591 55.91 268.152 55.91C267.695 55.91 267.34 55.9987 267.088 56.176C266.836 56.344 266.71 56.568 266.71 56.848C266.71 57.128 266.85 57.3613 267.13 57.548C267.419 57.7253 267.872 57.842 268.488 57.898C268.973 57.954 269.417 58.0473 269.818 58.178C270.219 58.3087 270.537 58.514 270.77 58.794C271.013 59.074 271.134 59.466 271.134 59.97C271.143 60.39 271.027 60.768 270.784 61.104C270.551 61.4307 270.224 61.692 269.804 61.888C269.384 62.0747 268.899 62.168 268.348 62.168ZM273.635 63.26L278.479 51.36H279.711L274.853 63.26H273.635ZM284.479 62.168C283.929 62.168 283.471 62.07 283.107 61.874C282.743 61.678 282.473 61.4213 282.295 61.104C282.118 60.7773 282.029 60.4227 282.029 60.04C282.029 59.3307 282.286 58.794 282.799 58.43C283.322 58.0567 284.017 57.87 284.885 57.87H286.789V57.73C286.789 56.5167 286.234 55.91 285.123 55.91C284.675 55.91 284.297 56.008 283.989 56.204C283.691 56.4 283.499 56.708 283.415 57.128H282.211C282.258 56.6613 282.412 56.26 282.673 55.924C282.944 55.588 283.289 55.3313 283.709 55.154C284.129 54.9767 284.601 54.888 285.123 54.888C286.113 54.888 286.831 55.1493 287.279 55.672C287.737 56.1853 287.965 56.8713 287.965 57.73V62H286.957L286.859 60.922H286.761C286.556 61.258 286.281 61.552 285.935 61.804C285.599 62.0467 285.114 62.168 284.479 62.168ZM284.689 61.132C285.137 61.132 285.515 61.0247 285.823 60.81C286.141 60.5953 286.379 60.3107 286.537 59.956C286.705 59.6013 286.789 59.214 286.789 58.794H284.983C284.349 58.794 283.901 58.9013 283.639 59.116C283.387 59.3307 283.261 59.6153 283.261 59.97C283.261 60.334 283.383 60.6187 283.625 60.824C283.868 61.0293 284.223 61.132 284.689 61.132ZM290.438 62V60.992H292.216V56.414C292.216 56.1807 292.104 56.064 291.88 56.064H290.62V55.056H292.314C292.622 55.056 292.869 55.14 293.056 55.308C293.242 55.476 293.336 55.7233 293.336 56.05V56.344H293.392C293.504 55.8773 293.714 55.518 294.022 55.266C294.339 55.014 294.778 54.888 295.338 54.888H296.612V56.134H295.17C294.6 56.134 294.162 56.3253 293.854 56.708C293.546 57.0813 293.392 57.562 293.392 58.15V60.992H295.576V62H290.438ZM301.73 59.956C301.245 59.956 300.811 59.8673 300.428 59.69L299.952 60.264C299.85 60.404 299.822 60.544 299.868 60.684C299.924 60.8147 300.06 60.88 300.274 60.88H302.108C302.939 60.88 303.611 61.0433 304.124 61.37C304.638 61.6873 304.894 62.196 304.894 62.896C304.894 63.316 304.787 63.7033 304.572 64.058C304.358 64.4127 304.017 64.6973 303.55 64.912C303.093 65.136 302.491 65.248 301.744 65.248C300.774 65.248 299.994 65.066 299.406 64.702C298.818 64.338 298.524 63.7827 298.524 63.036C298.524 62.7653 298.59 62.5133 298.72 62.28C298.86 62.056 299.033 61.8553 299.238 61.678C298.968 61.51 298.8 61.258 298.734 60.922C298.678 60.586 298.781 60.2547 299.042 59.928L299.672 59.144C299.224 58.6773 299 58.1033 299 57.422C299 56.974 299.108 56.5587 299.322 56.176C299.537 55.784 299.845 55.4713 300.246 55.238C300.657 55.0047 301.152 54.888 301.73 54.888C302.104 54.888 302.449 54.944 302.766 55.056H305.37V55.938L304.068 55.98V56.078C304.311 56.4793 304.432 56.9273 304.432 57.422C304.432 57.87 304.325 58.29 304.11 58.682C303.905 59.0647 303.597 59.3727 303.186 59.606C302.785 59.8393 302.3 59.956 301.73 59.956ZM301.73 58.948C302.188 58.948 302.561 58.8127 302.85 58.542C303.149 58.2713 303.298 57.898 303.298 57.422C303.298 56.946 303.149 56.5773 302.85 56.316C302.561 56.0453 302.188 55.91 301.73 55.91C301.264 55.91 300.881 56.0453 300.582 56.316C300.284 56.5773 300.134 56.946 300.134 57.422C300.134 57.898 300.284 58.2713 300.582 58.542C300.881 58.8127 301.264 58.948 301.73 58.948ZM299.686 62.994C299.686 63.4047 299.878 63.7127 300.26 63.918C300.643 64.1233 301.138 64.226 301.744 64.226C302.332 64.226 302.808 64.1093 303.172 63.876C303.546 63.6427 303.732 63.33 303.732 62.938C303.732 62.63 303.602 62.3687 303.34 62.154C303.079 61.9487 302.598 61.846 301.898 61.846H300.316C299.896 62.154 299.686 62.5367 299.686 62.994ZM309.761 62.168C308.921 62.168 308.286 61.916 307.857 61.412C307.427 60.908 307.213 60.18 307.213 59.228V55.056H308.389V59.088C308.389 59.704 308.524 60.1893 308.795 60.544C309.075 60.8893 309.495 61.062 310.055 61.062C310.615 61.062 311.086 60.8753 311.469 60.502C311.851 60.1193 312.043 59.5733 312.043 58.864V55.056H313.219V62H312.239L312.113 60.95H312.043C311.856 61.286 311.562 61.5753 311.161 61.818C310.759 62.0513 310.293 62.168 309.761 62.168ZM314.963 62V55.056H315.929L316.055 55.868H316.125C316.247 55.588 316.429 55.3547 316.671 55.168C316.923 54.9813 317.227 54.888 317.581 54.888C317.936 54.888 318.235 54.9767 318.477 55.154C318.729 55.322 318.911 55.56 319.023 55.868H319.079C319.201 55.588 319.397 55.3547 319.667 55.168C319.938 54.9813 320.265 54.888 320.647 54.888C321.179 54.888 321.576 55.07 321.837 55.434C322.108 55.7887 322.243 56.2647 322.243 56.862V62H321.095V57.044C321.095 56.708 321.025 56.442 320.885 56.246C320.755 56.05 320.54 55.952 320.241 55.952C319.933 55.952 319.681 56.0687 319.485 56.302C319.289 56.5353 319.191 56.8667 319.191 57.296V62H318.029V57.044C318.029 56.708 317.964 56.442 317.833 56.246C317.703 56.05 317.488 55.952 317.189 55.952C316.881 55.952 316.625 56.0687 316.419 56.302C316.223 56.5353 316.125 56.8667 316.125 57.296V62H314.963ZM327.11 62.168C326.457 62.168 325.878 62.0187 325.374 61.72C324.879 61.412 324.487 60.9873 324.198 60.446C323.909 59.8953 323.764 59.256 323.764 58.528C323.764 57.8 323.904 57.1653 324.184 56.624C324.473 56.0733 324.87 55.6487 325.374 55.35C325.878 55.042 326.466 54.888 327.138 54.888C327.81 54.888 328.384 55.042 328.86 55.35C329.336 55.6487 329.7 56.0453 329.952 56.54C330.204 57.0347 330.33 57.5667 330.33 58.136C330.33 58.2387 330.325 58.3413 330.316 58.444C330.316 58.5467 330.316 58.6633 330.316 58.794H324.926C324.954 59.3073 325.071 59.7367 325.276 60.082C325.491 60.418 325.757 60.67 326.074 60.838C326.401 61.006 326.746 61.09 327.11 61.09C327.623 61.09 328.025 60.9827 328.314 60.768C328.603 60.5533 328.823 60.2547 328.972 59.872H330.134C329.975 60.516 329.644 61.062 329.14 61.51C328.636 61.9487 327.959 62.168 327.11 62.168ZM327.11 55.938C326.569 55.938 326.093 56.1013 325.682 56.428C325.281 56.7547 325.033 57.212 324.94 57.8H329.168C329.131 57.2213 328.921 56.7687 328.538 56.442C328.165 56.106 327.689 55.938 327.11 55.938ZM332.466 62V55.056H333.446L333.572 56.106H333.642C333.829 55.77 334.123 55.4853 334.524 55.252C334.926 55.0093 335.388 54.888 335.91 54.888C336.76 54.888 337.394 55.14 337.814 55.644C338.244 56.148 338.458 56.876 338.458 57.828V62H337.282V57.968C337.282 57.352 337.147 56.8713 336.876 56.526C336.606 56.1713 336.186 55.994 335.616 55.994C335.066 55.994 334.599 56.1853 334.216 56.568C333.834 56.9413 333.642 57.4827 333.642 58.192V62H332.466ZM344.557 62C343.922 62 343.423 61.846 343.059 61.538C342.695 61.23 342.513 60.6747 342.513 59.872V56.064H340.749V55.056H341.799C342.275 55.056 342.55 54.8227 342.625 54.356L342.821 53.278H343.689V55.056H346.461V56.064H343.689V59.872C343.689 60.264 343.778 60.5393 343.955 60.698C344.142 60.8567 344.459 60.936 344.907 60.936H346.461V62H344.557ZM352.293 62.168C351.407 62.168 350.688 61.9627 350.137 61.552C349.596 61.132 349.293 60.558 349.227 59.83H350.445C350.501 60.2127 350.688 60.5253 351.005 60.768C351.332 61.0107 351.771 61.132 352.321 61.132C352.844 61.132 353.231 61.02 353.483 60.796C353.745 60.572 353.875 60.3153 353.875 60.026C353.875 59.634 353.721 59.368 353.413 59.228C353.105 59.0787 352.643 58.9667 352.027 58.892C351.29 58.808 350.679 58.6073 350.193 58.29C349.708 57.9727 349.465 57.4967 349.465 56.862C349.465 56.2927 349.703 55.8213 350.179 55.448C350.655 55.0747 351.304 54.888 352.125 54.888C352.937 54.888 353.577 55.0747 354.043 55.448C354.51 55.812 354.776 56.3347 354.841 57.016H353.679C353.651 56.68 353.488 56.414 353.189 56.218C352.9 56.0127 352.536 55.91 352.097 55.91C351.64 55.91 351.285 55.9987 351.033 56.176C350.781 56.344 350.655 56.568 350.655 56.848C350.655 57.128 350.795 57.3613 351.075 57.548C351.365 57.7253 351.817 57.842 352.433 57.898C352.919 57.954 353.362 58.0473 353.763 58.178C354.165 58.3087 354.482 58.514 354.715 58.794C354.958 59.074 355.079 59.466 355.079 59.97C355.089 60.39 354.972 60.768 354.729 61.104C354.496 61.4307 354.169 61.692 353.749 61.888C353.329 62.0747 352.844 62.168 352.293 62.168Z" fill="#4A984D"/>
<rect x="58.5" y="74.5" width="344" height="111" rx="5.5" fill="white"/>
<g clip-path="url(#clip1_4768_39056)">
<path d="M80.2827 97V95.936H82.8167V88.586L80.4227 89.048V88.152L83.2087 87.2H83.9927V95.936H86.6667V97H80.2827Z" fill="#6C717D"/>
<path d="M107.976 99.59C107.547 99.59 107.215 99.4733 106.982 99.24C106.758 99.0067 106.646 98.6753 106.646 98.246V86.99C106.646 86.5607 106.758 86.2293 106.982 85.996C107.215 85.7627 107.547 85.646 107.976 85.646H110.202V86.682H108.088C107.864 86.682 107.752 86.7987 107.752 87.032V98.19C107.752 98.4233 107.864 98.54 108.088 98.54H110.202V99.59H107.976ZM190.493 98.708L191.725 94.942H193.279L191.613 98.708H190.493ZM257.804 99.59V98.54H259.918C260.142 98.54 260.254 98.4233 260.254 98.19V87.032C260.254 86.7987 260.142 86.682 259.918 86.682H257.804V85.646H260.03C260.459 85.646 260.786 85.7627 261.01 85.996C261.243 86.2293 261.36 86.5607 261.36 86.99V98.246C261.36 98.6753 261.243 99.0067 261.01 99.24C260.786 99.4733 260.459 99.59 260.03 99.59H257.804Z" fill="#C5C8CF"/>
<path d="M113.92 91.12L115.306 87.2H116.37L115.432 91.12H113.92ZM117 91.12L118.386 87.2H119.45L118.512 91.12H117ZM121.559 97V90.056H122.525L122.651 90.868H122.721C122.842 90.588 123.024 90.3547 123.267 90.168C123.519 89.9813 123.822 89.888 124.177 89.888C124.532 89.888 124.83 89.9767 125.073 90.154C125.325 90.322 125.507 90.56 125.619 90.868H125.675C125.796 90.588 125.992 90.3547 126.263 90.168C126.534 89.9813 126.86 89.888 127.243 89.888C127.775 89.888 128.172 90.07 128.433 90.434C128.704 90.7887 128.839 91.2647 128.839 91.862V97H127.691V92.044C127.691 91.708 127.621 91.442 127.481 91.246C127.35 91.05 127.136 90.952 126.837 90.952C126.529 90.952 126.277 91.0687 126.081 91.302C125.885 91.5353 125.787 91.8667 125.787 92.296V97H124.625V92.044C124.625 91.708 124.56 91.442 124.429 91.246C124.298 91.05 124.084 90.952 123.785 90.952C123.477 90.952 123.22 91.0687 123.015 91.302C122.819 91.5353 122.721 91.8667 122.721 92.296V97H121.559ZM133.636 97.168C132.982 97.168 132.404 97.0187 131.9 96.72C131.396 96.4213 130.999 96.0013 130.71 95.46C130.42 94.9093 130.276 94.2653 130.276 93.528C130.276 92.7907 130.42 92.1513 130.71 91.61C130.999 91.0593 131.396 90.6347 131.9 90.336C132.404 90.0373 132.982 89.888 133.636 89.888C134.289 89.888 134.868 90.0373 135.372 90.336C135.876 90.6347 136.272 91.0593 136.562 91.61C136.851 92.1513 136.996 92.7907 136.996 93.528C136.996 94.2653 136.851 94.9093 136.562 95.46C136.272 96.0013 135.876 96.4213 135.372 96.72C134.868 97.0187 134.289 97.168 133.636 97.168ZM133.636 96.048C134.037 96.048 134.401 95.9593 134.728 95.782C135.054 95.6047 135.311 95.3293 135.498 94.956C135.694 94.5827 135.792 94.1067 135.792 93.528C135.792 92.9493 135.694 92.4733 135.498 92.1C135.311 91.7267 135.054 91.4513 134.728 91.274C134.401 91.0967 134.037 91.008 133.636 91.008C133.244 91.008 132.884 91.0967 132.558 91.274C132.231 91.4513 131.97 91.7267 131.774 92.1C131.578 92.4733 131.48 92.9493 131.48 93.528C131.48 94.396 131.69 95.0353 132.11 95.446C132.53 95.8473 133.038 96.048 133.636 96.048ZM139.062 97V90.056H140.042L140.168 91.106H140.238C140.425 90.77 140.719 90.4853 141.12 90.252C141.521 90.0093 141.983 89.888 142.506 89.888C143.355 89.888 143.99 90.14 144.41 90.644C144.839 91.148 145.054 91.876 145.054 92.828V97H143.878V92.968C143.878 92.352 143.743 91.8713 143.472 91.526C143.201 91.1713 142.781 90.994 142.212 90.994C141.661 90.994 141.195 91.1853 140.812 91.568C140.429 91.9413 140.238 92.4827 140.238 93.192V97H139.062ZM151.153 97C150.518 97 150.019 96.846 149.655 96.538C149.291 96.23 149.109 95.6747 149.109 94.872V91.064H147.345V90.056H148.395C148.871 90.056 149.146 89.8227 149.221 89.356L149.417 88.278H150.285V90.056H153.057V91.064H150.285V94.872C150.285 95.264 150.373 95.5393 150.551 95.698C150.737 95.8567 151.055 95.936 151.503 95.936H153.057V97H151.153ZM155.781 97V86.92H156.957V91.106C157.144 90.7513 157.452 90.462 157.881 90.238C158.31 90.0047 158.782 89.888 159.295 89.888C160.144 89.888 160.788 90.1447 161.227 90.658C161.675 91.1713 161.899 91.89 161.899 92.814V97H160.723V92.968C160.723 92.3427 160.569 91.8573 160.261 91.512C159.962 91.1667 159.542 90.994 159.001 90.994C158.628 90.994 158.287 91.078 157.979 91.246C157.671 91.414 157.424 91.6613 157.237 91.988C157.05 92.3147 156.957 92.716 156.957 93.192V97H155.781ZM164.064 97V95.992H166.43V88.278C166.43 88.0447 166.313 87.928 166.08 87.928H164.316V86.92H166.36C166.761 86.92 167.069 87.0273 167.284 87.242C167.498 87.4567 167.606 87.7647 167.606 88.166V95.992H169.972V97H164.064ZM173.494 100.08L175.202 96.328H174.796L172.052 90.056H173.326L175.608 95.432L178.016 90.056H179.248L174.726 100.08H173.494ZM181.329 91.12L182.267 87.2H183.779L182.393 91.12H181.329ZM184.409 91.12L185.347 87.2H186.859L185.473 91.12H184.409Z" fill="#E38854"/>
<path d="M205.966 97V95.936H208.5V88.586L206.106 89.048V88.152L208.892 87.2H209.676V95.936H212.35V97H205.966ZM214.417 97V96.076C215.425 95.2733 216.302 94.536 217.049 93.864C217.805 93.192 218.388 92.5433 218.799 91.918C219.21 91.2927 219.415 90.6533 219.415 90C219.415 89.412 219.247 88.95 218.911 88.614C218.584 88.2687 218.141 88.096 217.581 88.096C217.152 88.096 216.788 88.1893 216.489 88.376C216.19 88.5627 215.966 88.81 215.817 89.118C215.668 89.426 215.593 89.7573 215.593 90.112H214.431C214.44 89.468 214.58 88.9173 214.851 88.46C215.131 87.9933 215.504 87.6387 215.971 87.396C216.447 87.1533 216.984 87.032 217.581 87.032C218.542 87.032 219.289 87.298 219.821 87.83C220.353 88.362 220.619 89.076 220.619 89.972C220.619 90.56 220.493 91.1247 220.241 91.666C219.989 92.198 219.653 92.7113 219.233 93.206C218.813 93.7007 218.342 94.1767 217.819 94.634C217.296 95.0913 216.769 95.53 216.237 95.95H220.885V97H214.417ZM225.975 97.028C225.686 97.028 225.439 96.93 225.233 96.734C225.028 96.538 224.925 96.2953 224.925 96.006C224.925 95.726 225.028 95.488 225.233 95.292C225.439 95.096 225.686 94.998 225.975 94.998C226.265 94.998 226.512 95.096 226.717 95.292C226.923 95.488 227.025 95.726 227.025 96.006C227.025 96.2953 226.923 96.538 226.717 96.734C226.512 96.93 226.265 97.028 225.975 97.028ZM234.37 97.168C233.633 97.168 232.979 96.9627 232.41 96.552C231.85 96.1413 231.411 95.558 231.094 94.802C230.786 94.046 230.632 93.1453 230.632 92.1C230.632 91.0547 230.786 90.154 231.094 89.398C231.411 88.642 231.85 88.0587 232.41 87.648C232.979 87.2373 233.633 87.032 234.37 87.032C235.117 87.032 235.77 87.2373 236.33 87.648C236.89 88.0587 237.324 88.642 237.632 89.398C237.949 90.154 238.108 91.0547 238.108 92.1C238.108 93.1453 237.949 94.046 237.632 94.802C237.324 95.558 236.89 96.1413 236.33 96.552C235.77 96.9627 235.117 97.168 234.37 97.168ZM231.836 92.1C231.836 92.7347 231.901 93.3087 232.032 93.822C232.172 94.326 232.363 94.7507 232.606 95.096L235.322 88.362C235.033 88.2033 234.715 88.124 234.37 88.124C233.875 88.124 233.437 88.2873 233.054 88.614C232.671 88.9313 232.373 89.3887 232.158 89.986C231.943 90.574 231.836 91.2787 231.836 92.1ZM234.37 96.09C234.865 96.09 235.303 95.9313 235.686 95.614C236.069 95.2873 236.367 94.8253 236.582 94.228C236.797 93.6307 236.904 92.9213 236.904 92.1C236.904 91.4653 236.834 90.896 236.694 90.392C236.563 89.8787 236.377 89.4493 236.134 89.104L233.404 95.852C233.703 96.0107 234.025 96.09 234.37 96.09ZM242.89 97.168C242.246 97.168 241.668 97.0513 241.154 96.818C240.65 96.5753 240.244 96.2253 239.936 95.768C239.628 95.3107 239.46 94.7507 239.432 94.088H240.636C240.655 94.648 240.86 95.124 241.252 95.516C241.644 95.8987 242.19 96.09 242.89 96.09C243.572 96.09 244.099 95.9173 244.472 95.572C244.846 95.2173 245.032 94.7367 245.032 94.13C245.032 93.71 244.925 93.3647 244.71 93.094C244.496 92.814 244.206 92.6087 243.842 92.478C243.488 92.338 243.091 92.268 242.652 92.268H241.798V91.204H242.54C243.175 91.204 243.679 91.0687 244.052 90.798C244.435 90.5273 244.626 90.1307 244.626 89.608C244.626 89.1693 244.472 88.81 244.164 88.53C243.866 88.25 243.436 88.11 242.876 88.11C242.335 88.11 241.896 88.264 241.56 88.572C241.224 88.8707 241.033 89.2627 240.986 89.748H239.81C239.829 89.216 239.969 88.7493 240.23 88.348C240.492 87.9373 240.846 87.6153 241.294 87.382C241.752 87.1487 242.279 87.032 242.876 87.032C243.52 87.032 244.057 87.144 244.486 87.368C244.925 87.592 245.256 87.8953 245.48 88.278C245.704 88.6513 245.816 89.0667 245.816 89.524C245.816 90.0093 245.667 90.4387 245.368 90.812C245.07 91.176 244.715 91.4327 244.304 91.582V91.666C244.855 91.834 245.312 92.1187 245.676 92.52C246.04 92.9213 246.222 93.458 246.222 94.13C246.222 94.6993 246.087 95.2127 245.816 95.67C245.555 96.1273 245.172 96.4913 244.668 96.762C244.174 97.0327 243.581 97.168 242.89 97.168ZM249.367 97L253.189 88.264H247.841V87.2H254.407V88.138L250.613 97H249.367Z" fill="#748CE4"/>
<rect x="386" y="87" width="4" height="86" rx="2" fill="#E9EDF4"/>
<rect x="386" y="87" width="4" height="74.9571" rx="2" fill="#C5C8CF"/>
</g>
<rect x="58.5" y="74.5" width="344" height="111" rx="5.5" stroke="#C5C8CF"/>
</g>
<defs>
<clipPath id="clip0_4768_39056">
<rect width="462" height="233" fill="white"/>
</clipPath>
<clipPath id="clip1_4768_39056">
<rect width="335" height="102" fill="white" transform="translate(63 79)"/>
</clipPath>
</defs>
</svg>
