<svg width="76" height="77" viewBox="0 0 76 77" fill="none" xmlns="http://www.w3.org/2000/svg">
<path d="M65.3098 0H10.6554C4.77045 0 0 4.77851 0 10.6734V65.4201C0 71.315 4.77045 76.0935 10.6554 76.0935H65.3098C71.1947 76.0935 75.9651 71.315 75.9651 65.4201V10.6734C75.9651 4.77851 71.1947 0 65.3098 0Z" fill="#161616"/>
<path d="M14.5294 37.7485L17.5974 40.8164L26.6559 31.7579L26.5944 49.8079L31.0427 54.2561L31.1656 21.1123L14.5294 37.7485Z" fill="#81D0FC"/>
<path d="M36.8432 15.4344L36.6812 59.8943L41.4423 64.6555L41.6379 10.6396L36.8432 15.4344Z" fill="#81D0FC"/>
<path d="M46.9077 41.6212L49.3051 44.0185L51.7192 41.6044L51.9539 31.2382L49.5677 28.8521L47.1424 31.2773L46.9077 41.6268V41.6212Z" fill="#81D0FC"/>
<path d="M55.9941 47.2093L58.3915 49.6066L60.8056 47.1925L61.0403 25.6498L58.6541 23.2637L56.2288 25.689L55.9941 47.2148V47.2093Z" fill="#81D0FC"/>
</svg>
