<svg width="66" height="24" viewBox="0 0 66 24" fill="none" xmlns="http://www.w3.org/2000/svg">
<path d="M8.552 18.432C7.48 18.432 6.536 18.208 5.72 17.76C4.904 17.296 4.264 16.624 3.8 15.744C3.336 14.864 3.08 13.8 3.032 12.552H3.536V18H0.896V0.48H4.232V9.24L3.344 10.608C3.408 9.264 3.672 8.144 4.136 7.248C4.616 6.352 5.256 5.68 6.056 5.232C6.856 4.784 7.76 4.56 8.768 4.56C9.664 4.56 10.48 4.728 11.216 5.064C11.952 5.4 12.584 5.872 13.112 6.48C13.64 7.072 14.04 7.768 14.312 8.568C14.6 9.368 14.744 10.24 14.744 11.184V11.688C14.744 12.632 14.6 13.512 14.312 14.328C14.024 15.144 13.608 15.864 13.064 16.488C12.52 17.096 11.864 17.576 11.096 17.928C10.344 18.264 9.496 18.432 8.552 18.432ZM7.808 15.624C8.528 15.624 9.152 15.448 9.68 15.096C10.224 14.728 10.648 14.232 10.952 13.608C11.256 12.984 11.408 12.264 11.408 11.448C11.408 10.616 11.256 9.896 10.952 9.288C10.648 8.68 10.224 8.208 9.68 7.872C9.152 7.536 8.528 7.368 7.808 7.368C7.152 7.368 6.544 7.512 5.984 7.8C5.44 8.088 4.992 8.512 4.64 9.072C4.304 9.632 4.136 10.304 4.136 11.088V12.048C4.136 12.8 4.312 13.44 4.664 13.968C5.016 14.496 5.472 14.904 6.032 15.192C6.592 15.48 7.184 15.624 7.808 15.624ZM22.7893 18.456C21.6693 18.456 20.6853 18.264 19.8373 17.88C19.0053 17.496 18.3093 16.984 17.7493 16.344C17.2053 15.688 16.7893 14.96 16.5013 14.16C16.2293 13.36 16.0933 12.544 16.0933 11.712V11.256C16.0933 10.392 16.2293 9.56 16.5013 8.76C16.7893 7.944 17.2053 7.224 17.7493 6.6C18.3093 5.96 18.9973 5.456 19.8133 5.088C20.6293 4.704 21.5733 4.512 22.6453 4.512C24.0533 4.512 25.2293 4.824 26.1733 5.448C27.1333 6.056 27.8533 6.864 28.3333 7.872C28.8133 8.864 29.0533 9.936 29.0533 11.088V12.288H17.5093V10.248H26.9653L25.9333 11.256C25.9333 10.424 25.8133 9.712 25.5733 9.12C25.3333 8.528 24.9653 8.072 24.4693 7.752C23.9893 7.432 23.3813 7.272 22.6453 7.272C21.9093 7.272 21.2853 7.44 20.7733 7.776C20.2613 8.112 19.8693 8.6 19.5973 9.24C19.3413 9.864 19.2133 10.616 19.2133 11.496C19.2133 12.312 19.3413 13.04 19.5973 13.68C19.8533 14.304 20.2453 14.8 20.7733 15.168C21.3013 15.52 21.9733 15.696 22.7893 15.696C23.6053 15.696 24.2693 15.536 24.7813 15.216C25.2933 14.88 25.6213 14.472 25.7653 13.992H28.8373C28.6453 14.888 28.2773 15.672 27.7333 16.344C27.1893 17.016 26.4933 17.536 25.6453 17.904C24.8133 18.272 23.8613 18.456 22.7893 18.456ZM31.1201 18V4.968H33.7601V10.488H33.6881C33.6881 8.616 34.0881 7.2 34.8881 6.24C35.6881 5.28 36.8641 4.8 38.4161 4.8H38.8961V7.704H37.9841C36.8641 7.704 35.9921 8.008 35.3681 8.616C34.7601 9.208 34.4561 10.072 34.4561 11.208V18H31.1201ZM40.4223 23.136V20.28H42.8703C43.3343 20.28 43.7183 20.216 44.0223 20.088C44.3423 19.976 44.6063 19.784 44.8143 19.512C45.0223 19.256 45.1823 18.896 45.2943 18.432L48.7983 4.968H51.9903L48.1263 19.152C47.8703 20.128 47.5103 20.904 47.0463 21.48C46.5823 22.072 45.9823 22.496 45.2463 22.752C44.5263 23.008 43.6303 23.136 42.5583 23.136H40.4223ZM44.4783 17.712V15.072H47.2623V17.712H44.4783ZM43.3503 17.712L39.1263 4.968H42.4863L46.4943 17.712H43.3503ZM52.0749 18L56.3229 11.04L56.2509 11.592L52.2429 4.968H55.8669L58.4829 9.552H58.8429L61.3149 4.968H64.7229L60.9309 11.568L61.0029 11.088L65.4909 18H61.8669L58.7709 13.08H58.4109L55.4829 18H52.0749Z" fill="#E2E4EC"/>
</svg>
