<svg width="44" height="15" viewBox="0 0 44 15" fill="none" xmlns="http://www.w3.org/2000/svg">
<path d="M5.64072 11.27C4.97072 11.27 4.38072 11.13 3.87072 10.85C3.36072 10.56 2.96072 10.145 2.67072 9.605C2.38072 9.065 2.22572 8.405 2.20572 7.625H2.49072V11H0.585723V0.0499997H2.98572V5.615L2.41572 6.335C2.44572 5.505 2.60072 4.81 2.88072 4.25C3.17072 3.68 3.56572 3.255 4.06572 2.975C4.56572 2.685 5.13572 2.54 5.77572 2.54C6.33572 2.54 6.84072 2.645 7.29072 2.855C7.75072 3.055 8.14072 3.345 8.46072 3.725C8.78072 4.095 9.02572 4.535 9.19572 5.045C9.37572 5.555 9.46572 6.11 9.46572 6.71V7.04C9.46572 7.64 9.37572 8.195 9.19572 8.705C9.02572 9.215 8.77072 9.665 8.43072 10.055C8.10072 10.435 7.70072 10.735 7.23072 10.955C6.76072 11.165 6.23072 11.27 5.64072 11.27ZM5.01072 9.26C5.42072 9.26 5.77572 9.16 6.07572 8.96C6.38572 8.76 6.62572 8.48 6.79572 8.12C6.96572 7.75 7.05072 7.335 7.05072 6.875C7.05072 6.405 6.96572 5.995 6.79572 5.645C6.62572 5.295 6.38572 5.025 6.07572 4.835C5.77572 4.635 5.42072 4.535 5.01072 4.535C4.65072 4.535 4.31072 4.62 3.99072 4.79C3.67072 4.96 3.41072 5.205 3.21072 5.525C3.02072 5.835 2.92572 6.215 2.92572 6.665V7.22C2.92572 7.65 3.02572 8.02 3.22572 8.33C3.43572 8.63 3.70072 8.86 4.02072 9.02C4.34072 9.18 4.67072 9.26 5.01072 9.26ZM14.8976 11.285C14.1976 11.285 13.5776 11.165 13.0376 10.925C12.5076 10.685 12.0626 10.365 11.7026 9.965C11.3526 9.555 11.0826 9.1 10.8926 8.6C10.7126 8.09 10.6226 7.57 10.6226 7.04V6.74C10.6226 6.19 10.7126 5.665 10.8926 5.165C11.0826 4.655 11.3526 4.2 11.7026 3.8C12.0526 3.4 12.4876 3.085 13.0076 2.855C13.5376 2.615 14.1376 2.495 14.8076 2.495C15.6876 2.495 16.4276 2.695 17.0276 3.095C17.6376 3.485 18.1026 4 18.4226 4.64C18.7426 5.27 18.9026 5.96 18.9026 6.71V7.52H11.6276V6.155H17.4476L16.6676 6.785C16.6676 6.295 16.5976 5.875 16.4576 5.525C16.3176 5.175 16.1076 4.91 15.8276 4.73C15.5576 4.54 15.2176 4.445 14.8076 4.445C14.3876 4.445 14.0326 4.54 13.7426 4.73C13.4526 4.92 13.2326 5.2 13.0826 5.57C12.9326 5.93 12.8576 6.375 12.8576 6.905C12.8576 7.395 12.9276 7.825 13.0676 8.195C13.2076 8.555 13.4276 8.835 13.7276 9.035C14.0276 9.235 14.4176 9.335 14.8976 9.335C15.3376 9.335 15.6976 9.25 15.9776 9.08C16.2576 8.91 16.4476 8.7 16.5476 8.45H18.7526C18.6326 9 18.3976 9.49 18.0476 9.92C17.6976 10.35 17.2576 10.685 16.7276 10.925C16.1976 11.165 15.5876 11.285 14.8976 11.285ZM20.4929 11V2.78H22.3979V6.305H22.3529C22.3529 5.145 22.5979 4.25 23.0879 3.62C23.5879 2.99 24.3079 2.675 25.2479 2.675H25.5629V4.745H24.9629C24.3029 4.745 23.7929 4.925 23.4329 5.285C23.0729 5.635 22.8929 6.145 22.8929 6.815V11H20.4929ZM26.9508 14.255V12.215H28.6608C28.9208 12.215 29.1408 12.18 29.3208 12.11C29.5008 12.05 29.6458 11.945 29.7558 11.795C29.8658 11.645 29.9558 11.44 30.0258 11.18L32.0508 2.78H34.3308L32.0358 11.66C31.8758 12.3 31.6508 12.81 31.3608 13.19C31.0808 13.57 30.7008 13.84 30.2208 14C29.7508 14.17 29.1508 14.255 28.4208 14.255H26.9508ZM29.5308 10.82V8.945H31.2708V10.82H29.5308ZM28.5408 10.82L26.0208 2.78H28.4358L30.8208 10.82H28.5408ZM34.6805 11L37.2305 6.59L37.1705 6.965L34.7705 2.78H37.3655L38.8505 5.57H39.0905L40.4855 2.78H42.9305L40.6355 6.995L40.6955 6.68L43.3955 11H40.7855L39.0155 8.015H38.7755L37.1105 11H34.6805Z" fill="#F3F4F5"/>
</svg>
