<svg width="32" height="32" viewBox="0 0 32 32" fill="none" xmlns="http://www.w3.org/2000/svg">
<rect width="32" height="32" rx="6" fill="#F3F4F5"/>
<path d="M14.0129 22.08V20.032H16.7489C17.2396 20.032 17.6076 19.904 17.8529 19.648C18.0983 19.392 18.2209 19.0293 18.2209 18.56C18.2209 18.0907 18.0983 17.7333 17.8529 17.488C17.6076 17.232 17.2396 17.104 16.7489 17.104H14.0129V15.52H16.6209C17.4316 15.52 18.1516 15.6213 18.7809 15.824C19.4103 16.016 19.9063 16.3307 20.2689 16.768C20.6316 17.2053 20.8129 17.7973 20.8129 18.544V18.768C20.8129 19.4613 20.6529 20.0587 20.3329 20.56C20.0129 21.0507 19.5436 21.4293 18.9249 21.696C18.3063 21.952 17.5383 22.08 16.6209 22.08H14.0129ZM11.7729 22.08V10.224H14.3329V22.08H11.7729ZM14.0129 16.688V15.12H16.3169C16.8183 15.12 17.1809 14.992 17.4049 14.736C17.6289 14.48 17.7409 14.1387 17.7409 13.712C17.7409 13.264 17.6289 12.912 17.4049 12.656C17.1809 12.4 16.8183 12.272 16.3169 12.272H14.0129V10.224H16.1569C17.5009 10.224 18.5303 10.5067 19.2449 11.072C19.9703 11.6373 20.3329 12.4427 20.3329 13.488V13.728C20.3329 14.4533 20.1463 15.0347 19.7729 15.472C19.4103 15.9093 18.9143 16.224 18.2849 16.416C17.6663 16.5973 16.9569 16.688 16.1569 16.688H14.0129Z" fill="black"/>
</svg>
