<svg width="62" height="19" viewBox="0 0 62 19" fill="none" xmlns="http://www.w3.org/2000/svg">
<path d="M0 9.528L0.849616 10.38L3.35823 7.86444L3.3412 12.8769L4.57307 14.1121L4.60712 4.9082L0 9.528Z" fill="black"/>
<path d="M6.17867 3.33147L6.13379 15.6778L7.45232 17L7.50648 2L6.17867 3.33147Z" fill="black"/>
<path d="M8.96729 10.6034L9.63119 11.2691L10.2997 10.5987L10.3647 7.72007L9.70393 7.05743L9.03228 7.73093L8.96729 10.6049V10.6034Z" fill="black"/>
<path d="M11.4824 12.1552L12.1463 12.8209L12.8149 12.1506L12.8799 6.16825L12.2191 5.50562L11.5474 6.17911L11.4824 12.1568V12.1552Z" fill="black"/>
<path d="M23.5206 15.27C22.8506 15.27 22.2606 15.13 21.7506 14.85C21.2406 14.56 20.8406 14.145 20.5506 13.605C20.2606 13.065 20.1056 12.405 20.0856 11.625H20.3706V15H18.4656V4.05H20.8656V9.615L20.2956 10.335C20.3256 9.505 20.4806 8.81 20.7606 8.25C21.0506 7.68 21.4456 7.255 21.9456 6.975C22.4456 6.685 23.0156 6.54 23.6556 6.54C24.2156 6.54 24.7206 6.645 25.1706 6.855C25.6306 7.055 26.0206 7.345 26.3406 7.725C26.6606 8.095 26.9056 8.535 27.0756 9.045C27.2556 9.555 27.3456 10.11 27.3456 10.71V11.04C27.3456 11.64 27.2556 12.195 27.0756 12.705C26.9056 13.215 26.6506 13.665 26.3106 14.055C25.9806 14.435 25.5806 14.735 25.1106 14.955C24.6406 15.165 24.1106 15.27 23.5206 15.27ZM22.8906 13.26C23.3006 13.26 23.6556 13.16 23.9556 12.96C24.2656 12.76 24.5056 12.48 24.6756 12.12C24.8456 11.75 24.9306 11.335 24.9306 10.875C24.9306 10.405 24.8456 9.995 24.6756 9.645C24.5056 9.295 24.2656 9.025 23.9556 8.835C23.6556 8.635 23.3006 8.535 22.8906 8.535C22.5306 8.535 22.1906 8.62 21.8706 8.79C21.5506 8.96 21.2906 9.205 21.0906 9.525C20.9006 9.835 20.8056 10.215 20.8056 10.665V11.22C20.8056 11.65 20.9056 12.02 21.1056 12.33C21.3156 12.63 21.5806 12.86 21.9006 13.02C22.2206 13.18 22.5506 13.26 22.8906 13.26ZM32.7775 15.285C32.0775 15.285 31.4575 15.165 30.9175 14.925C30.3875 14.685 29.9425 14.365 29.5825 13.965C29.2325 13.555 28.9625 13.1 28.7725 12.6C28.5925 12.09 28.5025 11.57 28.5025 11.04V10.74C28.5025 10.19 28.5925 9.665 28.7725 9.165C28.9625 8.655 29.2325 8.2 29.5825 7.8C29.9325 7.4 30.3675 7.085 30.8875 6.855C31.4175 6.615 32.0175 6.495 32.6875 6.495C33.5675 6.495 34.3075 6.695 34.9075 7.095C35.5175 7.485 35.9825 8 36.3025 8.64C36.6225 9.27 36.7825 9.96 36.7825 10.71V11.52H29.5075V10.155H35.3275L34.5475 10.785C34.5475 10.295 34.4775 9.875 34.3375 9.525C34.1975 9.175 33.9875 8.91 33.7075 8.73C33.4375 8.54 33.0975 8.445 32.6875 8.445C32.2675 8.445 31.9125 8.54 31.6225 8.73C31.3325 8.92 31.1125 9.2 30.9625 9.57C30.8125 9.93 30.7375 10.375 30.7375 10.905C30.7375 11.395 30.8075 11.825 30.9475 12.195C31.0875 12.555 31.3075 12.835 31.6075 13.035C31.9075 13.235 32.2975 13.335 32.7775 13.335C33.2175 13.335 33.5775 13.25 33.8575 13.08C34.1375 12.91 34.3275 12.7 34.4275 12.45H36.6325C36.5125 13 36.2775 13.49 35.9275 13.92C35.5775 14.35 35.1375 14.685 34.6075 14.925C34.0775 15.165 33.4675 15.285 32.7775 15.285ZM38.3728 15V6.78H40.2778V10.305H40.2328C40.2328 9.145 40.4778 8.25 40.9678 7.62C41.4678 6.99 42.1878 6.675 43.1278 6.675H43.4428V8.745H42.8428C42.1828 8.745 41.6728 8.925 41.3128 9.285C40.9528 9.635 40.7728 10.145 40.7728 10.815V15H38.3728ZM44.8307 18.255V16.215H46.5407C46.8007 16.215 47.0207 16.18 47.2007 16.11C47.3807 16.05 47.5257 15.945 47.6357 15.795C47.7457 15.645 47.8357 15.44 47.9057 15.18L49.9307 6.78H52.2107L49.9157 15.66C49.7557 16.3 49.5307 16.81 49.2407 17.19C48.9607 17.57 48.5807 17.84 48.1007 18C47.6307 18.17 47.0307 18.255 46.3007 18.255H44.8307ZM47.4107 14.82V12.945H49.1507V14.82H47.4107ZM46.4207 14.82L43.9007 6.78H46.3157L48.7007 14.82H46.4207ZM52.5604 15L55.1104 10.59L55.0504 10.965L52.6504 6.78H55.2454L56.7304 9.57H56.9704L58.3654 6.78H60.8104L58.5154 10.995L58.5754 10.68L61.2754 15H58.6654L56.8954 12.015H56.6554L54.9904 15H52.5604Z" fill="black"/>
</svg>
