<svg width="56" height="48" viewBox="0 0 56 48" fill="none" xmlns="http://www.w3.org/2000/svg">
<path d="M17.3457 14.4523L18.7511 15.8616L22.9007 11.7006L22.8725 19.9918L24.9102 22.0351L24.9665 6.81055L17.3457 14.4523Z" fill="black"/>
<path d="M27.5625 4.20243L27.4883 24.625L29.6693 26.812L29.7589 2L27.5625 4.20243Z" fill="black"/>
<path d="M32.1758 16.2331L33.274 17.3344L34.3798 16.2254L34.4874 11.4638L33.3943 10.3677L32.2833 11.4817L32.1758 16.2357V16.2331Z" fill="black"/>
<path d="M36.3418 18.8001L37.44 19.9013L38.5459 18.7924L38.6534 8.89686L37.5603 7.80078L36.4493 8.91483L36.3418 18.8027V18.8001Z" fill="black"/>
<path d="M16.3689 42.7361C15.8776 42.7361 15.4449 42.6334 15.0709 42.4281C14.6969 42.2154 14.4036 41.9111 14.1909 41.5151C13.9783 41.1191 13.8646 40.6351 13.8499 40.0631H14.0589V42.5381H12.6619V34.5081H14.4219V38.5891L14.0039 39.1171C14.0259 38.5084 14.1396 37.9988 14.3449 37.5881C14.5576 37.1701 14.8473 36.8584 15.2139 36.6531C15.5806 36.4404 15.9986 36.3341 16.4679 36.3341C16.8786 36.3341 17.2489 36.4111 17.5789 36.5651C17.9163 36.7118 18.2023 36.9244 18.4369 37.2031C18.6716 37.4744 18.8513 37.7971 18.9759 38.1711C19.1079 38.5451 19.1739 38.9521 19.1739 39.3921V39.6341C19.1739 40.0741 19.1079 40.4811 18.9759 40.8551C18.8513 41.2291 18.6643 41.5591 18.4149 41.8451C18.1729 42.1238 17.8796 42.3438 17.5349 42.5051C17.1903 42.6591 16.8016 42.7361 16.3689 42.7361ZM15.9069 41.2621C16.2076 41.2621 16.4679 41.1888 16.6879 41.0421C16.9153 40.8954 17.0913 40.6901 17.2159 40.4261C17.3406 40.1548 17.4029 39.8504 17.4029 39.5131C17.4029 39.1684 17.3406 38.8678 17.2159 38.6111C17.0913 38.3544 16.9153 38.1564 16.6879 38.0171C16.4679 37.8704 16.2076 37.7971 15.9069 37.7971C15.6429 37.7971 15.3936 37.8594 15.1589 37.9841C14.9243 38.1088 14.7336 38.2884 14.5869 38.5231C14.4476 38.7504 14.3779 39.0291 14.3779 39.3591V39.7661C14.3779 40.0814 14.4513 40.3528 14.5979 40.5801C14.7519 40.8001 14.9463 40.9688 15.1809 41.0861C15.4156 41.2034 15.6576 41.2621 15.9069 41.2621ZM23.1573 42.7471C22.644 42.7471 22.1893 42.6591 21.7933 42.4831C21.4047 42.3071 21.0783 42.0724 20.8143 41.7791C20.5577 41.4784 20.3597 41.1448 20.2203 40.7781C20.0883 40.4041 20.0223 40.0228 20.0223 39.6341V39.4141C20.0223 39.0108 20.0883 38.6258 20.2203 38.2591C20.3597 37.8851 20.5577 37.5514 20.8143 37.2581C21.071 36.9648 21.39 36.7338 21.7713 36.5651C22.16 36.3891 22.6 36.3011 23.0913 36.3011C23.7367 36.3011 24.2793 36.4478 24.7193 36.7411C25.1667 37.0271 25.5077 37.4048 25.7423 37.8741C25.977 38.3361 26.0943 38.8421 26.0943 39.3921V39.9861H20.7593V38.9851H25.0273L24.4553 39.4471C24.4553 39.0878 24.404 38.7798 24.3013 38.5231C24.1987 38.2664 24.0447 38.0721 23.8393 37.9401C23.6413 37.8008 23.392 37.7311 23.0913 37.7311C22.7833 37.7311 22.523 37.8008 22.3103 37.9401C22.0977 38.0794 21.9363 38.2848 21.8263 38.5561C21.7163 38.8201 21.6613 39.1464 21.6613 39.5351C21.6613 39.8944 21.7127 40.2098 21.8153 40.4811C21.918 40.7451 22.0793 40.9504 22.2993 41.0971C22.5193 41.2438 22.8053 41.3171 23.1573 41.3171C23.48 41.3171 23.744 41.2548 23.9493 41.1301C24.1547 41.0054 24.294 40.8514 24.3673 40.6681H25.9843C25.8963 41.0714 25.724 41.4308 25.4673 41.7461C25.2107 42.0614 24.888 42.3071 24.4993 42.4831C24.1107 42.6591 23.6633 42.7471 23.1573 42.7471ZM27.2606 42.5381V36.5101H28.6576V39.0951H28.6246C28.6246 38.2444 28.8042 37.5881 29.1636 37.1261C29.5302 36.6641 30.0582 36.4331 30.7476 36.4331H30.9786V37.9511H30.5386C30.0546 37.9511 29.6806 38.0831 29.4166 38.3471C29.1526 38.6038 29.0206 38.9778 29.0206 39.4691V42.5381H27.2606ZM31.9963 44.9251V43.4291H33.2503C33.441 43.4291 33.6023 43.4034 33.7343 43.3521C33.8663 43.3081 33.9727 43.2311 34.0533 43.1211C34.134 43.0111 34.2 42.8608 34.2513 42.6701L35.7363 36.5101H37.4083L35.7253 43.0221C35.608 43.4914 35.443 43.8654 35.2303 44.1441C35.025 44.4228 34.7463 44.6208 34.3943 44.7381C34.0497 44.8628 33.6097 44.9251 33.0743 44.9251H31.9963ZM33.8883 42.4061V41.0311H35.1643V42.4061H33.8883ZM33.1623 42.4061L31.3143 36.5101H33.0853L34.8343 42.4061H33.1623ZM37.6648 42.5381L39.5348 39.3041L39.4908 39.5791L37.7308 36.5101H39.6338L40.7228 38.5561H40.8988L41.9218 36.5101H43.7148L42.0318 39.6011L42.0758 39.3701L44.0558 42.5381H42.1418L40.8438 40.3491H40.6678L39.4468 42.5381H37.6648Z" fill="black"/>
</svg>
