<svg width="40" height="40" viewBox="0 0 40 40" fill="none" xmlns="http://www.w3.org/2000/svg">
<rect width="40" height="40" rx="6" fill="#413DF0"/>
<path d="M11.4995 24.0263H19.5521C19.5521 26.2632 19.9995 28.5 23.1311 28.5C25.2785 28.5 26.2627 26.5614 26.2627 24.9211V15.9737C26.2627 13.2895 27.6048 11.5 29.3942 11.5H15.5258C12.3048 11.5 11.4995 13.886 11.4995 15.0789V24.0263Z" fill="white" fill-opacity="0.42"/>
<path d="M23.1311 28.5001C20.3124 28.5001 19.5522 26.7106 19.5522 24.0264H7.02588C7.02588 26.2632 7.92062 28.5001 10.1575 28.5001C15.3768 28.5001 24.5627 28.5001 23.1311 28.5001Z" fill="white" fill-opacity="0.69"/>
<path d="M29.3948 11.5C27.6053 11.5 26.2632 13.2895 26.2632 15.9737H32.9737C32.9737 14.6316 32.5263 11.5 29.3948 11.5Z" fill="white" fill-opacity="0.2"/>
</svg>
