<svg width="462" height="421" viewBox="0 0 462 421" fill="none" xmlns="http://www.w3.org/2000/svg">
<circle cx="231" cy="210" r="52.5" fill="#859BEC" fill-opacity="0.26" stroke="#4967D4" stroke-width="9"/>
<circle cx="231" cy="210" r="61.5" stroke="#859BEC" stroke-width="9"/>
<path d="M251.374 152.448V183.327H289.652V175.124C289.652 165.653 284.331 157.544 276.767 154.148C274.332 153.056 271.657 152.448 268.854 152.448H251.374Z" fill="#D6D6D6"/>
<path d="M198.278 175.37V268.552H242.261C253.048 268.552 261.793 259.835 261.793 249.084V182.982H261.7V177.73C261.7 170.748 264.427 164.425 268.827 159.851C271.213 157.371 274.091 155.408 277.304 154.129C275.029 153.049 272.531 152.448 269.915 152.448H220.347C208.156 152.448 198.278 162.71 198.278 175.37Z" fill="white"/>
<path d="M172.348 241.379L172.348 245.975C172.348 254.998 177.133 262.782 184.058 266.396C184.366 266.557 184.679 266.708 184.997 266.859C187.392 267.947 190.014 268.552 192.76 268.552H243.965V268.323C243.734 268.289 243.507 268.245 243.281 268.201C241.83 267.918 240.433 267.459 239.108 266.859C231.682 263.479 226.458 255.408 226.458 245.98V241.384L172.348 241.379Z" fill="#D6D6D6"/>
<rect x="206.922" y="183.327" width="46.9217" height="3.70544" fill="#D9D9D9"/>
<rect x="206.922" y="194.443" width="46.9217" height="3.70544" fill="#D9D9D9"/>
<rect x="206.922" y="206.795" width="46.9217" height="3.70544" fill="#D9D9D9"/>
<rect x="206.922" y="217.911" width="29.6348" height="3.70544" fill="#D9D9D9"/>
<circle cx="231" cy="210.5" r="170" stroke="#859BEC" stroke-opacity="0.06" stroke-width="80"/>
<circle cx="231" cy="210" r="146.5" stroke="white" stroke-opacity="0.31" stroke-width="3"/>
</svg>
