<svg width="342" height="222" viewBox="0 0 342 222" fill="none" xmlns="http://www.w3.org/2000/svg">
<g clip-path="url(#clip0_114_5997)" filter="url(#filter0_i_114_5997)">
<rect width="342" height="222" fill="white"/>
<line x1="8" y1="101.5" x2="334" y2="101.5" stroke="#EEEEEE"/>
<line x1="8" y1="118.5" x2="334" y2="118.5" stroke="#EEEEEE"/>
<line x1="128.5" y1="-52.5" x2="128.5" y2="273.5" stroke="#EEEEEE"/>
<line x1="145.5" y1="-52.5" x2="145.5" y2="273.5" stroke="#EEEEEE"/>
<line x1="162.5" y1="-52.5" x2="162.5" y2="273.5" stroke="#EEEEEE"/>
<line x1="179.5" y1="-52.5" x2="179.5" y2="273.5" stroke="#EEEEEE"/>
<line x1="196.5" y1="-52.5" x2="196.5" y2="273.5" stroke="#EEEEEE"/>
<line x1="213.5" y1="-52.5" x2="213.5" y2="273.5" stroke="#EEEEEE"/>
<g filter="url(#filter1_d_114_5997)">
<rect x="68" y="84" width="206" height="54" rx="6" fill="white"/>
<rect x="68.5" y="84.5" width="205" height="53" rx="5.5" stroke="#6899E2"/>
<circle cx="97" cy="111" r="15" fill="#D9D9D9"/>
<rect x="128" y="96" width="54" height="10" rx="5" fill="#D1D1D1"/>
<rect x="128" y="113" width="85" height="10" rx="5" fill="#E8E8E8"/>
</g>
<rect x="68.5" y="150.5" width="205" height="53" rx="5.5" fill="white"/>
<rect x="68.5" y="150.5" width="205" height="53" rx="5.5" stroke="#E3E3E3"/>
<circle cx="97" cy="177" r="15" fill="#D9D9D9"/>
<rect x="128" y="162" width="54" height="10" rx="5" fill="#D1D1D1"/>
<rect x="128" y="179" width="85" height="10" rx="5" fill="#E8E8E8"/>
<rect x="68.5" y="18.5" width="205" height="53" rx="5.5" fill="white"/>
<rect x="68.5" y="18.5" width="205" height="53" rx="5.5" stroke="#E3E3E3"/>
<circle cx="97" cy="45" r="15" fill="#D9D9D9"/>
<rect x="128" y="30" width="54" height="10" rx="5" fill="#D1D1D1"/>
<rect x="128" y="47" width="85" height="10" rx="5" fill="#E8E8E8"/>
</g>
<defs>
<filter id="filter0_i_114_5997" x="0" y="0" width="342" height="222" filterUnits="userSpaceOnUse" color-interpolation-filters="sRGB">
<feFlood flood-opacity="0" result="BackgroundImageFix"/>
<feBlend mode="normal" in="SourceGraphic" in2="BackgroundImageFix" result="shape"/>
<feColorMatrix in="SourceAlpha" type="matrix" values="0 0 0 0 0 0 0 0 0 0 0 0 0 0 0 0 0 0 127 0" result="hardAlpha"/>
<feMorphology radius="45" operator="erode" in="SourceAlpha" result="effect1_innerShadow_114_5997"/>
<feOffset/>
<feGaussianBlur stdDeviation="29.25"/>
<feComposite in2="hardAlpha" operator="arithmetic" k2="-1" k3="1"/>
<feColorMatrix type="matrix" values="0 0 0 0 1 0 0 0 0 1 0 0 0 0 1 0 0 0 1 0"/>
<feBlend mode="normal" in2="shape" result="effect1_innerShadow_114_5997"/>
</filter>
<filter id="filter1_d_114_5997" x="17" y="33" width="308" height="156" filterUnits="userSpaceOnUse" color-interpolation-filters="sRGB">
<feFlood flood-opacity="0" result="BackgroundImageFix"/>
<feColorMatrix in="SourceAlpha" type="matrix" values="0 0 0 0 0 0 0 0 0 0 0 0 0 0 0 0 0 0 127 0" result="hardAlpha"/>
<feOffset/>
<feGaussianBlur stdDeviation="25.5"/>
<feComposite in2="hardAlpha" operator="out"/>
<feColorMatrix type="matrix" values="0 0 0 0 0.109834 0 0 0 0 0.437958 0 0 0 0 0.930143 0 0 0 0.27 0"/>
<feBlend mode="normal" in2="BackgroundImageFix" result="effect1_dropShadow_114_5997"/>
<feBlend mode="normal" in="SourceGraphic" in2="effect1_dropShadow_114_5997" result="shape"/>
</filter>
<clipPath id="clip0_114_5997">
<rect width="342" height="222" fill="white"/>
</clipPath>
</defs>
</svg>
