<svg width="485" height="391" viewBox="0 0 485 391" fill="none" xmlns="http://www.w3.org/2000/svg">
<g clipPath="url(#clip0_193_986)">
<path d="M661.025 347.813C661.025 347.813 586.356 390.723 393.798 340.347C201.24 289.971 127.506 165.454 233.234 92.5741C233.234 92.5741 147.344 111.729 122.996 204.799C98.6474 297.868 160.421 450.421 391.857 510.968C623.292 571.515 704.895 524.646 704.895 524.646L661.025 347.813Z" fill="url(#paint0_linear_193_986)"/>
<path opacity="0.5" d="M-133.182 571.175C-95.0641 547.353 -65.107 512.479 -38.9943 475.871C-5.59173 429.012 22.4566 378.555 44.6252 325.446C55.1168 300.298 64.2844 274.589 75.733 249.878C87.883 223.679 102.542 198.72 119.505 175.35C145.782 139.099 180.567 105.146 224.614 97.25C177.293 133.654 146.662 189.171 142.427 248.75C140.947 269.582 142.541 290.504 143.49 311.386C145.634 357.773 144.452 404.862 132.129 449.621C115.083 510.811 78.1606 564.584 27.1879 602.456C18.6945 598.802 9.90435 595.881 0.913414 593.724C-18.2772 589.518 -37.652 585.307 -57.2816 585.344C-70.568 585.369 -83.8223 587.346 -97.0995 586.845C-110.377 586.343 -123.4 580.178 -133.182 571.175Z" fill="url(#paint1_linear_193_986)"/>
<path opacity="0.2" d="M509.451 262.39C509.451 262.39 460.559 290.495 334.45 257.503C208.341 224.511 160.077 142.967 229.3 95.2746C229.3 95.2746 173.058 107.811 157.111 168.769C141.163 229.728 181.604 329.659 333.119 369.298C484.634 408.937 538.115 378.245 538.115 378.245L509.451 262.39Z" fill="url(#paint2_radial_193_986)"/>
<circle cx="219.012" cy="100" r="100" fill="#D9DADE" fill-opacity="0.29"/>
<g clipPath="url(#clip1_193_986)">
<path d="M242.549 42.3101C288.42 13.12 320.385 15.0395 331.233 16.9463C332.398 17.1501 333.436 17.8001 334.125 18.7568C334.815 19.7136 335.101 20.9011 334.921 22.0651C333.263 32.9426 324.909 63.7196 282.508 97.7214C282.508 97.7214 257.419 117.954 223.27 123.751L211.06 106.846L198.85 89.928C215.327 59.5477 242.549 42.3101 242.549 42.3101Z" fill="white"/>
<path d="M190.868 104.785L207.127 126.873L214.954 119.195L200.675 99.8457L190.868 104.785Z" fill="white"/>
<path d="M257.092 68.6245C252.629 58.9431 256.894 47.4919 266.618 43.0474C276.342 38.603 287.842 42.8484 292.305 52.5298C296.769 62.2112 292.504 73.6625 282.78 78.1069C273.056 82.5514 261.556 78.3059 257.092 68.6245Z" fill="#4967D4"/>
<path d="M268.024 51.3072C266.172 52.6449 264.76 54.4992 263.967 56.6358C263.173 58.7724 263.034 61.0952 263.567 63.3105C264.099 65.5258 265.279 67.5342 266.958 69.0816C268.637 70.6291 270.739 71.646 272.999 72.004C275.258 72.3619 277.573 72.0447 279.652 71.0925C281.73 70.1403 283.478 68.5959 284.675 66.6545C285.872 64.7131 286.463 62.462 286.375 60.1858C286.287 57.9095 285.523 55.7105 284.18 53.8667C283.287 52.6424 282.162 51.605 280.867 50.8138C279.573 50.0226 278.134 49.493 276.634 49.2554C275.134 49.0177 273.601 49.0766 272.124 49.4286C270.646 49.7807 269.253 50.4191 268.024 51.3072Z" fill="#1B3183"/>
<path d="M203.015 90.7759L224.349 119.867L218.247 124.304L196.912 95.2124L203.015 90.7759Z" fill="#4967D4"/>
<path d="M214.729 88.4031L229.899 109.09L223.797 113.526L208.627 92.8395L214.729 88.4031Z" fill="#4967D4"/>
<path d="M269.876 99.0713L260.374 134.179C259.758 136.45 258.683 138.572 257.215 140.414C255.746 142.257 253.915 143.781 251.834 144.894L209.908 167.342C209.426 167.601 208.892 167.751 208.346 167.781C207.799 167.811 207.252 167.72 206.744 167.516C206.237 167.312 205.781 166.998 205.409 166.598C205.037 166.198 204.758 165.721 204.592 165.202C204.376 164.526 204.358 163.803 204.541 163.118C204.723 162.432 205.099 161.813 205.623 161.333C212.55 155.005 237.474 130.67 234.529 109.736L269.876 99.0713Z" fill="#4967D4"/>
<path d="M236.03 52.9122L199.531 51.2953C197.174 51.1899 194.82 51.5639 192.613 52.3945C190.406 53.2252 188.391 54.4949 186.694 56.1264L152.447 89.0577C152.053 89.4376 151.748 89.8991 151.553 90.4095C151.359 90.9199 151.279 91.4666 151.32 92.011C151.362 92.5554 151.523 93.084 151.792 93.5594C152.062 94.0349 152.433 94.4455 152.88 94.7621C153.458 95.1727 154.143 95.4091 154.853 95.4432C155.563 95.4773 156.268 95.3076 156.884 94.9544C165.064 90.283 195.921 74.0693 215.014 83.3148L236.03 52.9122Z" fill="#4967D4"/>
<path d="M173.914 130.517L176.732 134.412C176.883 134.628 177.076 134.811 177.299 134.952C177.521 135.092 177.77 135.187 178.031 135.23C178.291 135.273 178.557 135.265 178.814 135.204C179.07 135.144 179.312 135.033 179.525 134.878L248.765 86.7295C249.033 86.5443 249.26 86.3076 249.435 86.0334C249.609 85.7592 249.726 85.453 249.78 85.1329C249.833 84.8128 249.822 84.4852 249.746 84.1696C249.671 83.854 249.532 83.5566 249.339 83.2951L244.971 77.3284C244.777 77.0665 244.533 76.8455 244.253 76.6782C243.972 76.511 243.661 76.4009 243.338 76.3542C243.015 76.3075 242.685 76.3252 242.369 76.4063C242.052 76.4874 241.755 76.6303 241.494 76.8266L174.312 127.834C173.917 128.148 173.655 128.599 173.581 129.097C173.507 129.596 173.626 130.103 173.914 130.517Z" fill="#4967D4"/>
</g>
</g>
<defs>
<linearGradient id="paint0_linear_193_986" x1="233" y1="453.963" x2="143.5" y2="116.963" gradientUnits="userSpaceOnUse">
<stop stop-color="#78E2FF" stop-opacity="0"/>
<stop offset="0.382447" stop-color="#67C7FF" stop-opacity="0.177083"/>
<stop offset="0.627604" stop-color="#428EFF" stop-opacity="0.56"/>
<stop offset="1" stop-color="#0AD3FF"/>
</linearGradient>
<linearGradient id="paint1_linear_193_986" x1="-79.5" y1="646.963" x2="193.512" y2="113.964" gradientUnits="userSpaceOnUse">
<stop stop-color="#9B9DA1" stop-opacity="0"/>
<stop offset="0.739583" stop-color="#9B9DA1" stop-opacity="0.21"/>
<stop offset="0.99" stop-color="#9B9DA1" stop-opacity="0.6"/>
</linearGradient>
<radialGradient id="paint2_radial_193_986" cx="0" cy="0" r="1" gradientUnits="userSpaceOnUse" gradientTransform="translate(588 271.463) rotate(-159.42) scale(413.916 692.642)">
<stop stop-color="#D8D9DC" stop-opacity="0"/>
<stop offset="0.182292" stop-color="#D8D9DC" stop-opacity="0"/>
<stop offset="0.333333" stop-color="#D8D9DC" stop-opacity="0.1"/>
<stop offset="0.59375" stop-color="#9B9DA2" stop-opacity="0.26"/>
<stop offset="0.99" stop-color="#A3A4A8"/>
</radialGradient>
<clipPath id="clip0_193_986">
<rect width="485" height="391" fill="white"/>
</clipPath>
<clipPath id="clip1_193_986">
<rect width="184" height="153" fill="white" transform="matrix(-1 0 0 1 335.012 16)"/>
</clipPath>
</defs>
</svg>
