<svg width="40" height="41" viewBox="0 0 40 41" fill="none" xmlns="http://www.w3.org/2000/svg">
<rect y="0.5" width="40" height="40" rx="6" fill="#D11F34"/>
<g filter="url(#filter0_d_158_969)">
<circle cx="11" cy="20.5" r="3" fill="white" fill-opacity="0.3" shape-rendering="crispEdges"/>
<circle cx="11" cy="20.5" r="2.5" stroke="white" shape-rendering="crispEdges"/>
</g>
<circle cx="29" cy="20.5" r="2.5" fill="#D9D9D9" fill-opacity="0.3" stroke="white"/>
<path d="M24.3536 20.8536C24.5488 20.6583 24.5488 20.3417 24.3536 20.1464L21.1716 16.9645C20.9763 16.7692 20.6597 16.7692 20.4645 16.9645C20.2692 17.1597 20.2692 17.4763 20.4645 17.6716L23.2929 20.5L20.4645 23.3284C20.2692 23.5237 20.2692 23.8403 20.4645 24.0355C20.6597 24.2308 20.9763 24.2308 21.1716 24.0355L24.3536 20.8536ZM13 21H24V20H13V21Z" fill="white"/>
<defs>
<filter id="filter0_d_158_969" x="5" y="14.5" width="12" height="12" filterUnits="userSpaceOnUse" color-interpolation-filters="sRGB">
<feFlood flood-opacity="0" result="BackgroundImageFix"/>
<feColorMatrix in="SourceAlpha" type="matrix" values="0 0 0 0 0 0 0 0 0 0 0 0 0 0 0 0 0 0 127 0" result="hardAlpha"/>
<feMorphology radius="3" operator="dilate" in="SourceAlpha" result="effect1_dropShadow_158_969"/>
<feOffset/>
<feComposite in2="hardAlpha" operator="out"/>
<feColorMatrix type="matrix" values="0 0 0 0 1 0 0 0 0 1 0 0 0 0 1 0 0 0 0.25 0"/>
<feBlend mode="normal" in2="BackgroundImageFix" result="effect1_dropShadow_158_969"/>
<feBlend mode="normal" in="SourceGraphic" in2="effect1_dropShadow_158_969" result="shape"/>
</filter>
</defs>
</svg>
