<svg width="52" height="12" viewBox="0 0 52 12" fill="none" xmlns="http://www.w3.org/2000/svg">
<path d="M0 10.8522V9.92795L4.2326 4.65101H0.196512V3.21997H6.40937V4.29325L2.26746 9.49566H6.5303V10.8522H0Z" fill="#3A3D48"/>
<path d="M11.6689 11.0157C10.2782 11.0157 9.25027 10.6728 8.60026 9.98711C7.95026 9.30141 7.63281 8.31757 7.63281 7.03561C7.63281 5.75364 7.96537 4.7698 8.61538 4.0841C9.26539 3.39839 10.2933 3.05554 11.6689 3.05554C13.0596 3.05554 14.0875 3.39839 14.7375 4.0841C15.3875 4.7698 15.7201 5.75364 15.7201 7.03561C15.7201 8.31757 15.4027 9.30141 14.7527 9.98711C14.0875 10.6728 13.0596 11.0157 11.6689 11.0157ZM11.6689 9.52501C12.4852 9.52501 13.0596 9.33122 13.4073 8.94365C13.755 8.55608 13.9212 7.9151 13.9212 7.03561C13.9212 6.15612 13.755 5.51513 13.4073 5.14247C13.0596 4.7549 12.4852 4.56111 11.6689 4.56111C10.8677 4.56111 10.2933 4.7549 9.94562 5.14247C9.59795 5.53004 9.43167 6.15612 9.43167 7.03561C9.43167 7.9151 9.59795 8.55608 9.94562 8.94365C10.2782 9.33122 10.8526 9.52501 11.6689 9.52501Z" fill="#3A3D48"/>
<path d="M17.4434 10.8517V3.21951H19.0759L19.1515 4.02447C19.4992 3.75615 19.9225 3.53255 20.4062 3.33877C20.8899 3.14498 21.4341 3.05554 22.0085 3.05554C23.0062 3.05554 23.7318 3.27914 24.2004 3.74125C24.6539 4.20335 24.8806 4.91887 24.8806 5.9027V10.8517H23.112V5.99215C23.112 5.39588 22.9911 4.9934 22.7492 4.7549C22.5074 4.51639 22.0388 4.39714 21.3736 4.39714C20.9655 4.39714 20.5725 4.47167 20.1946 4.63564C19.8015 4.79962 19.4841 5.00831 19.2271 5.26172V10.8517H17.4434Z" fill="#3A3D48"/>
<path d="M29.9147 11.016C29.2193 11.016 28.5996 10.8967 28.0705 10.6582C27.5414 10.4197 27.1182 10.0322 26.831 9.48061C26.5437 8.92906 26.3926 8.19864 26.3926 7.27443C26.3926 6.36512 26.5437 5.58998 26.8612 4.9639C27.1786 4.33782 27.617 3.86081 28.1763 3.53287C28.7356 3.20492 29.3705 3.05586 30.081 3.05586C30.5496 3.05586 30.9577 3.11548 31.3356 3.21983C31.6984 3.32417 32.0461 3.48815 32.3938 3.71175V0H34.1775V10.852H32.6659L32.545 10.0918C32.1973 10.4048 31.8194 10.6284 31.3961 10.7775C30.9729 10.9415 30.474 11.016 29.9147 11.016ZM30.3833 9.6893C31.1845 9.6893 31.8345 9.42098 32.3787 8.88434V5.06825C31.8647 4.62105 31.2298 4.39745 30.4589 4.39745C29.7031 4.39745 29.1438 4.65086 28.7659 5.14278C28.3879 5.6347 28.1914 6.35022 28.1914 7.30424C28.1914 8.21354 28.3728 8.83962 28.7205 9.18247C29.0682 9.52533 29.6275 9.6893 30.3833 9.6893Z" fill="#3A3D48"/>
<path d="M38.5466 11.0161C38.0629 11.0161 37.6094 10.9267 37.1861 10.7627C36.7629 10.5839 36.4303 10.3304 36.1885 9.98759C35.9315 9.64474 35.8105 9.21245 35.8105 8.69072C35.8105 7.96029 36.0675 7.37893 36.5664 6.93174C37.0652 6.48454 37.8513 6.26094 38.9094 6.26094H41.3885V5.91809C41.3885 5.56033 41.328 5.26219 41.2222 5.0535C41.1013 4.84481 40.9048 4.68084 40.6025 4.5914C40.3001 4.50196 39.8618 4.44233 39.2873 4.44233C38.3803 4.44233 37.5187 4.57649 36.7175 4.84481V3.54793C37.0652 3.41378 37.4885 3.29452 37.9873 3.20508C38.4862 3.11564 39.0303 3.07092 39.6048 3.07092C40.7385 3.07092 41.6001 3.29452 42.1897 3.74172C42.7792 4.18892 43.0816 4.93425 43.0816 5.9479V10.8522H41.5699L41.449 10.077C41.1315 10.3752 40.7385 10.6137 40.285 10.7627C39.8315 10.9267 39.242 11.0161 38.5466 11.0161ZM39.0303 9.76399C39.5594 9.76399 40.028 9.67455 40.4211 9.49567C40.8141 9.31679 41.1466 9.07829 41.3885 8.78016V7.43856H38.9397C38.4106 7.43856 38.0327 7.54291 37.8059 7.73669C37.5792 7.93048 37.4582 8.24352 37.4582 8.646C37.4582 9.04847 37.5943 9.3317 37.8664 9.49567C38.1385 9.67455 38.5315 9.76399 39.0303 9.76399Z" fill="#3A3D48"/>
<path d="M44.125 10.8522L47.0727 6.97644L44.2308 3.21997H46.1355L48.025 5.769L49.9146 3.21997H51.8193L49.0227 6.97644L51.9553 10.8522H50.0355L48.0402 8.19878L46.0448 10.8522H44.125Z" fill="#3A3D48"/>
</svg>
