<svg width="462" height="233" viewBox="0 0 462 233" fill="none" xmlns="http://www.w3.org/2000/svg">
<g clip-path="url(#clip0_4768_38788)">
<circle cx="231" cy="116.5" r="170" stroke="#879EF3" stroke-opacity="0.1" stroke-width="80"/>
<circle cx="231" cy="116" r="146.5" stroke="#D1D7EC" stroke-opacity="0.04" stroke-width="3"/>
<circle cx="231" cy="115.903" r="52.5" fill="#859BEC" fill-opacity="0.04" stroke="#4967D4" stroke-width="9"/>
<circle cx="231" cy="115.903" r="61.5" stroke="#859BEC" stroke-width="9"/>
<path d="M251.374 58.3514V89.2301H289.652V81.0278C289.652 71.5564 284.331 63.4473 276.767 60.0517C274.332 58.959 271.657 58.3514 268.854 58.3514H251.374Z" fill="#D6D6D6"/>
<path d="M198.278 81.2737V174.455H242.261C253.048 174.455 261.793 165.739 261.793 154.987V88.8854H261.7V83.6333C261.7 76.6515 264.427 70.3286 268.827 65.7548C271.213 63.2741 274.091 61.3118 277.304 60.0327C275.029 58.9522 272.531 58.3514 269.916 58.3514H220.347C208.156 58.3514 198.278 68.6134 198.278 81.2737Z" fill="white"/>
<path d="M172.348 147.282L172.348 151.878C172.348 160.901 177.133 168.685 184.058 172.299C184.366 172.46 184.679 172.612 184.997 172.763C187.392 173.85 190.014 174.455 192.76 174.455H243.965V174.226C243.734 174.192 243.507 174.148 243.281 174.104C241.831 173.821 240.433 173.363 239.108 172.763C231.682 169.383 226.458 161.311 226.458 151.883V147.287L172.348 147.282Z" fill="#D6D6D6"/>
<rect x="206.922" y="89.2301" width="46.9217" height="3.70544" fill="#D9D9D9"/>
<rect x="206.922" y="100.346" width="46.9217" height="3.70544" fill="#D9D9D9"/>
<rect x="206.922" y="112.698" width="46.9217" height="3.70544" fill="#D9D9D9"/>
<rect x="206.922" y="123.814" width="29.6348" height="3.70544" fill="#D9D9D9"/>
</g>
<defs>
<clipPath id="clip0_4768_38788">
<rect width="462" height="233" fill="white"/>
</clipPath>
</defs>
</svg>
