<svg width="462" height="233" viewBox="0 0 462 233" fill="none" xmlns="http://www.w3.org/2000/svg">
<g clip-path="url(#clip0_4768_39384)">
<g clip-path="url(#clip1_4768_39384)">
<path d="M266.937 253.405C260.234 253.405 254.782 247.953 254.782 241.25C254.782 234.547 260.234 229.095 266.937 229.095C273.641 229.095 279.092 234.547 279.092 241.25C279.092 247.953 273.641 253.405 266.937 253.405ZM266.937 235.53C263.783 235.53 261.217 238.095 261.217 241.25C261.217 244.405 263.783 246.97 266.937 246.97C270.092 246.97 272.657 244.405 272.657 241.25C272.657 238.095 270.092 235.53 266.937 235.53ZM177.562 253.405C170.859 253.405 165.407 247.953 165.407 241.25C165.407 234.547 170.859 229.095 177.562 229.095C184.266 229.095 189.717 234.547 189.717 241.25C189.717 247.953 184.266 253.405 177.562 253.405ZM177.562 235.53C174.408 235.53 171.842 238.095 171.842 241.25C171.842 244.405 174.408 246.97 177.562 246.97C180.717 246.97 183.282 244.405 183.282 241.25C183.282 238.095 180.717 235.53 177.562 235.53ZM132.875 253.405C126.172 253.405 120.72 247.953 120.72 241.25C120.72 234.547 126.172 229.095 132.875 229.095C139.578 229.095 145.03 234.547 145.03 241.25C145.03 247.953 139.578 253.405 132.875 253.405ZM132.875 235.53C129.72 235.53 127.155 238.095 127.155 241.25C127.155 244.405 129.72 246.97 132.875 246.97C136.03 246.97 138.595 244.405 138.595 241.25C138.595 238.095 136.03 235.53 132.875 235.53ZM305.905 250.188H299.47V232.313H305.914L305.905 250.188ZM100.342 250.188H93.9075V232.313H100.342V250.188ZM73.53 250.188H67.095V232.313H73.53V250.188ZM231.187 244.468H213.312V238.033H231.187V244.468ZM293.75 181.905C287.047 181.905 281.595 176.453 281.595 169.75C281.595 163.047 287.047 157.595 293.75 157.595C300.453 157.595 305.905 163.047 305.905 169.75C305.905 176.453 300.453 181.905 293.75 181.905ZM293.75 164.03C290.595 164.03 288.03 166.595 288.03 169.75C288.03 172.905 290.595 175.47 293.75 175.47C296.905 175.47 299.47 172.905 299.47 169.75C299.47 166.595 296.905 164.03 293.75 164.03ZM186.5 181.905C179.797 181.905 174.345 176.453 174.345 169.75C174.345 163.047 179.797 157.595 186.5 157.595C193.203 157.595 198.655 163.047 198.655 169.75C198.655 176.453 193.203 181.905 186.5 181.905ZM186.5 164.03C183.345 164.03 180.78 166.595 180.78 169.75C180.78 172.905 183.345 175.47 186.5 175.47C189.655 175.47 192.22 172.905 192.22 169.75C192.22 166.595 189.655 164.03 186.5 164.03ZM79.25 181.905C72.5468 181.905 67.095 176.453 67.095 169.75C67.095 163.047 72.5468 157.595 79.25 157.595C85.9531 157.595 91.405 163.047 91.405 169.75C91.405 176.453 85.9531 181.905 79.25 181.905ZM79.25 164.03C76.095 164.03 73.53 166.595 73.53 169.75C73.53 172.905 76.095 175.47 79.25 175.47C82.4049 175.47 84.97 172.905 84.97 169.75C84.97 166.595 82.4049 164.03 79.25 164.03ZM258 172.968H222.25V166.533H258V172.968ZM150.75 172.968H115V166.533H150.75V172.968ZM177.562 110.405C170.859 110.405 165.407 104.953 165.407 98.2502C165.407 91.5471 170.859 86.0952 177.562 86.0952C184.266 86.0952 189.717 91.5471 189.717 98.2502C189.717 104.953 184.266 110.405 177.562 110.405ZM177.562 92.5302C174.408 92.5302 171.842 95.0953 171.842 98.2502C171.842 101.405 174.408 103.97 177.562 103.97C180.717 103.97 183.282 101.405 183.282 98.2502C183.282 95.0953 180.717 92.5302 177.562 92.5302ZM132.875 110.405C126.172 110.405 120.72 104.953 120.72 98.2502C120.72 91.5471 126.172 86.0952 132.875 86.0952C139.578 86.0952 145.03 91.5471 145.03 98.2502C145.03 104.953 139.578 110.405 132.875 110.405ZM132.875 92.5302C129.72 92.5302 127.155 95.0953 127.155 98.2502C127.155 101.405 129.72 103.97 132.875 103.97C136.03 103.97 138.595 101.405 138.595 98.2502C138.595 95.0953 136.03 92.5302 132.875 92.5302ZM305.905 107.188H299.47V89.3127H305.914L305.905 107.188ZM216.53 107.188H210.095V89.3127H216.539L216.53 107.188ZM100.342 107.188H93.9075V89.3127H100.342V107.188ZM73.53 107.188H67.095V89.3127H73.53V107.188ZM275.875 101.468H240.125V95.0327H275.875V101.468ZM293.75 38.9052C287.047 38.9052 281.595 33.4533 281.595 26.7502C281.595 20.0471 287.047 14.5952 293.75 14.5952C300.453 14.5952 305.905 20.0471 305.905 26.7502C305.905 33.4533 300.453 38.9052 293.75 38.9052ZM293.75 21.0302C290.595 21.0302 288.03 23.5953 288.03 26.7502C288.03 29.9052 290.595 32.4702 293.75 32.4702C296.905 32.4702 299.47 29.9052 299.47 26.7502C299.47 23.5953 296.905 21.0302 293.75 21.0302ZM249.062 38.9052C242.359 38.9052 236.907 33.4533 236.907 26.7502C236.907 20.0471 242.359 14.5952 249.062 14.5952C255.766 14.5952 261.217 20.0471 261.217 26.7502C261.217 33.4533 255.766 38.9052 249.062 38.9052ZM249.062 21.0302C245.908 21.0302 243.342 23.5953 243.342 26.7502C243.342 29.9052 245.908 32.4702 249.062 32.4702C252.217 32.4702 254.782 29.9052 254.782 26.7502C254.782 23.5953 252.217 21.0302 249.062 21.0302ZM177.562 38.9052C170.859 38.9052 165.407 33.4533 165.407 26.7502C165.407 20.0471 170.859 14.5952 177.562 14.5952C184.266 14.5952 189.717 20.0471 189.717 26.7502C189.717 33.4533 184.266 38.9052 177.562 38.9052ZM177.562 21.0302C174.408 21.0302 171.842 23.5953 171.842 26.7502C171.842 29.9052 174.408 32.4702 177.562 32.4702C180.717 32.4702 183.282 29.9052 183.282 26.7502C183.282 23.5953 180.717 21.0302 177.562 21.0302ZM216.53 35.6877H210.095V17.8127H216.539L216.53 35.6877ZM100.342 35.6877H93.9075V17.8127H100.342V35.6877ZM73.53 35.6877H67.095V17.8127H73.53V35.6877ZM141.812 29.9677H123.937V23.5327H141.812V29.9677Z" fill="#D2DCEE" fill-opacity="0.05"/>
</g>
<g clip-path="url(#clip2_4768_39384)">
<path d="M355.937 218.405C349.234 218.405 343.782 212.953 343.782 206.25C343.782 199.547 349.234 194.095 355.937 194.095C362.641 194.095 368.092 199.547 368.092 206.25C368.092 212.953 362.641 218.405 355.937 218.405ZM355.937 200.53C352.783 200.53 350.217 203.095 350.217 206.25C350.217 209.405 352.783 211.97 355.937 211.97C359.092 211.97 361.657 209.405 361.657 206.25C361.657 203.095 359.092 200.53 355.937 200.53ZM266.562 218.405C259.859 218.405 254.407 212.953 254.407 206.25C254.407 199.547 259.859 194.095 266.562 194.095C273.266 194.095 278.717 199.547 278.717 206.25C278.717 212.953 273.266 218.405 266.562 218.405ZM266.562 200.53C263.408 200.53 260.842 203.095 260.842 206.25C260.842 209.405 263.408 211.97 266.562 211.97C269.717 211.97 272.282 209.405 272.282 206.25C272.282 203.095 269.717 200.53 266.562 200.53ZM221.875 218.405C215.172 218.405 209.72 212.953 209.72 206.25C209.72 199.547 215.172 194.095 221.875 194.095C228.578 194.095 234.03 199.547 234.03 206.25C234.03 212.953 228.578 218.405 221.875 218.405ZM221.875 200.53C218.72 200.53 216.155 203.095 216.155 206.25C216.155 209.405 218.72 211.97 221.875 211.97C225.03 211.97 227.595 209.405 227.595 206.25C227.595 203.095 225.03 200.53 221.875 200.53ZM394.905 215.188H388.47V197.313H394.914L394.905 215.188ZM189.342 215.188H182.907V197.313H189.342V215.188ZM162.53 215.188H156.095V197.313H162.53V215.188ZM320.187 209.468H302.312V203.033H320.187V209.468ZM382.75 146.905C376.047 146.905 370.595 141.453 370.595 134.75C370.595 128.047 376.047 122.595 382.75 122.595C389.453 122.595 394.905 128.047 394.905 134.75C394.905 141.453 389.453 146.905 382.75 146.905ZM382.75 129.03C379.595 129.03 377.03 131.595 377.03 134.75C377.03 137.905 379.595 140.47 382.75 140.47C385.905 140.47 388.47 137.905 388.47 134.75C388.47 131.595 385.905 129.03 382.75 129.03ZM275.5 146.905C268.797 146.905 263.345 141.453 263.345 134.75C263.345 128.047 268.797 122.595 275.5 122.595C282.203 122.595 287.655 128.047 287.655 134.75C287.655 141.453 282.203 146.905 275.5 146.905ZM275.5 129.03C272.345 129.03 269.78 131.595 269.78 134.75C269.78 137.905 272.345 140.47 275.5 140.47C278.655 140.47 281.22 137.905 281.22 134.75C281.22 131.595 278.655 129.03 275.5 129.03ZM168.25 146.905C161.547 146.905 156.095 141.453 156.095 134.75C156.095 128.047 161.547 122.595 168.25 122.595C174.953 122.595 180.405 128.047 180.405 134.75C180.405 141.453 174.953 146.905 168.25 146.905ZM168.25 129.03C165.095 129.03 162.53 131.595 162.53 134.75C162.53 137.905 165.095 140.47 168.25 140.47C171.405 140.47 173.97 137.905 173.97 134.75C173.97 131.595 171.405 129.03 168.25 129.03ZM347 137.968H311.25V131.533H347V137.968ZM239.75 137.968H204V131.533H239.75V137.968ZM266.562 75.4052C259.859 75.4052 254.407 69.9533 254.407 63.2502C254.407 56.5471 259.859 51.0952 266.562 51.0952C273.266 51.0952 278.717 56.5471 278.717 63.2502C278.717 69.9533 273.266 75.4052 266.562 75.4052ZM266.562 57.5302C263.408 57.5302 260.842 60.0953 260.842 63.2502C260.842 66.4051 263.408 68.9702 266.562 68.9702C269.717 68.9702 272.282 66.4051 272.282 63.2502C272.282 60.0953 269.717 57.5302 266.562 57.5302ZM221.875 75.4052C215.172 75.4052 209.72 69.9533 209.72 63.2502C209.72 56.5471 215.172 51.0952 221.875 51.0952C228.578 51.0952 234.03 56.5471 234.03 63.2502C234.03 69.9533 228.578 75.4052 221.875 75.4052ZM221.875 57.5302C218.72 57.5302 216.155 60.0953 216.155 63.2502C216.155 66.4051 218.72 68.9702 221.875 68.9702C225.03 68.9702 227.595 66.4051 227.595 63.2502C227.595 60.0953 225.03 57.5302 221.875 57.5302ZM394.905 72.1877H388.47V54.3127H394.914L394.905 72.1877ZM305.53 72.1877H299.095V54.3127H305.539L305.53 72.1877ZM189.342 72.1877H182.907V54.3127H189.342V72.1877ZM162.53 72.1877H156.095V54.3127H162.53V72.1877ZM364.875 66.4677H329.125V60.0327H364.875V66.4677ZM382.75 3.90522C376.047 3.90522 370.595 -1.54666 370.595 -8.24979C370.595 -14.9529 376.047 -20.4048 382.75 -20.4048C389.453 -20.4048 394.905 -14.9529 394.905 -8.24979C394.905 -1.54666 389.453 3.90522 382.75 3.90522ZM382.75 -13.9698C379.595 -13.9698 377.03 -11.4047 377.03 -8.24979C377.03 -5.09485 379.595 -2.52979 382.75 -2.52979C385.905 -2.52979 388.47 -5.09485 388.47 -8.24979C388.47 -11.4047 385.905 -13.9698 382.75 -13.9698ZM338.062 3.90522C331.359 3.90522 325.907 -1.54666 325.907 -8.24979C325.907 -14.9529 331.359 -20.4048 338.062 -20.4048C344.766 -20.4048 350.217 -14.9529 350.217 -8.24979C350.217 -1.54666 344.766 3.90522 338.062 3.90522ZM338.062 -13.9698C334.908 -13.9698 332.342 -11.4047 332.342 -8.24979C332.342 -5.09485 334.908 -2.52979 338.062 -2.52979C341.217 -2.52979 343.782 -5.09485 343.782 -8.24979C343.782 -11.4047 341.217 -13.9698 338.062 -13.9698ZM266.562 3.90522C259.859 3.90522 254.407 -1.54666 254.407 -8.24979C254.407 -14.9529 259.859 -20.4048 266.562 -20.4048C273.266 -20.4048 278.717 -14.9529 278.717 -8.24979C278.717 -1.54666 273.266 3.90522 266.562 3.90522ZM266.562 -13.9698C263.408 -13.9698 260.842 -11.4047 260.842 -8.24979C260.842 -5.09485 263.408 -2.52979 266.562 -2.52979C269.717 -2.52979 272.282 -5.09485 272.282 -8.24979C272.282 -11.4047 269.717 -13.9698 266.562 -13.9698ZM305.53 0.687714H299.095V-17.1873H305.539L305.53 0.687714ZM189.342 0.687714H182.907V-17.1873H189.342V0.687714ZM162.53 0.687714H156.095V-17.1873H162.53V0.687714ZM230.812 -5.03228H212.937V-11.4673H230.812V-5.03228Z" fill="#59DD96" fill-opacity="0.06"/>
</g>
<g clip-path="url(#clip3_4768_39384)">
<path d="M215.812 137.25C215.365 137.25 214.936 137.072 214.619 136.756C214.303 136.439 214.125 136.01 214.125 135.563V98.4376C214.125 98.1444 214.201 97.8562 214.347 97.6014C214.492 97.3467 214.701 97.1342 214.954 96.985C215.206 96.8357 215.493 96.7548 215.786 96.7502C216.079 96.7456 216.369 96.8175 216.626 96.9589L250.376 115.521C250.64 115.667 250.861 115.881 251.015 116.141C251.169 116.401 251.25 116.698 251.25 117C251.25 117.302 251.169 117.599 251.015 117.859C250.861 118.119 250.64 118.333 250.376 118.479L216.626 137.041C216.377 137.178 216.097 137.25 215.812 137.25Z" fill="#38C93E"/>
</g>
</g>
<defs>
<clipPath id="clip0_4768_39384">
<rect width="462" height="233" fill="white"/>
</clipPath>
<clipPath id="clip1_4768_39384">
<rect width="286" height="286" fill="white" transform="translate(43.5 -9)"/>
</clipPath>
<clipPath id="clip2_4768_39384">
<rect width="286" height="286" fill="white" transform="translate(132.5 -44)"/>
</clipPath>
<clipPath id="clip3_4768_39384">
<rect width="54" height="54" fill="white" transform="translate(204 90)"/>
</clipPath>
</defs>
</svg>
